<svg width="40" height="40" viewBox="0 0 40 40" fill="none" xmlns="http://www.w3.org/2000/svg">
    <path d="M27.5 15C20.6 15 15 20.6 15 27.5C15 34.4 20.6 40 27.5 40C34.4 40 40 34.4 40 27.5C40 20.6 34.4 15.01 27.5 15ZM27.5 38.81C21.25 38.81 16.19 33.75 16.19 27.5C16.19 21.25 21.25 16.19 27.5 16.19C33.75 16.19 38.81 21.25 38.81 27.5C38.81 33.75 33.74 38.8 27.5 38.81Z" fill="white"/>
    <path d="M32.01 28.96C32.1 28.67 31.95 28.36 31.66 28.25L28.09 27.06V20.36C28.09 20.03 27.82 19.76 27.49 19.76C27.16 19.76 26.89 20.03 26.89 20.36V27.5C26.89 27.75 27.05 27.98 27.29 28.06L31.24 29.38H31.44C31.7 29.38 31.92 29.21 32 28.96H32.01Z" fill="white"/>
    <path d="M15.07 17.05C15.07 15.96 15.13 14.62 15.2 13.32C15.26 12.03 15.33 10.7 15.33 9.64C15.33 9.05 14.61 9.03 14.53 9.03C14.34 9.03 13.71 9.07 13.71 9.64C13.71 10.71 13.77 12.04 13.84 13.32C13.9 14.62 13.97 15.96 13.97 17.05C13.97 17.3 14.28 17.35 14.54 17.35C14.74 17.35 15.09 17.25 15.09 17.05H15.07Z" fill="white"/>
    <path d="M15.4 19.5C15.4 19.02 14.99 18.6 14.52 18.6C14.02 18.6 13.62 18.99 13.62 19.5C13.62 20.01 14.02 20.4 14.52 20.4C14.98 20.4 15.4 19.97 15.4 19.5Z" fill="white"/>
    <path d="M14.52 23.84H2.20001C1.75001 23.84 1.34001 23.6 1.12001 23.21C0.900009 22.82 0.910009 22.34 1.14001 21.96L13.45 1.55H13.44C13.89 0.81 15.12 0.81 15.57 1.55L23.45 14.62C23.76 14.52 24.08 14.45 24.4 14.37L16.38 1.06C15.98 0.41 15.26 0 14.5 0C13.74 0 13.02 0.41 12.62 1.06L0.310009 21.47H0.320009C-0.0899907 22.15 -0.0999907 23 0.290009 23.68C0.680009 24.37 1.41001 24.8 2.20001 24.8H14.27C14.34 24.47 14.43 24.16 14.52 23.84Z" fill="white"/>
</svg>
