<svg width="40" height="36" viewBox="0 0 40 36" fill="none" xmlns="http://www.w3.org/2000/svg">
    <path d="M2.45062 29.9358L2.66712 30.0608L2.45061 29.9358C1.9794 30.752 1.9794 31.7295 2.45061 32.5458C2.92184 33.362 3.76844 33.8508 4.71103 33.8508H35.2889C36.2314 33.8508 37.078 33.362 37.5493 32.5458L37.3328 32.4208L37.5493 32.5458C38.0206 31.7295 38.0206 30.752 37.5494 29.9358L37.5494 29.9358L22.2604 3.45443C21.7892 2.63815 20.9425 2.14942 20.0001 2.14942C19.0576 2.14942 18.2109 2.63815 17.7397 3.45442L2.45062 29.9358ZM39.1459 29.014L39.3624 28.889L39.1459 29.014C39.9514 30.4092 39.9514 32.0722 39.1459 33.4675C38.3402 34.8626 36.9 35.6941 35.2889 35.6941H4.71103C3.09988 35.6941 1.65975 34.8626 0.854178 33.4674C0.0486084 32.0722 0.0486051 30.4092 0.854181 29.0139L16.1431 2.53262C16.9486 1.13748 18.3889 0.305908 20 0.305908C21.6111 0.305908 23.0513 1.13747 23.8568 2.53262L39.1459 29.014Z" fill="white" stroke="#38414A" stroke-width="0.5"/>
    <path d="M19.0781 23.2181V12.0007H20.9216V23.2181H19.0781Z" fill="white" stroke="#38414A" stroke-width="0.5"/>
    <path d="M18.6875 27.3741C18.6875 26.6507 19.2764 26.0618 19.9998 26.0618C20.7233 26.0618 21.3122 26.6507 21.3122 27.3741C21.3122 28.0975 20.7232 28.6864 19.9998 28.6864C19.2764 28.6864 18.6875 28.0975 18.6875 27.3741Z" fill="white" stroke="#38414A" stroke-width="0.5"/>
</svg>
