<svg width="16" height="14" viewBox="0 0 16 14" fill="none" xmlns="http://www.w3.org/2000/svg">
<path d="M15.3333 6.19491H2.03367L7.12633 1.2212C7.393 0.960754 7.40333 0.528049 7.14933 0.254617C6.89567 -0.0184721 6.47367 -0.0294094 6.20667 0.231034L0.390667 5.91157C0.139 6.16996 0 6.51312 0 6.87849C0 7.24352 0.139 7.58702 0.402333 7.85669L6.207 13.5256C6.336 13.6517 6.50133 13.7143 6.66667 13.7143C6.84267 13.7143 7.01867 13.6432 7.14967 13.502C7.40367 13.2286 7.39333 12.7962 7.12667 12.5358L2.01267 7.56207H15.3333C15.7013 7.56207 16 7.25583 16 6.87849C16 6.50115 15.7013 6.19491 15.3333 6.19491Z" fill="#006697"/>
</svg>
