<svg width="14" height="14" viewBox="0 0 14 14" fill="none" xmlns="http://www.w3.org/2000/svg">
<path d="M8.06071 6.43952C7.93271 6.43952 7.80471 6.39077 7.70721 6.29302C6.92746 5.51327 5.65871 5.51302 4.87871 6.29302C4.68371 6.48827 4.36671 6.48827 4.17171 6.29302C3.97646 6.09777 3.97646 5.78127 4.17171 5.58602C5.34146 4.41602 7.24471 4.41627 8.41421 5.58602C8.60946 5.78127 8.60946 6.09777 8.41421 6.29302C8.31671 6.39077 8.18846 6.43952 8.06071 6.43952Z" fill="black"/>
<path d="M7.70726 9.29172C6.93901 9.29172 6.17076 8.99922 5.58601 8.41447C5.39076 8.21922 5.39076 7.90272 5.58601 7.70747C5.78101 7.51222 6.09801 7.51222 6.29301 7.70747C7.07276 8.48722 8.34151 8.48747 9.12151 7.70747C9.31651 7.51222 9.63351 7.51222 9.82851 7.70747C10.0238 7.90272 10.0238 8.21922 9.82851 8.41447C9.24351 8.99922 8.47526 9.29172 7.70726 9.29172Z" fill="black"/>
<path d="M9.47479 8.56076C9.34679 8.56076 9.21879 8.51201 9.12129 8.41426C8.92604 8.21901 8.92604 7.90251 9.12129 7.70726L11.9143 4.91426C12.1093 4.71901 12.4263 4.71901 12.6213 4.91426C12.8165 5.10951 12.8165 5.42601 12.6213 5.62126L9.82829 8.41426C9.73079 8.51201 9.60279 8.56076 9.47479 8.56076Z" fill="black"/>
<path d="M5.26776 12.7677C5.13976 12.7677 5.01176 12.719 4.91426 12.6212C4.71901 12.426 4.71901 12.1095 4.91426 11.9142L6.47551 10.353C6.67051 10.1577 6.98751 10.1577 7.18251 10.353C7.37776 10.5482 7.37776 10.8647 7.18251 11.06L5.62126 12.6212C5.52376 12.719 5.39576 12.7677 5.26776 12.7677Z" fill="black"/>
<path d="M1.73224 9.23226C1.60424 9.23226 1.47624 9.18351 1.37874 9.08576C1.18349 8.89051 1.18349 8.57401 1.37874 8.37876L4.17174 5.58601C4.36699 5.39076 4.68374 5.39076 4.87874 5.58601C5.07399 5.78126 5.07399 6.09776 4.87874 6.29301L2.08574 9.08576C1.98799 9.18326 1.85999 9.23226 1.73224 9.23226Z" fill="black"/>
<path d="M7.17096 3.79374C7.04296 3.79374 6.91521 3.74499 6.81746 3.64749C6.62221 3.45224 6.62221 3.13574 6.81746 2.94024L8.37871 1.37874C8.57396 1.18349 8.89046 1.18349 9.08596 1.37874C9.28121 1.57399 9.28121 1.89049 9.08596 2.08599L7.52471 3.64749C7.42696 3.74474 7.29871 3.79374 7.17096 3.79374Z" fill="black"/>
<path d="M3.49999 13.4837C2.72674 13.4837 1.95349 13.1962 1.37874 12.6212C0.228735 11.4712 0.228735 9.52849 1.37874 8.37849C1.57374 8.18324 1.89074 8.18324 2.08574 8.37849C2.28099 8.57374 2.28099 8.89024 2.08574 9.08549C1.31924 9.85199 1.31924 11.1475 2.08574 11.914C2.85224 12.6805 4.14774 12.6805 4.91424 11.914C5.10924 11.7187 5.42624 11.7187 5.62124 11.914C5.81649 12.1092 5.81649 12.4257 5.62124 12.621C5.04649 13.1962 4.27324 13.4837 3.49999 13.4837Z" fill="black"/>
<path d="M12.2677 5.76774C12.1397 5.76774 12.0117 5.71899 11.9142 5.62124C11.719 5.42599 11.719 5.10949 11.9142 4.91424C12.6807 4.14774 12.6807 2.85224 11.9142 2.08574C11.1477 1.31924 9.85224 1.31924 9.08574 2.08574C8.89074 2.28099 8.57374 2.28099 8.37874 2.08574C8.18349 1.89049 8.18349 1.57399 8.37874 1.37874C9.52874 0.228735 11.4715 0.228735 12.6215 1.37874C13.7715 2.52874 13.7715 4.47149 12.6215 5.62149C12.5237 5.71899 12.3957 5.76774 12.2677 5.76774Z" fill="black"/>
</svg>
