<svg width="14" height="16" viewBox="0 0 14 16" fill="none" xmlns="http://www.w3.org/2000/svg">
<path d="M13.2514 11.2753C12.2434 10.4233 11.6654 9.178 11.6654 7.85867V6C11.6654 3.654 9.9227 1.712 7.66536 1.38667V0.666667C7.66536 0.298 7.3667 0 6.9987 0C6.6307 0 6.33203 0.298 6.33203 0.666667V1.38667C4.07403 1.712 2.33203 3.654 2.33203 6V7.85867C2.33203 9.178 1.75403 10.4233 0.740031 11.2807C0.480698 11.5027 0.332031 11.8253 0.332031 12.1667C0.332031 12.81 0.855365 13.3333 1.4987 13.3333H12.4987C13.142 13.3333 13.6654 12.81 13.6654 12.1667C13.6654 11.8253 13.5167 11.5027 13.2514 11.2753Z" fill="#C71B05"/>
<path d="M7.00011 16C8.20745 16 9.21745 15.1393 9.44945 14H4.55078C4.78278 15.1393 5.79278 16 7.00011 16Z" fill="#C71B05"/>
</svg>
