<svg width="60" height="68" viewBox="0 0 60 68" fill="none" xmlns="http://www.w3.org/2000/svg">
<path d="M56.0802 26.087C56.0802 40.4935 44.3997 52.1739 29.9932 52.1739C15.5867 52.1739 3.90625 40.4935 3.90625 26.087C3.90625 11.6804 15.5867 0 29.9932 0C44.3997 0 56.0802 11.6804 56.0802 26.087Z" fill="#006697"/>
<g style="mix-blend-mode:multiply">
<path d="M30.0598 47.0871C18.5163 47.0871 9.125 37.6958 9.125 26.1523C9.125 14.6088 18.5163 5.21753 30.0598 5.21753C41.6033 5.21753 50.9946 14.6088 50.9946 26.1523C50.9946 37.6958 41.6033 47.0871 30.0598 47.0871Z" fill="#939598"/>
</g>
<path d="M29.9946 46.9567C18.4902 46.9567 9.125 37.5914 9.125 26.0871C9.125 14.5827 18.4837 5.21753 29.9946 5.21753C41.5054 5.21753 50.8641 14.5827 50.8641 26.0871C50.8641 37.5914 41.5054 46.9567 29.9946 46.9567Z" fill="url(#paint0_linear_8458_67681)"/>
<path d="M49.67 33.0457C45.8352 43.8979 33.8808 49.5979 23.0352 45.7566C17.4852 43.7935 13.2787 39.7044 11.0156 34.7283C13.3569 39.3457 17.4069 43.1087 22.6635 44.9674C33.5091 48.8022 45.4635 43.1022 49.2982 32.25C51.1569 26.9935 50.7787 21.4827 48.6591 16.7544C51.1048 21.6457 51.6395 27.4827 49.6765 33.0392L49.67 33.0457Z" fill="white"/>
<path d="M35.6109 34.8913H23.1609C22.5217 34.8913 22 34.3695 22 33.7369V33.1043C22 32.4652 22.5217 31.95 23.1609 31.95H35.6109C36.25 31.95 36.7652 32.4717 36.7652 33.1043V33.7369C36.7652 34.376 36.2435 34.8913 35.6109 34.8913ZM23.1609 32.9347C23.0696 32.9347 22.9978 33.0065 22.9978 33.0978V33.7304C22.9978 33.8217 23.0696 33.8934 23.1609 33.8934H35.6109C35.7022 33.8934 35.7739 33.8217 35.7739 33.7304V33.0978C35.7739 33.0065 35.7022 32.9347 35.6109 32.9347H23.1609Z" fill="#67666B"/>
<path d="M34.3473 30.8478L33.356 30.8282C33.356 30.8282 33.3756 29.9935 33.356 29.3217C33.356 29.1261 33.1604 28.8 32.9712 28.6435C31.9408 27.8152 30.1799 26.0739 30.0169 23.7261C29.9973 23.4522 30.206 23.2174 30.4799 23.1978C30.7473 23.1782 30.9886 23.3869 31.0082 23.6543C31.1517 25.7022 32.8669 27.2804 33.5973 27.8674C33.9626 28.1608 34.3408 28.7478 34.3538 29.2956C34.3734 29.9869 34.3538 30.8478 34.3538 30.8478H34.3473Z" fill="#67666B"/>
<path d="M34.3486 32.7522H24.4356C23.7965 32.7522 23.2812 32.2305 23.2812 31.5979V31.5001C23.2812 30.8609 23.7965 30.3457 24.4356 30.3457H34.3486C34.9878 30.3457 35.503 30.8674 35.503 31.5001V31.5979C35.503 32.237 34.9878 32.7522 34.3486 32.7522ZM24.4356 31.3305C24.3443 31.3305 24.2726 31.4022 24.2726 31.4935V31.5914C24.2726 31.6827 24.3443 31.7544 24.4356 31.7544H34.3486C34.4399 31.7544 34.5117 31.6827 34.5117 31.5914V31.4935C34.5117 31.4022 34.4399 31.3305 34.3486 31.3305H24.4356Z" fill="#67666B"/>
<path d="M25.1362 31.3304C24.8688 31.3304 24.647 31.1151 24.6405 30.8412L24.6079 29.0412C24.6079 28.7934 24.4449 28.3891 24.2818 28.2065L23.8579 27.7304C23.5383 27.3717 23.2514 26.7651 23.1992 26.3151C22.9253 24.1238 22.6449 18.7825 25.9709 16.5847C29.1601 14.4782 32.4927 15.6456 33.7775 16.2456C34.3449 16.5065 34.5992 17.2238 34.3318 17.8108L34.1101 18.2999C34.0383 18.4565 34.084 18.7304 34.1949 18.8608C34.7427 19.4804 35.5253 20.3999 36.1644 21.2347C36.5753 21.7695 36.6731 22.4021 36.4514 23.0738C36.1188 24.0717 35.134 24.926 34.5992 25.0825C33.9144 25.2912 33.2818 24.4891 33.0731 24.2282C32.9492 24.0717 32.6818 23.9608 32.4992 23.9804C30.6731 24.2478 29.3362 24.0065 28.5209 23.2565C27.7057 22.513 27.7449 21.5478 27.7449 21.5086C27.7579 21.2347 27.9862 21.0325 28.2666 21.0391C28.5405 21.0521 28.7492 21.2869 28.7362 21.5608C28.7362 21.5804 28.7231 22.1151 29.1992 22.5391C29.7796 23.0543 30.8753 23.2173 32.3557 23.0021C32.8775 22.9304 33.5036 23.1847 33.8492 23.6086C34.1296 23.9673 34.2992 24.0782 34.3644 24.1108C34.6188 23.9869 35.3036 23.413 35.5188 22.7412C35.6296 22.3956 35.584 22.1086 35.3818 21.8347C34.7296 20.9804 33.8949 20.0151 33.4579 19.513C33.0862 19.0891 32.9818 18.3912 33.2166 17.8825L33.4383 17.3934C33.4775 17.3021 33.4449 17.1782 33.3666 17.1456C32.2318 16.6173 29.2905 15.5869 26.5188 17.413C23.5775 19.3565 23.9883 24.626 24.184 26.1912C24.2166 26.4391 24.4122 26.863 24.6014 27.0651L25.0253 27.5412C25.3449 27.8999 25.5927 28.5325 25.6057 29.0151L25.6383 30.8151C25.6383 31.0891 25.4231 31.3173 25.1492 31.3173H25.1362V31.3304Z" fill="#67666B"/>
<path d="M30 56.087C13.4543 56.087 0 42.6261 0 26.087C0 25.7283 0.293478 25.4348 0.652174 25.4348C1.01087 25.4348 1.30435 25.7283 1.30435 26.087C1.30435 41.9087 14.1783 54.7826 30 54.7826C45.8217 54.7826 58.6957 41.9087 58.6957 26.087C58.6957 25.7283 58.9891 25.4348 59.3478 25.4348C59.7065 25.4348 60 25.7283 60 26.087C60 42.6326 46.5456 56.087 30 56.087Z" fill="#006697"/>
<path d="M30.0027 67.1739C32.524 67.1739 34.5679 65.13 34.5679 62.6087C34.5679 60.0874 32.524 58.0435 30.0027 58.0435C27.4814 58.0435 25.4375 60.0874 25.4375 62.6087C25.4375 65.13 27.4814 67.1739 30.0027 67.1739Z" fill="#006697"/>
<g style="mix-blend-mode:multiply">
<path d="M30.2921 66.2349C32.093 66.2349 33.553 64.7749 33.553 62.974C33.553 61.1731 32.093 59.7131 30.2921 59.7131C28.4912 59.7131 27.0312 61.1731 27.0312 62.974C27.0312 64.7749 28.4912 66.2349 30.2921 66.2349Z" fill="#D1D3D4"/>
</g>
<path d="M30.0031 65.8696C31.804 65.8696 33.2639 64.4097 33.2639 62.6088C33.2639 60.8078 31.804 59.3479 30.0031 59.3479C28.2021 59.3479 26.7422 60.8078 26.7422 62.6088C26.7422 64.4097 28.2021 65.8696 30.0031 65.8696Z" fill="url(#paint1_linear_8458_67681)"/>
<defs>
<linearGradient id="paint0_linear_8458_67681" x1="4.29239" y1="24.5675" x2="48.6598" y2="27.1958" gradientUnits="userSpaceOnUse">
<stop stop-color="white"/>
<stop offset="0.32" stop-color="#FBFBFB"/>
<stop offset="0.64" stop-color="#EEEEEE"/>
<stop offset="0.96" stop-color="#DBDBDB"/>
<stop offset="0.99" stop-color="#D8D8D8"/>
</linearGradient>
<linearGradient id="paint1_linear_8458_67681" x1="26.7422" y1="62.6088" x2="33.2639" y2="62.6088" gradientUnits="userSpaceOnUse">
<stop stop-color="white"/>
<stop offset="0.32" stop-color="#FBFBFB"/>
<stop offset="0.64" stop-color="#EEEEEE"/>
<stop offset="0.96" stop-color="#DBDBDB"/>
<stop offset="0.99" stop-color="#D8D8D8"/>
</linearGradient>
</defs>
</svg>
