<svg width="18" height="22" viewBox="0 0 18 22" fill="none" xmlns="http://www.w3.org/2000/svg">
<path d="M15.5 21.75H2.5C1.90326 21.75 1.33097 21.5129 0.90901 21.091C0.487053 20.669 0.25 20.0967 0.25 19.5V2.5C0.25 1.90326 0.487053 1.33097 0.90901 0.90901C1.33097 0.487053 1.90326 0.25 2.5 0.25H15.5C16.0967 0.25 16.669 0.487053 17.091 0.90901C17.5129 1.33097 17.75 1.90326 17.75 2.5V19.5C17.75 20.0967 17.5129 20.669 17.091 21.091C16.669 21.5129 16.0967 21.75 15.5 21.75ZM2.5 1.75C2.30109 1.75 2.11032 1.82902 1.96967 1.96967C1.82902 2.11032 1.75 2.30109 1.75 2.5V19.5C1.75 19.6989 1.82902 19.8897 1.96967 20.0303C2.11032 20.171 2.30109 20.25 2.5 20.25H15.5C15.6989 20.25 15.8897 20.171 16.0303 20.0303C16.171 19.8897 16.25 19.6989 16.25 19.5V2.5C16.25 2.30109 16.171 2.11032 16.0303 1.96967C15.8897 1.82902 15.6989 1.75 15.5 1.75H2.5Z" fill="#747474"/>
<path d="M14 8.75H4C3.80189 8.74741 3.61263 8.66756 3.47253 8.52747C3.33244 8.38737 3.25259 8.19811 3.25 8V4C3.25 3.80109 3.32902 3.61032 3.46967 3.46967C3.61032 3.32902 3.80109 3.25 4 3.25H14C14.1989 3.25 14.3897 3.32902 14.5303 3.46967C14.671 3.61032 14.75 3.80109 14.75 4V8C14.7474 8.19811 14.6676 8.38737 14.5275 8.52747C14.3874 8.66756 14.1981 8.74741 14 8.75ZM4.75 7.25H13.25V4.75H4.75V7.25Z" fill="#747474"/>
<path d="M5 12.5C5.55228 12.5 6 12.0523 6 11.5C6 10.9477 5.55228 10.5 5 10.5C4.44772 10.5 4 10.9477 4 11.5C4 12.0523 4.44772 12.5 5 12.5Z" fill="#747474"/>
<path d="M9 12.5C9.55228 12.5 10 12.0523 10 11.5C10 10.9477 9.55228 10.5 9 10.5C8.44772 10.5 8 10.9477 8 11.5C8 12.0523 8.44772 12.5 9 12.5Z" fill="#747474"/>
<path d="M13 12.5C13.5523 12.5 14 12.0523 14 11.5C14 10.9477 13.5523 10.5 13 10.5C12.4477 10.5 12 10.9477 12 11.5C12 12.0523 12.4477 12.5 13 12.5Z" fill="#747474"/>
<path d="M5 15.5C5.55228 15.5 6 15.0523 6 14.5C6 13.9477 5.55228 13.5 5 13.5C4.44772 13.5 4 13.9477 4 14.5C4 15.0523 4.44772 15.5 5 15.5Z" fill="#747474"/>
<path d="M9 15.5C9.55228 15.5 10 15.0523 10 14.5C10 13.9477 9.55228 13.5 9 13.5C8.44772 13.5 8 13.9477 8 14.5C8 15.0523 8.44772 15.5 9 15.5Z" fill="#747474"/>
<path d="M5 18.5C5.55228 18.5 6 18.0523 6 17.5C6 16.9477 5.55228 16.5 5 16.5C4.44772 16.5 4 16.9477 4 17.5C4 18.0523 4.44772 18.5 5 18.5Z" fill="#747474"/>
<path d="M9 18.5C9.55228 18.5 10 18.0523 10 17.5C10 16.9477 9.55228 16.5 9 16.5C8.44772 16.5 8 16.9477 8 17.5C8 18.0523 8.44772 18.5 9 18.5Z" fill="#747474"/>
<path d="M13 18.5C12.8019 18.4974 12.6126 18.4176 12.4725 18.2775C12.3324 18.1374 12.2526 17.9481 12.25 17.75V14.25C12.25 14.0511 12.329 13.8603 12.4697 13.7197C12.6103 13.579 12.8011 13.5 13 13.5C13.1989 13.5 13.3897 13.579 13.5303 13.7197C13.671 13.8603 13.75 14.0511 13.75 14.25V17.75C13.7474 17.9481 13.6676 18.1374 13.5275 18.2775C13.3874 18.4176 13.1981 18.4974 13 18.5Z" fill="#747474"/>
</svg>
