<svg width="40" height="40" viewBox="0 0 40 40" fill="none" xmlns="http://www.w3.org/2000/svg">
    <g clip-path="url(#clip0_2813_34530)">
        <path d="M31.4769 2.96291V3.33791H31.8519H33.9556C36.6744 3.33791 38.8843 5.54781 38.8843 8.26663V34.6963C38.8843 37.4151 36.6744 39.625 33.9556 39.625H6.04444C3.32563 39.625 1.11572 37.4151 1.11572 34.6963V8.26663C1.11572 5.54781 3.32563 3.33791 6.04444 3.33791H8.14812H8.52312V2.96291V1.48145C8.52312 0.873736 9.02185 0.375 9.62957 0.375C10.2373 0.375 10.7361 0.873777 10.7361 1.48145V2.96291V3.33791H11.1111H28.8888H29.2638V2.96291V1.48145C29.2638 0.873736 29.7626 0.375 30.3703 0.375C30.9781 0.375 31.4769 0.873778 31.4769 1.48145V2.96291ZM8.52312 5.92594V5.55094H8.14812H6.04444C4.54849 5.55094 3.32875 6.77067 3.32875 8.26663V34.6963C3.32875 36.1922 4.54849 37.412 6.04444 37.412H33.9554C35.4514 37.412 36.6711 36.1922 36.6711 34.6963V8.26663C36.6711 6.77067 35.4514 5.55094 33.9554 5.55094H31.8518H31.4768V5.92594V7.40739C31.4768 8.01511 30.978 8.51385 30.3703 8.51385C29.7626 8.51385 29.2638 8.01511 29.2638 7.40739V5.92594V5.55094H28.8888H11.111H10.736V5.92594V7.40739C10.736 8.01511 10.2373 8.51385 9.62957 8.51385C9.02185 8.51385 8.52312 8.01511 8.52312 7.40739V5.92594Z" fill="white" stroke="#38414A" stroke-width="0.75"/>
        <path d="M12.9583 15.1851C12.9583 16.0007 12.2971 16.6619 11.4815 16.6619C10.6658 16.6619 10.0046 16.0007 10.0046 15.1851C10.0046 14.3694 10.6658 13.7083 11.4815 13.7083C12.2971 13.7083 12.9583 14.3694 12.9583 15.1851Z" fill="white" stroke="#38414A" stroke-width="0.75"/>
        <path d="M21.1065 15.1851C21.1065 16.0007 20.4453 16.6619 19.6296 16.6619C18.814 16.6619 18.1528 16.0007 18.1528 15.1851C18.1528 14.3694 18.814 13.7083 19.6296 13.7083C20.4453 13.7083 21.1065 14.3694 21.1065 15.1851Z" fill="white" stroke="#38414A" stroke-width="0.75"/>
        <path d="M29.2547 15.1851C29.2547 16.0007 28.5935 16.6619 27.7778 16.6619C26.9622 16.6619 26.301 16.0007 26.301 15.1851C26.301 14.3694 26.9622 13.7083 27.7778 13.7083C28.5935 13.7083 29.2547 14.3694 29.2547 15.1851Z" fill="white" stroke="#38414A" stroke-width="0.75"/>
        <path d="M12.9583 22.5925C12.9583 23.4082 12.2971 24.0694 11.4815 24.0694C10.6658 24.0694 10.0046 23.4082 10.0046 22.5925C10.0046 21.7769 10.6658 21.1157 11.4815 21.1157C12.2971 21.1157 12.9583 21.7769 12.9583 22.5925Z" fill="white" stroke="#38414A" stroke-width="0.75"/>
        <path d="M21.1065 22.5925C21.1065 23.4082 20.4453 24.0694 19.6296 24.0694C18.814 24.0694 18.1528 23.4082 18.1528 22.5925C18.1528 21.7769 18.814 21.1157 19.6296 21.1157C20.4453 21.1157 21.1065 21.7769 21.1065 22.5925Z" fill="white" stroke="#38414A" stroke-width="0.75"/>
        <path d="M29.2547 22.5925C29.2547 23.4082 28.5935 24.0694 27.7778 24.0694C26.9622 24.0694 26.301 23.4082 26.301 22.5925C26.301 21.7769 26.9622 21.1157 27.7778 21.1157C28.5935 21.1157 29.2547 21.7769 29.2547 22.5925Z" fill="white" stroke="#38414A" stroke-width="0.75"/>
        <path d="M12.9583 30C12.9583 30.8156 12.2971 31.4768 11.4815 31.4768C10.6658 31.4768 10.0046 30.8156 10.0046 30C10.0046 29.1844 10.6658 28.5232 11.4815 28.5232C12.2971 28.5232 12.9583 29.1844 12.9583 30Z" fill="white" stroke="#38414A" stroke-width="0.75"/>
        <path d="M21.1065 30C21.1065 30.8156 20.4453 31.4768 19.6296 31.4768C18.814 31.4768 18.1528 30.8156 18.1528 30C18.1528 29.1844 18.814 28.5232 19.6296 28.5232C20.4453 28.5232 21.1065 29.1844 21.1065 30Z" fill="white" stroke="#38414A" stroke-width="0.75"/>
        <path d="M29.2547 30C29.2547 30.8156 28.5935 31.4768 27.7778 31.4768C26.9622 31.4768 26.301 30.8156 26.301 30C26.301 29.1844 26.9622 28.5232 27.7778 28.5232C28.5935 28.5232 29.2547 29.1844 29.2547 30Z" fill="white" stroke="#38414A" stroke-width="0.75"/>
    </g>
    <defs>
        <clipPath id="clip0_2813_34530">
            <rect width="40" height="40" fill="white"/>
        </clipPath>
    </defs>
</svg>
