<svg width="24" height="17" viewBox="0 0 24 17" fill="none" xmlns="http://www.w3.org/2000/svg">
<path d="M21.375 0.25H2.625C1.17759 0.25 0 1.42759 0 2.875V14.125C0 15.5724 1.17759 16.75 2.625 16.75H21.375C22.8224 16.75 24 15.5724 24 14.125V2.875C24 1.42759 22.8224 0.25 21.375 0.25ZM2.625 1.75H21.375C21.9953 1.75 22.5 2.2547 22.5 2.875V4.375H1.5V2.875C1.5 2.2547 2.0047 1.75 2.625 1.75ZM21.375 15.25H2.625C2.0047 15.25 1.5 14.7453 1.5 14.125V5.875H22.5V14.125C22.5 14.7453 21.9953 15.25 21.375 15.25Z" fill="black"/>
</svg>
