<svg width="40" height="40" viewBox="0 0 40 40" fill="none" xmlns="http://www.w3.org/2000/svg">
<path d="M13.83 25.51C13.83 24.96 13.69 24.43 13.44 23.98C13.38 23.88 13.32 23.77 13.25 23.67H16.82L17.65 22.29H10.49L10 20.51C10.21 20.56 10.42 20.59 10.64 20.59H18.67L19.47 19.27H10.64C10.08 19.24 9.58 18.87 9.39 18.34L7.84 12.67L6.46 7.69H28.18L26.66 13.39C27.12 13.52 27.55 13.73 27.93 14.01L29.76 7.18C29.86 6.81 29.64 6.43 29.27 6.33C29.21 6.32 29.15 6.3 29.09 6.3H6.13L4.57 0.51C4.49 0.21 4.22 0 3.91 0H0V1.38H3.36L4.87 7.02C4.87 7.02 4.87 7.11 4.87 7.16L7.98 18.57C8 18.66 8.03 18.76 8.06 18.85L9.11 22.68C8.1 23.22 7.41 24.28 7.41 25.51C7.41 27.28 8.84 28.71 10.61 28.71C12.38 28.71 13.81 27.28 13.81 25.51H13.83ZM8.78 25.51C8.78 24.49 9.6 23.67 10.62 23.67C11.64 23.67 12.46 24.5 12.46 25.51C12.46 26.52 11.64 27.35 10.62 27.35C9.6 27.35 8.78 26.53 8.78 25.51Z" fill="white"/>
<path d="M23.6198 16.26L11.3098 36.6699C10.8998 37.3499 10.8898 38.2 11.2798 38.88C11.6698 39.57 12.3998 40 13.1898 40H37.7998C38.5898 40 39.3198 39.57 39.7098 38.88C40.0998 38.19 40.0898 37.3399 39.6798 36.6699L27.3698 16.26C26.9698 15.61 26.2498 15.2 25.4898 15.2C24.7298 15.2 24.0098 15.61 23.6098 16.26H23.6198ZM26.5598 16.75L38.8698 37.16C39.0998 37.5399 39.1098 38.02 38.8898 38.41C38.6698 38.7999 38.2598 39.04 37.8098 39.04H13.1898C12.7398 39.04 12.3298 38.7999 12.1098 38.41C11.8898 38.02 11.8998 37.5399 12.1298 37.16L24.4398 16.75C24.6598 16.38 25.0798 16.19 25.4998 16.19C25.9198 16.19 26.3398 16.38 26.5598 16.75Z" fill="white"/>
<path d="M26.0597 32.25C26.0597 31.16 26.1197 29.82 26.1897 28.52C26.2497 27.23 26.3197 25.9 26.3197 24.84C26.3197 24.25 25.5997 24.23 25.5197 24.23C25.3297 24.23 24.6997 24.27 24.6997 24.84C24.6997 25.91 24.7597 27.24 24.8297 28.52C24.8897 29.82 24.9597 31.16 24.9597 32.25C24.9597 32.5 25.2697 32.55 25.5297 32.55C25.7297 32.55 26.0797 32.45 26.0797 32.25H26.0597Z" fill="white"/>
<path d="M26.3996 34.7001C26.3996 34.2201 25.9896 33.8 25.5196 33.8C25.0196 33.8 24.6196 34.1901 24.6196 34.7001C24.6196 35.2101 25.0196 35.6 25.5196 35.6C25.9796 35.6 26.3996 35.1701 26.3996 34.7001Z" fill="white"/>
</svg>
