<svg width="40" height="40" viewBox="0 0 40 40" fill="none" xmlns="http://www.w3.org/2000/svg">
<g clip-path="url(#clip0_1864_20493)">
<path d="M27.5 14.27C20.6 14.27 15 19.87 15 26.77C15 33.67 20.6 39.27 27.5 39.27C34.4 39.27 40 33.67 40 26.77C40 19.87 34.4 14.28 27.5 14.27ZM27.5 38.08C21.25 38.08 16.19 33.02 16.19 26.77C16.19 20.52 21.25 15.46 27.5 15.46C33.75 15.46 38.81 20.52 38.81 26.77C38.81 33.01 33.74 38.07 27.5 38.08Z" fill="white"/>
<path d="M32.0101 28.24C32.1001 27.95 31.9501 27.64 31.6601 27.53L28.0901 26.34V19.64C28.0901 19.31 27.8201 19.04 27.4901 19.04C27.1601 19.04 26.8901 19.31 26.8901 19.64V26.78C26.8901 27.03 27.0501 27.26 27.2901 27.34L31.2401 28.66C31.2401 28.66 31.3001 28.66 31.3401 28.66C31.3801 28.66 31.4001 28.66 31.4401 28.66C31.7001 28.66 31.9201 28.49 32.0001 28.24H32.0101Z" fill="white"/>
<path d="M13 26.77C13 25.74 13.11 24.74 13.32 23.77C13.3 23.73 13.28 23.7 13.25 23.66H13.35C13.45 23.19 13.58 22.73 13.73 22.28H10.51L10.02 20.5C10.23 20.55 10.44 20.58 10.66 20.58H14.42C14.64 20.13 14.87 19.68 15.13 19.26H10.64C10.08 19.23 9.58 18.86 9.39 18.33L7.84 12.66L6.46 7.68H28.18L26.95 12.3C27.14 12.3 27.32 12.27 27.5 12.27C27.8 12.27 28.09 12.3 28.38 12.32L29.77 7.16C29.87 6.79 29.65 6.41 29.28 6.31C29.22 6.3 29.16 6.28 29.1 6.28H6.13L4.57 0.51C4.49 0.21 4.22 0 3.91 0H0V1.38H3.36L4.87 7.02C4.87 7.02 4.87 7.11 4.87 7.16L7.98 18.57C8 18.66 8.03 18.76 8.06 18.85L9.11 22.68C8.1 23.22 7.41 24.28 7.41 25.51C7.41 27.28 8.84 28.71 10.61 28.71C11.58 28.71 12.44 28.27 13.03 27.59C13.01 27.32 12.99 27.05 12.99 26.78L13 26.77ZM10.62 27.34C9.6 27.34 8.78 26.52 8.78 25.5C8.78 24.48 9.6 23.66 10.62 23.66C11.64 23.66 12.46 24.49 12.46 25.5C12.46 26.51 11.64 27.34 10.62 27.34Z" fill="white"/>
</g>
<defs>
<clipPath id="clip0_1864_20493">
<rect width="40" height="39.27" fill="white"/>
</clipPath>
</defs>
</svg>
