<svg width="32" height="32" viewBox="0 0 32 32" fill="none" xmlns="http://www.w3.org/2000/svg">
<path d="M25.8585 22.691C27.1891 22.6771 28.3524 21.7785 28.6938 20.4897L31.9749 8.27101C32.0793 7.87393 31.8495 7.46989 31.4524 7.35843C31.3897 7.3445 31.327 7.33057 31.2643 7.33057H6.58306L4.9042 1.13065C4.82061 0.810207 4.52803 0.580322 4.19365 0.580322H0V2.06412H3.60849L5.23162 8.12472C5.22465 8.17348 5.22465 8.22224 5.23162 8.27101L8.57539 20.5315C8.59629 20.629 8.63112 20.7335 8.66595 20.8311L9.79448 24.9411C8.70775 25.5193 7.96933 26.6618 7.96933 27.9784C7.96933 29.8802 9.50886 31.4197 11.4106 31.4197C13.3124 31.4197 14.8519 29.8802 14.8519 27.9784C14.8519 27.3863 14.6987 26.822 14.434 26.3344C14.3713 26.2229 14.3086 26.1114 14.2319 26H22.9885C22.5983 26.5573 22.3615 27.24 22.3615 27.9784C22.3615 29.8802 23.901 31.4197 25.8028 31.4197C27.7046 31.4197 29.2441 29.8802 29.2441 27.9784C29.2441 27.0797 28.9028 26.2647 28.3385 25.6517C27.7324 24.962 26.8408 24.5231 25.8446 24.5162H11.2783L10.7558 22.6005C10.9787 22.6562 11.2086 22.691 11.4385 22.691H25.8585ZM25.8098 26C26.9035 26 27.7882 26.8847 27.7882 27.9784C27.7882 29.0721 26.9035 29.9568 25.8098 29.9568C24.7161 29.9568 23.8314 29.0721 23.8314 27.9784C23.8314 26.8847 24.7161 26 25.8098 26ZM11.4106 26C12.5043 26 13.3821 26.8917 13.3821 27.9784C13.3821 29.0721 12.4974 29.9568 11.4037 29.9568C10.31 29.9568 9.43223 29.0721 9.43223 27.9784C9.43223 26.8847 10.3169 26 11.4106 26ZM10.0871 20.2668L8.42213 14.1783L6.93833 8.8283H30.2681L27.2518 20.1553C27.0846 20.8032 26.5064 21.256 25.8376 21.2699H11.4246C10.8185 21.2351 10.2891 20.845 10.0871 20.2668Z" fill="black"/>
</svg>
