<svg width="25" height="24" viewBox="0 0 25 24" fill="none" xmlns="http://www.w3.org/2000/svg">
<path d="M9.76923 0H3.30769C2.69588 0.000732857 2.10933 0.244099 1.67672 0.676717C1.2441 1.10933 1.00073 1.69588 1 2.30769V8.76923C1.00073 9.38104 1.2441 9.96759 1.67672 10.4002C2.10933 10.8328 2.69588 11.0762 3.30769 11.0769H9.76923C10.381 11.0762 10.9676 10.8328 11.4002 10.4002C11.8328 9.96759 12.0762 9.38104 12.0769 8.76923V2.30769C12.0762 1.69588 11.8328 1.10933 11.4002 0.676717C10.9676 0.244099 10.381 0.000732857 9.76923 0ZM11.1538 8.76923C11.1538 9.13645 11.008 9.48864 10.7483 9.7483C10.4886 10.008 10.1365 10.1538 9.76923 10.1538H3.30769C2.94047 10.1538 2.58829 10.008 2.32862 9.7483C2.06896 9.48864 1.92308 9.13645 1.92308 8.76923V2.30769C1.92308 1.94047 2.06896 1.58829 2.32862 1.32862C2.58829 1.06896 2.94047 0.923077 3.30769 0.923077H9.76923C10.1365 0.923077 10.4886 1.06896 10.7483 1.32862C11.008 1.58829 11.1538 1.94047 11.1538 2.30769V8.76923ZM22.6923 0H16.2308C15.619 0.000732857 15.0324 0.244099 14.5998 0.676717C14.1672 1.10933 13.9238 1.69588 13.9231 2.30769V8.76923C13.9238 9.38104 14.1672 9.96759 14.5998 10.4002C15.0324 10.8328 15.619 11.0762 16.2308 11.0769H22.6923C23.3041 11.0762 23.8907 10.8328 24.3233 10.4002C24.7559 9.96759 24.9993 9.38104 25 8.76923V2.30769C24.9993 1.69588 24.7559 1.10933 24.3233 0.676717C23.8907 0.244099 23.3041 0.000732857 22.6923 0ZM24.0769 8.76923C24.0769 9.13645 23.931 9.48864 23.6714 9.7483C23.4117 10.008 23.0595 10.1538 22.6923 10.1538H16.2308C15.8635 10.1538 15.5114 10.008 15.2517 9.7483C14.992 9.48864 14.8462 9.13645 14.8462 8.76923V2.30769C14.8462 1.94047 14.992 1.58829 15.2517 1.32862C15.5114 1.06896 15.8635 0.923077 16.2308 0.923077H22.6923C23.0595 0.923077 23.4117 1.06896 23.6714 1.32862C23.931 1.58829 24.0769 1.94047 24.0769 2.30769V8.76923ZM9.76923 12.9231H3.30769C2.69588 12.9238 2.10933 13.1672 1.67672 13.5998C1.2441 14.0324 1.00073 14.619 1 15.2308V21.6923C1.00073 22.3041 1.2441 22.8907 1.67672 23.3233C2.10933 23.7559 2.69588 23.9993 3.30769 24H9.76923C10.381 23.9993 10.9676 23.7559 11.4002 23.3233C11.8328 22.8907 12.0762 22.3041 12.0769 21.6923V15.2308C12.0762 14.619 11.8328 14.0324 11.4002 13.5998C10.9676 13.1672 10.381 12.9238 9.76923 12.9231ZM11.1538 21.6923C11.1538 22.0595 11.008 22.4117 10.7483 22.6714C10.4886 22.931 10.1365 23.0769 9.76923 23.0769H3.30769C2.94047 23.0769 2.58829 22.931 2.32862 22.6714C2.06896 22.4117 1.92308 22.0595 1.92308 21.6923V15.2308C1.92308 14.8635 2.06896 14.5114 2.32862 14.2517C2.58829 13.992 2.94047 13.8462 3.30769 13.8462H9.76923C10.1365 13.8462 10.4886 13.992 10.7483 14.2517C11.008 14.5114 11.1538 14.8635 11.1538 15.2308V21.6923ZM19.4615 12.9231C18.3661 12.9231 17.2953 13.2479 16.3845 13.8565C15.4737 14.465 14.7639 15.33 14.3447 16.3421C13.9255 17.3541 13.8158 18.4677 14.0295 19.542C14.2432 20.6164 14.7707 21.6033 15.5453 22.3778C16.3198 23.1524 17.3067 23.6799 18.381 23.8936C19.4554 24.1073 20.569 23.9976 21.581 23.5784C22.593 23.1592 23.458 22.4493 24.0666 21.5385C24.6752 20.6277 25 19.5569 25 18.4615C24.9984 16.9931 24.4144 15.5853 23.3761 14.547C22.3377 13.5087 20.9299 12.9247 19.4615 12.9231ZM19.4615 23.0769C18.5487 23.0769 17.6564 22.8062 16.8974 22.2991C16.1384 21.7919 15.5468 21.0711 15.1975 20.2278C14.8481 19.3844 14.7567 18.4564 14.9348 17.5611C15.1129 16.6658 15.5525 15.8434 16.198 15.198C16.8434 14.5525 17.6658 14.1129 18.5611 13.9348C19.4564 13.7567 20.3844 13.8481 21.2278 14.1975C22.0711 14.5468 22.7919 15.1384 23.2991 15.8974C23.8062 16.6564 24.0769 17.5487 24.0769 18.4615C24.0756 19.6852 23.5889 20.8584 22.7236 21.7236C21.8584 22.5889 20.6852 23.0756 19.4615 23.0769Z" fill="black" stroke="#131432" stroke-width="0.5"/>
</svg>
