<svg width="32" height="40" viewBox="0 0 32 40" fill="none" xmlns="http://www.w3.org/2000/svg">
    <path d="M27.7136 5.24074H24.0948V3.62184C24.0948 3.09807 23.5235 2.86001 22.9997 2.86001H20.1905C19.5239 0.955392 17.8573 0.00308302 15.9527 0.00308302C14.069 -0.0677318 12.3557 1.08727 11.7149 2.86001H8.95322C8.42945 2.86001 7.90568 3.09807 7.90568 3.62184V5.24074H4.28683C2.14233 5.26361 0.387909 6.95533 0.287109 9.09755V36.3811C0.287109 38.4762 2.19173 39.9999 4.28683 39.9999H27.7136C29.8087 39.9999 31.7133 38.4762 31.7133 36.3811V9.09764C31.6125 6.95533 29.8581 5.26361 27.7136 5.24074ZM9.8102 4.76463H12.4291C12.8862 4.70885 13.2534 4.36107 13.3338 3.90756C13.6158 2.67956 14.6931 1.79806 15.9527 1.76489C17.2006 1.80271 18.2617 2.68694 18.5239 3.90756C18.6093 4.37674 19.0007 4.72899 19.4762 4.76463H22.1903V8.57387H9.8102V4.76463ZM29.8087 36.3812C29.8087 37.4288 28.7612 38.0954 27.7136 38.0954H4.28683C3.23928 38.0954 2.19173 37.4288 2.19173 36.3812V9.09764C2.28888 8.00726 3.19225 7.16541 4.28683 7.14545H7.90558V9.57384C7.95589 10.1074 8.41797 10.5065 8.95313 10.4786H22.9996C23.5446 10.5084 24.0212 10.1147 24.0948 9.57384V7.14536H27.7135C28.808 7.16541 29.7115 8.00717 29.8086 9.09755V36.3812H29.8087Z" fill="white"/>
    <path d="M12.3338 21.2871C11.9766 20.9106 11.3837 20.8894 11.0005 21.2396L7.95312 24.1441L6.66752 22.8108C6.31034 22.4343 5.71739 22.4131 5.33425 22.7632C4.96541 23.1496 4.96541 23.7576 5.33425 24.1441L7.28644 26.1439C7.45541 26.3331 7.69948 26.4377 7.95303 26.4296C8.20421 26.4261 8.44381 26.3234 8.61962 26.1439L12.3336 22.6204C12.7018 22.2826 12.7264 21.7103 12.3886 21.3422C12.3713 21.3229 12.3529 21.3046 12.3338 21.2871Z" fill="white"/>
    <path d="M25.9995 23.3347H15.048C14.522 23.3347 14.0957 23.7611 14.0957 24.287C14.0957 24.813 14.522 25.2393 15.048 25.2393H25.9995C26.5255 25.2393 26.9518 24.813 26.9518 24.287C26.9518 23.7611 26.5255 23.3347 25.9995 23.3347Z" fill="white"/>
    <path d="M12.3338 13.6687C11.9766 13.2922 11.3837 13.271 11.0005 13.6211L7.95312 16.5256L6.66752 15.1924C6.31034 14.8159 5.71739 14.7946 5.33425 15.1448C4.96541 15.5312 4.96541 16.1392 5.33425 16.5256L7.28644 18.5255C7.45541 18.7147 7.69948 18.8193 7.95303 18.8112C8.20421 18.8077 8.44381 18.705 8.61962 18.5255L12.3336 15.002C12.7018 14.6642 12.7264 14.0919 12.3886 13.7238C12.3713 13.7045 12.3529 13.6862 12.3338 13.6687Z" fill="white"/>
    <path d="M25.9995 15.7161H15.048C14.522 15.7161 14.0957 16.1424 14.0957 16.6684C14.0957 17.1943 14.522 17.6207 15.048 17.6207H25.9995C26.5255 17.6207 26.9518 17.1943 26.9518 16.6684C26.9518 16.1424 26.5255 15.7161 25.9995 15.7161Z" fill="white"/>
    <path d="M12.3338 28.9055C11.9766 28.529 11.3837 28.5079 11.0005 28.8579L7.95312 31.7624L6.66752 30.4292C6.31034 30.0527 5.71739 30.0315 5.33425 30.3816C4.96541 30.768 4.96541 31.376 5.33425 31.7624L7.28644 33.7623C7.45541 33.9515 7.69948 34.0561 7.95303 34.048C8.20421 34.0445 8.44381 33.9417 8.61962 33.7623L12.3336 30.2388C12.7018 29.901 12.7264 29.3287 12.3886 28.9605C12.3713 28.9414 12.3529 28.9231 12.3338 28.9055Z" fill="white"/>
    <path d="M25.9995 30.9531H15.048C14.522 30.9531 14.0957 31.3795 14.0957 31.9054C14.0957 32.4314 14.522 32.8577 15.048 32.8577H25.9995C26.5255 32.8577 26.9518 32.4314 26.9518 31.9054C26.9518 31.3795 26.5255 30.9531 25.9995 30.9531Z" fill="white"/>
</svg>
