<svg width="14" height="14" viewBox="0 0 14 14" fill="none" xmlns="http://www.w3.org/2000/svg">
<path d="M9.08231 7L13.7951 2.28732C14.0677 2.01477 14.0677 1.57246 13.7951 1.29946L12.7001 0.204419C12.4275 -0.0681396 11.9852 -0.0681396 11.7122 0.204419L6.99978 4.91753L2.28696 0.204856C2.01439 -0.067702 1.57207 -0.067702 1.29907 0.204856L0.204425 1.29946C-0.0681417 1.57202 -0.0681417 2.01433 0.204425 2.28732L4.91725 7L0.204425 11.7127C-0.0681417 11.9852 -0.0681417 12.4275 0.204425 12.7005L1.2995 13.7956C1.57207 14.0681 2.01439 14.0681 2.2874 13.7956L6.99978 9.08247L11.7126 13.7951C11.9852 14.0677 12.4275 14.0677 12.7005 13.7951L13.7956 12.7001C14.0681 12.4275 14.0681 11.9852 13.7956 11.7122L9.08231 7Z" fill="#C71B05"/>
</svg>
