<svg width="40" height="40" viewBox="0 0 40 40" fill="none" xmlns="http://www.w3.org/2000/svg">
    <g clip-path="url(#clip0_4002_68489)">
        <mask id="path-1-inside-1_4002_68489" fill="white">
            <path d="M21.8745 21.226L20.343 18.5732C20.2578 18.4257 20.1052 18.3376 19.9349 18.3376C19.7646 18.3376 19.612 18.4257 19.5269 18.5732L17.9953 21.226C17.9101 21.3735 17.9101 21.5497 17.9953 21.6972C18.0804 21.8447 18.233 21.9328 18.4033 21.9328H21.4665C21.6368 21.9328 21.7894 21.8447 21.8745 21.6972C21.9597 21.5497 21.9597 21.3735 21.8745 21.226ZM21.6712 21.5798C21.6285 21.6538 21.5519 21.698 21.4665 21.698H18.4033C18.3178 21.698 18.2413 21.6538 18.1986 21.5798C18.1558 21.5058 18.1558 21.4174 18.1986 21.3434L19.7302 18.6906C19.7729 18.6166 19.8494 18.5724 19.9349 18.5724C20.0204 18.5724 20.0969 18.6166 20.1396 18.6906L21.6712 21.3434C21.714 21.4174 21.714 21.5058 21.6712 21.5798Z"/>
        </mask>
        <path d="M21.8745 21.226L20.343 18.5732C20.2578 18.4257 20.1052 18.3376 19.9349 18.3376C19.7646 18.3376 19.612 18.4257 19.5269 18.5732L17.9953 21.226C17.9101 21.3735 17.9101 21.5497 17.9953 21.6972C18.0804 21.8447 18.233 21.9328 18.4033 21.9328H21.4665C21.6368 21.9328 21.7894 21.8447 21.8745 21.6972C21.9597 21.5497 21.9597 21.3735 21.8745 21.226ZM21.6712 21.5798C21.6285 21.6538 21.5519 21.698 21.4665 21.698H18.4033C18.3178 21.698 18.2413 21.6538 18.1986 21.5798C18.1558 21.5058 18.1558 21.4174 18.1986 21.3434L19.7302 18.6906C19.7729 18.6166 19.8494 18.5724 19.9349 18.5724C20.0204 18.5724 20.0969 18.6166 20.1396 18.6906L21.6712 21.3434C21.714 21.4174 21.714 21.5058 21.6712 21.5798Z" fill="white"/>
        <path d="M21.8745 21.226L21.4415 21.476L21.4415 21.476L21.8745 21.226ZM20.343 18.5732L20.776 18.3232L20.776 18.3232L20.343 18.5732ZM19.5269 18.5732L19.0938 18.3232L19.0938 18.3232L19.5269 18.5732ZM17.9953 21.226L17.5623 20.976L17.5623 20.976L17.9953 21.226ZM21.8745 21.6972L22.3075 21.9472L22.3075 21.9472L21.8745 21.6972ZM21.6712 21.5798L22.1042 21.8298L22.1042 21.8298L21.6712 21.5798ZM18.1986 21.3434L17.7656 21.0934L17.7656 21.0934L18.1986 21.3434ZM19.7302 18.6906L20.1632 18.9406L20.1632 18.9406L19.7302 18.6906ZM20.1396 18.6906L19.7066 18.9406L19.7066 18.9406L20.1396 18.6906ZM21.6712 21.3434L22.1043 21.0934L22.1042 21.0934L21.6712 21.3434ZM22.3075 20.976L20.776 18.3232L19.9099 18.8232L21.4415 21.476L22.3075 20.976ZM20.776 18.3232C20.6015 18.021 20.2839 17.8376 19.9349 17.8376V18.8376C19.933 18.8376 19.9274 18.8369 19.9209 18.8331C19.9143 18.8293 19.9109 18.8248 19.9099 18.8232L20.776 18.3232ZM19.9349 17.8376C19.5859 17.8376 19.2683 18.021 19.0938 18.3232L19.9599 18.8232C19.9589 18.8249 19.9555 18.8293 19.9489 18.8331C19.9424 18.8369 19.9368 18.8376 19.9349 18.8376V17.8376ZM19.0938 18.3232L17.5623 20.976L18.4283 21.476L19.9599 18.8232L19.0938 18.3232ZM17.5623 20.976C17.3878 21.2782 17.3878 21.645 17.5623 21.9472L18.4283 21.4472C18.4292 21.4488 18.4314 21.454 18.4314 21.4616C18.4314 21.4692 18.4292 21.4744 18.4283 21.476L17.5623 20.976ZM17.5623 21.9472C17.7368 22.2494 18.0543 22.4328 18.4033 22.4328V21.4328C18.4052 21.4328 18.4108 21.4335 18.4174 21.4373C18.4239 21.4411 18.4274 21.4456 18.4283 21.4472L17.5623 21.9472ZM18.4033 22.4328H21.4665V21.4328H18.4033V22.4328ZM21.4665 22.4328C21.8155 22.4328 22.133 22.2494 22.3075 21.9472L21.4415 21.4471C21.4425 21.4455 21.4459 21.4411 21.4524 21.4373C21.459 21.4335 21.4646 21.4328 21.4665 21.4328V22.4328ZM22.3075 21.9472C22.482 21.645 22.482 21.2782 22.3075 20.976L21.4415 21.476C21.4406 21.4744 21.4384 21.4692 21.4384 21.4616C21.4384 21.454 21.4406 21.4488 21.4415 21.4472L22.3075 21.9472ZM21.2382 21.3298C21.2848 21.2491 21.3733 21.198 21.4665 21.198V22.198C21.7306 22.198 21.9722 22.0585 22.1042 21.8298L21.2382 21.3298ZM21.4665 21.198H18.4033V22.198H21.4665V21.198ZM18.4033 21.198C18.4965 21.198 18.585 21.2491 18.6316 21.3298L17.7656 21.8298C17.8976 22.0585 18.1392 22.198 18.4033 22.198V21.198ZM18.6316 21.3298C18.6782 21.4105 18.6782 21.5127 18.6316 21.5934L17.7656 21.0934C17.6335 21.3221 17.6335 21.6011 17.7656 21.8298L18.6316 21.3298ZM18.6316 21.5934L20.1632 18.9406L19.2972 18.4406L17.7656 21.0934L18.6316 21.5934ZM20.1632 18.9406C20.1166 19.0213 20.0281 19.0724 19.9349 19.0724V18.0724C19.6708 18.0724 19.4292 18.2119 19.2971 18.4406L20.1632 18.9406ZM19.9349 19.0724C19.8418 19.0724 19.7532 19.0213 19.7066 18.9406L20.5727 18.4406C20.4406 18.2119 20.199 18.0724 19.9349 18.0724V19.0724ZM19.7066 18.9406L21.2382 21.5934L22.1042 21.0934L20.5727 18.4406L19.7066 18.9406ZM21.2382 21.5933C21.1916 21.5127 21.1916 21.4105 21.2382 21.3298L22.1042 21.8298C22.2363 21.6011 22.2363 21.3221 22.1043 21.0934L21.2382 21.5933Z" fill="#38414A" mask="url(#path-1-inside-1_4002_68489)"/>
        <mask id="path-3-inside-2_4002_68489" fill="white">
            <path d="M20.0521 19.5093H19.8174V20.6831H20.0521V19.5093Z"/>
        </mask>
        <path d="M20.0521 19.5093H19.8174V20.6831H20.0521V19.5093Z" fill="white"/>
        <path d="M19.8174 19.5093V19.0093H19.3174V19.5093H19.8174ZM20.0521 19.5093H20.5521V19.0093H20.0521V19.5093ZM20.0521 20.6831V21.1831H20.5521V20.6831H20.0521ZM19.8174 20.6831H19.3174V21.1831H19.8174V20.6831ZM19.8174 20.0093H20.0521V19.0093H19.8174V20.0093ZM19.5521 19.5093V20.6831H20.5521V19.5093H19.5521ZM20.0521 20.1831H19.8174V21.1831H20.0521V20.1831ZM20.3174 20.6831V19.5093H19.3174V20.6831H20.3174Z" fill="#38414A" mask="url(#path-3-inside-2_4002_68489)"/>
        <g clip-path="url(#clip1_4002_68489)">
            <path d="M39.0834 10.8891C38.6426 10.4483 20.3206 0.0901578 20.3206 0.0901578C20.1202 -0.0300526 19.8397 -0.0300526 19.6394 0.0901578L1.08692 11.5101C0.886568 11.6304 0.766357 11.8307 0.766357 12.0711V28.7403C0.766357 28.9807 0.886568 29.1811 1.08692 29.3013L19.6394 39.9199H19.6795C19.6795 39.9199 19.7195 39.9199 19.7195 39.9599C19.7997 40 19.8798 40 19.9599 40C20.0401 40 20.1202 40 20.2004 39.9599C20.2404 39.9599 20.2404 39.9599 20.2805 39.9199C20.3206 39.9199 20.3206 39.9199 20.3606 39.8798L38.9131 28.2194C39.1135 28.0992 39.2337 27.8988 39.2337 27.6584V11.3098C39.2337 11.0594 39.1135 10.9191 39.0834 10.8891ZM20 1.41247L37.2302 11.3098L29.2161 16.3186L11.5452 6.58152L20 1.41247ZM19.3589 38.2369L2.08867 28.3396V13.3934L19.3589 23.2908V38.2369ZM20 22.1287L2.52944 12.1112L10.263 7.34285L27.9339 17.0799L20 22.1287ZM37.9114 27.2978L20.6411 38.1968V23.2507L37.9114 12.3917V27.2978Z" fill="white"/>
        </g>
        <path d="M20.0283 21.0742C20.0283 21.126 19.9866 21.1677 19.9348 21.1677C19.8831 21.1677 19.8413 21.126 19.8413 21.0742C19.8413 21.0225 19.8831 20.9807 19.9348 20.9807C19.9866 20.9807 20.0283 21.0225 20.0283 21.0742Z" fill="white" stroke="#38414A" stroke-width="0.5"/>
    </g>
    <defs>
        <clipPath id="clip0_4002_68489">
            <rect width="40" height="40" fill="white"/>
        </clipPath>
        <clipPath id="clip1_4002_68489">
            <rect width="40" height="40" fill="white"/>
        </clipPath>
    </defs>
</svg>
