<svg width="16" height="16" viewBox="0 0 16 16" fill="none" xmlns="http://www.w3.org/2000/svg">
<path d="M10.0823 8L14.7951 3.28732C15.0677 3.01477 15.0677 2.57246 14.7951 2.29946L13.7001 1.20442C13.4275 0.93186 12.9852 0.93186 12.7122 1.20442L7.99978 5.91753L3.28696 1.20486C3.01439 0.932298 2.57207 0.932298 2.29907 1.20486L1.20443 2.29946C0.931858 2.57202 0.931858 3.01433 1.20443 3.28732L5.91725 8L1.20443 12.7127C0.931858 12.9852 0.931858 13.4275 1.20443 13.7005L2.2995 14.7956C2.57207 15.0681 3.01439 15.0681 3.2874 14.7956L7.99978 10.0825L12.7126 14.7951C12.9852 15.0677 13.4275 15.0677 13.7005 14.7951L14.7956 13.7001C15.0681 13.4275 15.0681 12.9852 14.7956 12.7122L10.0823 8Z" fill="#006697"/>
</svg>
