<svg width="24" height="25" viewBox="0 0 24 25" fill="none" xmlns="http://www.w3.org/2000/svg">
<g clip-path="url(#clip0_7809_112491)">
<path d="M17.1381 4.78455H2.57071C1.15095 4.78455 0 5.93549 0 7.35526V21.9226C0 23.3424 1.15095 24.4933 2.57071 24.4933H17.1381C18.5578 24.4933 19.7088 23.3424 19.7088 21.9226V7.35526C19.7088 5.93549 18.5578 4.78455 17.1381 4.78455ZM17.995 21.9227C17.995 22.3959 17.6113 22.7796 17.1381 22.7796H2.57071C2.09744 22.7796 1.71379 22.3959 1.71379 21.9227V7.35526C1.71379 6.88199 2.09744 6.49834 2.57071 6.49834H17.1381C17.6113 6.49834 17.995 6.88199 17.995 7.35526V21.9227Z" fill="#131432"/>
<path d="M21.4208 1.5H5.99649C4.57673 1.5 3.42578 2.65095 3.42578 4.07071C3.42578 4.54398 3.80943 4.92763 4.2827 4.92763C4.75597 4.92763 5.13957 4.54398 5.13957 4.07071C5.13957 3.59744 5.52322 3.21379 5.99649 3.21379H21.4208C21.894 3.21379 22.2777 3.59744 22.2777 4.07071V19.495C22.2777 19.9683 21.894 20.3519 21.4208 20.3519C20.9475 20.3519 20.5638 20.7355 20.5638 21.2088C20.5638 21.6821 20.9475 22.0657 21.4208 22.0657C22.8405 22.0657 23.9915 20.9148 23.9915 19.495V4.07071C23.9915 2.65095 22.8405 1.5 21.4208 1.5Z" fill="#131432"/>
</g>
<defs>
<clipPath id="clip0_7809_112491">
<rect width="24" height="24" fill="white" transform="translate(0 0.5)"/>
</clipPath>
</defs>
</svg>
