<svg width="53" height="40" viewBox="0 0 53 40" fill="none" xmlns="http://www.w3.org/2000/svg">
<g clip-path="url(#clip0_1865_20527)">
<path fill-rule="evenodd" clip-rule="evenodd" d="M2.12477 1.23051C1.63176 1.23051 1.23086 1.63056 1.23086 2.12218L1.23106 37.8779C1.23106 38.3697 1.63166 38.7696 2.1245 38.7696H50.5662C51.0592 38.7696 51.4608 38.3688 51.4617 37.877L51.4618 2.122C51.4618 1.63049 51.061 1.2305 50.5682 1.2305L2.12483 1.23043L2.12477 1.23051ZM50.5661 39.9724H2.12477C0.967341 39.9724 0.0253906 39.0328 0.0253906 37.8781L0.0255934 2.1221C0.0255934 0.967321 0.967166 0.0278995 2.1245 0.0278995L50.5684 0.027832C51.7254 0.027832 52.6671 0.967416 52.6671 2.1222L52.6672 37.878C52.6653 39.0327 51.7233 39.9724 50.5661 39.9724L50.5661 39.9724Z" fill="white"/>
<path fill-rule="evenodd" clip-rule="evenodd" d="M15.1727 8.083C11.8723 8.083 9.18691 10.7621 9.18691 14.0551C9.18732 17.3479 11.872 20.0269 15.1724 20.0269C18.4732 20.0269 21.1579 17.348 21.1579 14.0551C21.1582 10.7621 18.4728 8.08311 15.1727 8.083H15.1727ZM15.1727 21.2295C11.2079 21.2295 7.98145 18.0111 7.98145 14.055C7.98185 10.0988 11.2076 6.88037 15.1724 6.88037C19.1385 6.88027 22.3633 10.0988 22.3633 14.055C22.3636 18.011 19.1383 21.2296 15.1727 21.2295H15.1727Z" fill="white"/>
<path fill-rule="evenodd" clip-rule="evenodd" d="M15.1725 5.31936C10.3441 5.31936 6.41685 9.23829 6.41685 14.0553C6.41685 18.8721 10.344 22.7911 15.1722 22.7911C20.0005 22.791 23.9284 18.8721 23.9284 14.0553C23.9286 9.23823 20.0003 5.31936 15.1724 5.31936H15.1725ZM15.1725 23.9936C9.67963 23.9936 5.21143 19.5354 5.21143 14.0553C5.21143 8.5751 9.67953 4.1167 15.1722 4.1167C20.6649 4.11667 25.134 8.57513 25.134 14.0553C25.1341 19.5353 20.6648 23.9937 15.1725 23.9936Z" fill="white"/>
<path fill-rule="evenodd" clip-rule="evenodd" d="M21.7596 14.6565H15.1724C14.8395 14.6565 14.5693 14.3872 14.5693 14.0551L14.5697 7.48284C14.5697 7.15085 14.8393 6.88159 15.1721 6.88159C15.5049 6.88149 15.7748 7.15085 15.7748 7.48294L15.7751 13.4538H21.7596C22.0921 13.4538 22.362 13.723 22.362 14.0551C22.3624 14.3871 22.0919 14.6565 21.7596 14.6565L21.7596 14.6565Z" fill="white"/>
<path fill-rule="evenodd" clip-rule="evenodd" d="M10.5137 19.3035C10.3588 19.3035 10.205 19.2448 10.0867 19.1273C9.85259 18.8924 9.85228 18.5117 10.0877 18.2768L14.7465 13.6296C14.9819 13.3948 15.3638 13.3949 15.5993 13.6299C15.8338 13.8646 15.8336 14.2455 15.5981 14.4804L10.9399 19.1274C10.8226 19.2447 10.6675 19.3035 10.5137 19.3035L10.5137 19.3035Z" fill="white"/>
<path fill-rule="evenodd" clip-rule="evenodd" d="M27.792 35.885C27.4591 35.885 27.189 35.6157 27.189 35.2834L27.1893 30.9881H25.1697V35.2833C25.1697 35.6156 24.8994 35.885 24.5666 35.885C24.234 35.885 23.9639 35.6157 23.9639 35.2834L23.9642 30.6971C23.9642 30.1944 24.3741 29.7855 24.8774 29.7855L27.4812 29.7854C27.9846 29.7854 28.3944 30.1944 28.3944 30.6971L28.3948 35.2833C28.3948 35.6156 28.1244 35.885 27.792 35.885H27.792Z" fill="white"/>
<path fill-rule="evenodd" clip-rule="evenodd" d="M33.611 35.885C33.2786 35.885 33.0083 35.6157 33.0083 35.2834V27.736H30.9891V35.2833C30.9891 35.6156 30.7187 35.885 30.3861 35.885C30.0535 35.885 29.7832 35.6157 29.7832 35.2834L29.7837 27.445C29.7837 26.9424 30.1934 26.5335 30.6967 26.5335L33.3002 26.5334C33.8036 26.5334 34.2138 26.9424 34.2138 27.445V35.2833C34.2138 35.6156 33.9438 35.885 33.611 35.885Z" fill="white"/>
<path fill-rule="evenodd" clip-rule="evenodd" d="M39.429 35.885C39.0961 35.885 38.8261 35.6157 38.8261 35.2834L38.8263 29.3448H36.8066V35.2834C36.8066 35.6156 36.5366 35.885 36.2037 35.885C35.8715 35.885 35.6011 35.6157 35.6011 35.2834L35.6012 29.0537C35.6012 28.5511 36.0113 28.1422 36.5146 28.1422L39.1182 28.1421C39.6217 28.1421 40.0316 28.5511 40.0316 29.0538L40.0317 35.2834C40.0317 35.6156 39.7616 35.885 39.429 35.885H39.429Z" fill="white"/>
<path fill-rule="evenodd" clip-rule="evenodd" d="M45.2484 35.8849C44.9155 35.8849 44.6454 35.6156 44.6454 35.2833L44.6457 26.0926H42.626V35.2832C42.626 35.6154 42.3569 35.8848 42.0241 35.8848C41.6905 35.8848 41.4214 35.6155 41.4214 35.2832L41.4215 25.8014C41.4215 25.2989 41.8305 24.89 42.335 24.89L44.9377 24.8899C45.442 24.8899 45.8509 25.2989 45.8509 25.8016L45.8511 35.2832C45.8511 35.6154 45.5819 35.8848 45.2484 35.8848L45.2484 35.8849Z" fill="white"/>
<path fill-rule="evenodd" clip-rule="evenodd" d="M46.8778 35.885H22.9371C22.6042 35.885 22.334 35.6157 22.334 35.2834C22.3344 34.9512 22.604 34.6822 22.9367 34.6822L46.8778 34.6821C47.2103 34.6821 47.4803 34.9513 47.4803 35.2834C47.4806 35.6156 47.2103 35.885 46.8778 35.885H46.8778Z" fill="white"/>
<path fill-rule="evenodd" clip-rule="evenodd" d="M5.81244 31.6526C5.65425 31.6526 5.49826 31.589 5.3863 31.4762C5.27472 31.3645 5.20947 31.21 5.20947 31.0513C5.20971 31.0126 5.21367 30.9729 5.22202 30.9343C5.2295 30.8957 5.24086 30.8581 5.25656 30.8216C5.27144 30.7849 5.29007 30.7506 5.31203 30.7182C5.33404 30.6848 5.35911 30.6545 5.3863 30.6263C5.49836 30.5146 5.65425 30.45 5.81221 30.45C5.97162 30.4499 6.12612 30.5146 6.23916 30.6263C6.26639 30.6545 6.29148 30.6848 6.31344 30.7182C6.33562 30.7506 6.35426 30.785 6.36891 30.8216C6.38457 30.8581 6.39613 30.8957 6.40341 30.9343C6.41189 30.9729 6.41494 31.0127 6.41494 31.0513C6.41518 31.0909 6.41179 31.1306 6.40341 31.1692C6.39637 31.2078 6.38457 31.2455 6.36891 31.282C6.35443 31.3175 6.33542 31.353 6.31344 31.3854C6.29182 31.4177 6.26639 31.449 6.23916 31.4762C6.12656 31.5889 5.97128 31.6527 5.81244 31.6526Z" fill="white"/>
<path fill-rule="evenodd" clip-rule="evenodd" d="M16.9346 31.6528H8.26515C7.93222 31.6528 7.66211 31.3836 7.66211 31.0515C7.66241 30.7193 7.93209 30.4502 8.26484 30.4502H16.9346C17.2675 30.4502 17.5371 30.7193 17.5371 31.0515C17.5373 31.3835 17.2671 31.6528 16.9346 31.6528H16.9346Z" fill="white"/>
<path fill-rule="evenodd" clip-rule="evenodd" d="M5.81244 35.8851C5.77385 35.8851 5.7337 35.881 5.69497 35.8725C5.65658 35.8653 5.6186 35.8538 5.582 35.8391C5.54547 35.8234 5.51084 35.8047 5.47844 35.7838C5.44515 35.7619 5.41458 35.7369 5.3863 35.7086C5.35945 35.6814 5.33404 35.6502 5.31203 35.6178C5.29024 35.5844 5.27123 35.55 5.25656 35.5134C5.2413 35.4768 5.22939 35.4393 5.22202 35.4007C5.21397 35.362 5.20947 35.3224 5.20947 35.2837C5.20971 35.244 5.21367 35.2044 5.22202 35.1658C5.2295 35.1271 5.24086 35.0896 5.25656 35.053C5.27144 35.0175 5.29007 34.982 5.31203 34.9497C5.33404 34.9162 5.35911 34.886 5.3863 34.8578C5.41458 34.8306 5.44492 34.8056 5.47844 34.7837C5.51108 34.7617 5.54541 34.743 5.582 34.7283C5.61891 34.7136 5.65628 34.7012 5.69497 34.6939C5.77243 34.6782 5.853 34.6782 5.93042 34.6939C5.96925 34.7012 6.00679 34.7137 6.04342 34.7283C6.07944 34.7429 6.11465 34.7617 6.14709 34.7837C6.18068 34.8055 6.21088 34.8306 6.23916 34.8578C6.26638 34.8859 6.29148 34.9163 6.31343 34.9497C6.33562 34.982 6.35426 35.0175 6.3689 35.053C6.38456 35.0895 6.39613 35.1271 6.4034 35.1658C6.41189 35.2043 6.41494 35.2441 6.41494 35.2837C6.41517 35.3224 6.41179 35.362 6.4034 35.4007C6.39637 35.4393 6.38456 35.4769 6.3689 35.5134C6.35443 35.5499 6.33542 35.5844 6.31343 35.6178C6.29182 35.6502 6.26638 35.6815 6.23916 35.7086C6.21129 35.7368 6.18051 35.7619 6.14709 35.7838C6.11479 35.8047 6.07904 35.8235 6.04342 35.8391C6.00693 35.8538 5.96915 35.8653 5.93042 35.8725C5.89203 35.8809 5.85195 35.8851 5.81244 35.8851Z" fill="white"/>
<path fill-rule="evenodd" clip-rule="evenodd" d="M16.9346 35.885H8.26515C7.93222 35.885 7.66211 35.6157 7.66211 35.2834C7.66241 34.9512 7.93209 34.6822 8.26484 34.6822L16.9346 34.6821C17.2675 34.6821 17.5371 34.9513 17.5371 35.2834C17.5373 35.6156 17.2671 35.885 16.9346 35.885H16.9346Z" fill="white"/>
<path fill-rule="evenodd" clip-rule="evenodd" d="M35.7575 6.19228C35.718 6.19228 35.6779 6.18918 35.6392 6.18078C35.6007 6.17349 35.5628 6.16198 35.5262 6.14636C35.491 6.13168 35.4551 6.11291 35.4226 6.09101C35.3893 6.06908 35.3587 6.04404 35.3306 6.01687C35.2188 5.90403 35.1548 5.74964 35.1548 5.59093C35.1548 5.55226 35.1579 5.51264 35.1663 5.474C35.1737 5.4353 35.1851 5.39781 35.2008 5.36123C35.2155 5.32468 35.2342 5.29026 35.2562 5.2579C35.2786 5.22445 35.3033 5.19422 35.3306 5.16601C35.3592 5.13779 35.3891 5.11276 35.4226 5.09085C35.4552 5.0699 35.4906 5.05117 35.5262 5.03554C35.5631 5.0208 35.6005 5.00939 35.6392 5.0021C35.8352 4.96242 36.0431 5.02613 36.1834 5.16601C36.2105 5.19415 36.2357 5.22449 36.2576 5.2579C36.2798 5.29026 36.2984 5.32471 36.313 5.36123C36.3292 5.3977 36.3403 5.43536 36.3476 5.474C36.3561 5.51258 36.3603 5.55229 36.3603 5.59093C36.3603 5.63048 36.356 5.6703 36.3476 5.70891C36.3405 5.74748 36.3288 5.78511 36.313 5.82165C36.2986 5.85813 36.2796 5.89262 36.2576 5.92502C36.236 5.95843 36.2105 5.9887 36.1834 6.01687C36.1554 6.0439 36.1247 6.06911 36.0912 6.09101C36.0589 6.11288 36.0243 6.13171 35.9877 6.14636C35.951 6.16198 35.9133 6.17349 35.8747 6.18078C35.8362 6.18911 35.7962 6.19228 35.7575 6.19228V6.19228Z" fill="white"/>
<path fill-rule="evenodd" clip-rule="evenodd" d="M46.8788 6.19269H38.2094C37.8765 6.19269 37.6064 5.9235 37.6064 5.59144C37.6067 5.25932 37.8764 4.99009 38.2092 4.99009L46.8788 4.98999C47.2127 4.98999 47.4813 5.25932 47.4813 5.59144C47.4816 5.92347 47.2125 6.19276 46.8788 6.19269H46.8788Z" fill="white"/>
<path fill-rule="evenodd" clip-rule="evenodd" d="M35.7575 10.4246C35.718 10.4246 35.6779 10.4205 35.6392 10.4121C35.6007 10.4047 35.5628 10.3933 35.5262 10.3787C35.491 10.363 35.4551 10.3443 35.4226 10.3234C35.3893 10.3014 35.3587 10.2764 35.3306 10.2482C35.3036 10.2211 35.2782 10.1898 35.2562 10.1574C35.2344 10.1239 35.2154 10.0895 35.2008 10.053C35.1854 10.0164 35.1736 9.97886 35.1663 9.94025C35.1581 9.90158 35.1548 9.86193 35.1548 9.82329C35.1548 9.66455 35.2186 9.5101 35.3306 9.3984C35.3592 9.37009 35.3891 9.34515 35.4226 9.32321C35.4552 9.30128 35.4906 9.28252 35.5262 9.2679C35.5631 9.25322 35.6005 9.24182 35.6392 9.23345C35.7171 9.21776 35.7972 9.21776 35.8747 9.23345C35.9134 9.24172 35.951 9.25329 35.9877 9.2679C36.0246 9.28248 36.0589 9.30131 36.0912 9.32321C36.1248 9.34508 36.1551 9.37022 36.1834 9.3984C36.2105 9.42553 36.2357 9.45583 36.2576 9.48924C36.2798 9.5215 36.2984 9.55707 36.313 9.59257C36.3292 9.62908 36.3403 9.66671 36.3476 9.70535C36.3561 9.74396 36.3603 9.78364 36.3603 9.82329C36.3603 9.86186 36.356 9.90162 36.3476 9.94025C36.3405 9.97883 36.3288 10.0165 36.313 10.053C36.2986 10.0895 36.2796 10.124 36.2576 10.1574C36.236 10.1897 36.2105 10.2211 36.1834 10.2482C36.0716 10.3598 35.9154 10.4246 35.7575 10.4246V10.4246Z" fill="white"/>
<path fill-rule="evenodd" clip-rule="evenodd" d="M46.8788 10.4244H38.2094C37.8765 10.4244 37.6064 10.1552 37.6064 9.82313C37.6067 9.49101 37.8764 9.22178 38.2092 9.22178L46.8788 9.22168C47.2127 9.22168 47.4813 9.49107 47.4813 9.82313C47.4816 10.1552 47.2125 10.4245 46.8788 10.4244H46.8788Z" fill="white"/>
<path fill-rule="evenodd" clip-rule="evenodd" d="M35.7575 14.6562C35.718 14.6562 35.6779 14.6531 35.6392 14.6447C35.6007 14.6374 35.5628 14.6259 35.5262 14.6103C35.491 14.5956 35.4551 14.5769 35.4226 14.5549C35.3893 14.533 35.3587 14.508 35.3306 14.4798C35.2188 14.3681 35.1548 14.2136 35.1548 14.0549C35.1548 13.8972 35.2186 13.7417 35.3306 13.6299C35.3592 13.6027 35.3891 13.5767 35.4226 13.5548C35.4552 13.5338 35.4906 13.5151 35.5262 13.4995C35.5631 13.4848 35.6005 13.4733 35.6392 13.465C35.8352 13.4263 36.0431 13.4901 36.1834 13.6299C36.2105 13.658 36.2357 13.6884 36.2576 13.7218C36.2798 13.7541 36.2984 13.7887 36.313 13.8252C36.3292 13.8616 36.3403 13.8993 36.3476 13.9379C36.3561 13.9765 36.3603 14.0162 36.3603 14.0549C36.3603 14.0945 36.356 14.1342 36.3476 14.1728C36.3405 14.2114 36.3288 14.2491 36.313 14.2856C36.2986 14.3211 36.2796 14.3566 36.2576 14.3889C36.236 14.4213 36.2105 14.4526 36.1834 14.4797C36.0716 14.5925 35.9154 14.6562 35.7575 14.6562V14.6562Z" fill="white"/>
<path fill-rule="evenodd" clip-rule="evenodd" d="M46.8788 14.6566H38.2094C37.8765 14.6566 37.6064 14.3873 37.6064 14.0552C37.6067 13.723 37.8764 13.4539 38.2092 13.4539H46.8788C47.2127 13.4539 47.4813 13.7231 47.4813 14.0552C47.4816 14.3872 47.2125 14.6566 46.8788 14.6566H46.8788Z" fill="white"/>
<path fill-rule="evenodd" clip-rule="evenodd" d="M26.1796 27.736C26.0261 27.736 25.8708 27.6774 25.7536 27.5599C25.5185 27.3251 25.5181 26.9444 25.7536 26.7095L31.51 20.9657C31.7078 20.7685 32.0153 20.7328 32.2539 20.8794L37.7615 24.2772L43.2454 19.6293C43.4997 19.4142 43.8795 19.4455 44.0951 19.6984C44.311 19.9514 44.2804 20.3311 44.026 20.5461L38.207 25.4772C38.0082 25.6459 37.7224 25.6674 37.4996 25.5303L32.0261 22.1527L26.6057 27.5599C26.4885 27.6774 26.3332 27.7361 26.1796 27.736V27.736Z" fill="white"/>
</g>
<defs>
<clipPath id="clip0_1865_20527">
<rect width="52.6923" height="40" fill="white"/>
</clipPath>
</defs>
</svg>
