<svg width="16" height="17" viewBox="0 0 16 17" fill="none" xmlns="http://www.w3.org/2000/svg">
<g clip-path="url(#clip0_774_3605)">
<path d="M10.207 6.29688C10 6.29688 9.83228 6.46462 9.83228 6.67158V13.7536C9.83228 13.9604 10 14.1283 10.207 14.1283C10.4139 14.1283 10.5817 13.9604 10.5817 13.7536V6.67158C10.5817 6.46462 10.4139 6.29688 10.207 6.29688Z" fill="black"/>
<path d="M5.78547 6.29688C5.57851 6.29688 5.41077 6.46462 5.41077 6.67158V13.7536C5.41077 13.9604 5.57851 14.1283 5.78547 14.1283C5.99244 14.1283 6.16018 13.9604 6.16018 13.7536V6.67158C6.16018 6.46462 5.99244 6.29688 5.78547 6.29688Z" fill="black"/>
<path d="M2.56301 5.26335V14.4953C2.56301 15.041 2.76309 15.5534 3.11262 15.9211C3.46054 16.2898 3.94473 16.4991 4.45147 16.5H11.541C12.0479 16.4991 12.5321 16.2898 12.8799 15.9211C13.2294 15.5534 13.4295 15.041 13.4295 14.4953V5.26335C14.1243 5.07893 14.5745 4.40768 14.4816 3.69471C14.3885 2.98189 13.7812 2.44867 13.0622 2.44852H11.1438V1.98014C11.146 1.58626 10.9902 1.20804 10.7114 0.92979C10.4326 0.651688 10.0538 0.496829 9.65988 0.500049H6.33261C5.93873 0.496829 5.55992 0.651688 5.28109 0.92979C5.00225 1.20804 4.84652 1.58626 4.84871 1.98014V2.44852H2.93025C2.21128 2.44867 1.60399 2.98189 1.5109 3.69471C1.41796 4.40768 1.86819 5.07893 2.56301 5.26335ZM11.541 15.7506H4.45147C3.81081 15.7506 3.31242 15.2002 3.31242 14.4953V5.29629H12.6801V14.4953C12.6801 15.2002 12.1817 15.7506 11.541 15.7506ZM5.59812 1.98014C5.59564 1.78503 5.67233 1.59724 5.8108 1.4595C5.94912 1.32177 6.13735 1.2461 6.33261 1.24946H9.65988C9.85514 1.2461 10.0434 1.32177 10.1817 1.4595C10.3202 1.59709 10.3969 1.78503 10.3944 1.98014V2.44852H5.59812V1.98014ZM2.93025 3.19793H13.0622C13.4348 3.19793 13.7367 3.49989 13.7367 3.8724C13.7367 4.24492 13.4348 4.54688 13.0622 4.54688H2.93025C2.55774 4.54688 2.25578 4.24492 2.25578 3.8724C2.25578 3.49989 2.55774 3.19793 2.93025 3.19793Z" fill="black"/>
<path d="M7.99617 6.29688C7.7892 6.29688 7.62146 6.46462 7.62146 6.67158V13.7536C7.62146 13.9604 7.7892 14.1283 7.99617 14.1283C8.20313 14.1283 8.37087 13.9604 8.37087 13.7536V6.67158C8.37087 6.46462 8.20313 6.29688 7.99617 6.29688Z" fill="black"/>
</g>
<defs>
<clipPath id="clip0_774_3605">
<rect width="16" height="16" fill="white" transform="translate(0 0.5)"/>
</clipPath>
</defs>
</svg>
