<svg width="30" height="30" viewBox="0 0 30 30" fill="none" xmlns="http://www.w3.org/2000/svg">
<path d="M29.2235 7.55249L15.2235 0.552489C15.1541 0.51781 15.0776 0.499756 15 0.499756C14.9224 0.499756 14.8459 0.51781 14.7765 0.552489L0.776507 7.55249C0.693391 7.59402 0.623492 7.65789 0.574652 7.73694C0.525812 7.81598 0.499964 7.90707 0.500007 7.99999V22C0.499498 22.0933 0.525126 22.1849 0.573992 22.2645C0.622858 22.344 0.69301 22.4083 0.776507 22.45L14.7765 29.45C14.8459 29.4847 14.9224 29.5027 15 29.5027C15.0776 29.5027 15.1541 29.4847 15.2235 29.45L29.2235 22.45C29.307 22.4083 29.3772 22.344 29.426 22.2645C29.4749 22.1849 29.5005 22.0933 29.5 22V7.99999C29.5001 7.90707 29.4742 7.81598 29.4254 7.73694C29.3765 7.65789 29.3066 7.59402 29.2235 7.55249ZM15 14.441L11.0915 12.4865L23.5845 5.84999L27.8845 7.99999L15 14.441ZM7.09151 10.4865L19.5845 3.84999L22.4845 5.29999L9.99301 11.9375L7.09151 10.4865ZM6.50001 11.309L9.50001 12.809V16.793L8.35351 15.6465C8.25976 15.5527 8.13261 15.5 8.00001 15.5H6.50001V11.309ZM15 1.55899L18.486 3.29999L5.99301 9.93749L2.11801 7.99999L15 1.55899ZM1.50001 8.80899L5.50001 10.809V16C5.50001 16.1326 5.55269 16.2598 5.64645 16.3535C5.74022 16.4473 5.8674 16.5 6.00001 16.5H7.79301L9.64651 18.3535C9.71643 18.4234 9.80552 18.471 9.90249 18.4903C9.99947 18.5096 10.1 18.4997 10.1913 18.4618C10.2827 18.424 10.3608 18.3599 10.4157 18.2777C10.4707 18.1955 10.5 18.0989 10.5 18V13.309L14.5 15.309V28.191L1.50001 21.691V8.80899ZM15.5 28.191V15.309L28.5 8.80899V21.691L15.5 28.191Z" fill="black"/>
</svg>
