<svg width="32" height="32" viewBox="0 0 32 32" fill="none" xmlns="http://www.w3.org/2000/svg">
<path d="M26.6668 0C23.7261 0 21.3335 2.39256 21.3335 5.33331C21.3335 7.88419 25.1128 13.047 25.9983 14.2221C25.9981 14.6016 25.9983 14.9743 25.9891 15.3164C25.9794 15.6842 26.2697 15.9909 26.6382 16.0006C26.6441 16.0006 26.6499 16.0006 26.6564 16.0006C27.0158 16.0006 27.3127 15.7135 27.3224 15.3516C27.3316 15.0006 27.3314 14.6174 27.3316 14.2271C28.2112 13.0601 32.0001 7.88719 32.0001 5.33331C32.0001 2.39256 29.6076 0 26.6668 0ZM26.6668 12.8841C25.2013 10.8679 22.6668 7.03062 22.6668 5.33331C22.6668 3.12756 24.4611 1.33331 26.6668 1.33331C28.8726 1.33331 30.6668 3.12756 30.6668 5.33331C30.6668 7.03062 28.1323 10.8678 26.6668 12.8841Z" fill="black"/>
<path d="M26.6668 4C25.9318 4 25.3335 4.59831 25.3335 5.33331C25.3335 6.06831 25.9318 6.66663 26.6668 6.66663C27.4018 6.66663 28.0001 6.06838 28.0001 5.33331C28.0001 4.59831 27.4018 4 26.6668 4Z" fill="black"/>
<path d="M8 14.6667C5.79425 14.6667 4 16.461 4 18.6667C4 20.8725 5.79425 22.6667 8 22.6667C10.2057 22.6667 12 20.8725 12 18.6667C12 16.461 10.2057 14.6667 8 14.6667ZM8 21.3334C6.52931 21.3334 5.33331 20.1374 5.33331 18.6667C5.33331 17.1959 6.52931 16.0001 8 16.0001C9.47069 16.0001 10.6667 17.196 10.6667 18.6667C10.6667 20.1375 9.47069 21.3334 8 21.3334Z" fill="black"/>
<path d="M18.0983 24.0274C17.7532 23.8933 17.3691 24.0645 17.2357 24.4083C16.9369 25.1804 16.5632 26.0808 16.0592 26.9056C15.8672 27.2201 15.9668 27.6303 16.2806 27.8223C16.3894 27.8888 16.5091 27.92 16.6276 27.92C16.8522 27.92 17.0716 27.8067 17.1973 27.601C17.7559 26.6856 18.1589 25.7169 18.4792 24.8901C18.612 24.5469 18.4414 24.1608 18.0983 24.0274Z" fill="black"/>
<path d="M14.3394 28.8926C13.6714 29.4219 12.9123 29.8204 12.0178 30.1114C11.6675 30.2253 11.4761 30.6016 11.59 30.9519C11.6818 31.2331 11.9429 31.4122 12.2242 31.4122C12.2925 31.4122 12.3622 31.4017 12.4305 31.3796C13.4637 31.0437 14.3843 30.5587 15.1675 29.9382C15.456 29.709 15.5048 29.2897 15.2763 29.0013C15.0458 28.7136 14.6272 28.6622 14.3394 28.8926Z" fill="black"/>
<path d="M20.4063 19.2142C19.306 19.8386 18.6947 20.9225 18.3301 21.6829C18.1706 22.015 18.3105 22.4134 18.6426 22.5723C18.7357 22.6172 18.834 22.638 18.9303 22.638C19.179 22.638 19.4173 22.4987 19.5319 22.2598C19.9948 21.2943 20.4674 20.7129 21.0651 20.373C21.3848 20.1914 21.4974 19.7844 21.3151 19.4641C21.1341 19.1439 20.7285 19.0313 20.4063 19.2142Z" fill="black"/>
<path d="M26.419 17.5638C26.1163 17.3588 25.7003 17.4375 25.4932 17.7422C25.2738 18.0665 24.8246 18.5124 23.4658 18.6342C23.0993 18.6673 22.8285 18.9909 22.8616 19.3581C22.8929 19.7045 23.1839 19.9648 23.5251 19.9648C23.5453 19.9648 23.5655 19.9642 23.5856 19.9622C25.029 19.8327 26.014 19.3509 26.5974 18.4895C26.8038 18.1849 26.7237 17.7702 26.419 17.5638Z" fill="black"/>
<path d="M9.57969 30.6754C11.6832 28.4321 16 23.2714 16 18.6667C16 14.1811 12.4857 10.6667 8 10.6667C3.51431 10.6667 0 14.1811 0 18.6667C0 24.6205 7.23438 31.5267 7.54231 31.8178C7.67056 31.9396 7.83531 32.0001 8 32.0001C8.48569 32.0001 8.94725 31.9832 9.38475 31.95C9.75194 31.922 10.0273 31.6023 9.99931 31.2351C9.97931 30.9723 9.80925 30.7674 9.57969 30.6754ZM8 30.3933C6.42513 28.7866 1.33331 23.2371 1.33331 18.6667C1.33331 14.9284 4.26175 12.0001 8 12.0001C11.7382 12.0001 14.6667 14.9284 14.6667 18.6667C14.6667 23.2371 9.57487 28.7865 8 30.3933Z" fill="black"/>
</svg>
