<svg width="23" height="24" viewBox="0 0 23 24" fill="none" xmlns="http://www.w3.org/2000/svg">
<path d="M3.42808 8.57143C3.42808 8.3441 3.51839 8.12608 3.67913 7.96534C3.83988 7.80459 4.0579 7.71429 4.28523 7.71429H11.1424C11.3697 7.71429 11.5877 7.80459 11.7485 7.96534C11.9092 8.12608 11.9995 8.3441 11.9995 8.57143C11.9995 8.79876 11.9092 9.01677 11.7485 9.17752C11.5877 9.33827 11.3697 9.42857 11.1424 9.42857H4.28523C4.0579 9.42857 3.83988 9.33827 3.67913 9.17752C3.51839 9.01677 3.42808 8.79876 3.42808 8.57143ZM22.2852 4.28571V21.4286C22.2852 22.1106 22.0143 22.7646 21.5321 23.2468C21.0498 23.7291 20.3958 24 19.7138 24H2.57094C1.88895 24 1.2349 23.7291 0.752666 23.2468C0.270429 22.7646 -0.000488281 22.1106 -0.000488281 21.4286V4.28571C-0.000488281 3.60373 0.270429 2.94968 0.752666 2.46744C1.2349 1.9852 1.88895 1.71429 2.57094 1.71429H5.14237C5.14237 1.25963 5.32298 0.823593 5.64447 0.502103C5.96596 0.180612 6.402 0 6.85665 0H15.4281C15.8827 0 16.3188 0.180612 16.6403 0.502103C16.9618 0.823593 17.1424 1.25963 17.1424 1.71429H19.7138C20.3958 1.71429 21.0498 1.9852 21.5321 2.46744C22.0143 2.94968 22.2852 3.60373 22.2852 4.28571ZM6.85665 3.42857H15.4281V2.57143V1.71429H6.85665V3.42857ZM20.5709 4.28571C20.5709 4.05839 20.4806 3.84037 20.3199 3.67962C20.1591 3.51888 19.9411 3.42857 19.7138 3.42857H17.1424C17.1424 3.88323 16.9618 4.31926 16.6403 4.64075C16.3188 4.96225 15.8827 5.14286 15.4281 5.14286H6.85665C6.402 5.14286 5.96596 4.96225 5.64447 4.64075C5.32298 4.31926 5.14237 3.88323 5.14237 3.42857H2.57094C2.34361 3.42857 2.12559 3.51888 1.96485 3.67962C1.8041 3.84037 1.7138 4.05839 1.7138 4.28571V21.4286C1.7138 21.6559 1.8041 21.8739 1.96485 22.0347C2.12559 22.1954 2.34361 22.2857 2.57094 22.2857H19.7138C19.9411 22.2857 20.1591 22.1954 20.3199 22.0347C20.4806 21.8739 20.5709 21.6559 20.5709 21.4286V4.28571ZM16.2852 12H4.28523C4.0579 12 3.83988 12.0903 3.67913 12.2511C3.51839 12.4118 3.42808 12.6298 3.42808 12.8571C3.42808 13.0845 3.51839 13.3025 3.67913 13.4632C3.83988 13.624 4.0579 13.7143 4.28523 13.7143H16.2852C16.5126 13.7143 16.7306 13.624 16.8913 13.4632C17.0521 13.3025 17.1424 13.0845 17.1424 12.8571C17.1424 12.6298 17.0521 12.4118 16.8913 12.2511C16.7306 12.0903 16.5126 12 16.2852 12ZM16.2852 16.2857H4.28523C4.0579 16.2857 3.83988 16.376 3.67913 16.5368C3.51839 16.6975 3.42808 16.9155 3.42808 17.1429C3.42808 17.3702 3.51839 17.5882 3.67913 17.7489C3.83988 17.9097 4.0579 18 4.28523 18H16.2852C16.5126 18 16.7306 17.9097 16.8913 17.7489C17.0521 17.5882 17.1424 17.3702 17.1424 17.1429C17.1424 16.9155 17.0521 16.6975 16.8913 16.5368C16.7306 16.376 16.5126 16.2857 16.2852 16.2857Z" fill="black"/>
</svg>
