<svg width="19" height="24" viewBox="0 0 19 24" fill="none" xmlns="http://www.w3.org/2000/svg">
<path d="M5.14286 12.8571C5.14286 12.9514 5.28 13.7143 6.85714 13.7143C9.56571 13.7143 10.2857 15.4286 10.2857 16.2857C10.2857 17.1429 9.72 18.4714 7.71429 18.7886V19.7143C7.71429 19.9416 7.62398 20.1596 7.46323 20.3204C7.30249 20.4811 7.08447 20.5714 6.85714 20.5714C6.62981 20.5714 6.4118 20.4811 6.25105 20.3204C6.09031 20.1596 6 19.9416 6 19.7143V18.7886C5.5964 18.7473 5.20507 18.626 4.8489 18.4318C4.49274 18.2375 4.17889 17.9742 3.92571 17.6571C3.62172 17.2627 3.44798 16.7834 3.42857 16.2857C3.42857 16.0584 3.51888 15.8404 3.67962 15.6796C3.84037 15.5189 4.05839 15.4286 4.28571 15.4286C4.51304 15.4286 4.73106 15.5189 4.89181 15.6796C5.05255 15.8404 5.14286 16.0584 5.14286 16.2857C5.14286 16.4057 5.28 17.1429 6.85714 17.1429C8.57143 17.1429 8.57143 16.2857 8.57143 16.2857C8.57143 16.2857 8.43429 15.4286 6.85714 15.4286C4.14857 15.4286 3.42857 13.7143 3.42857 12.8571C3.42857 12 3.99429 10.6971 6 10.3886V9.42857C6 9.20124 6.09031 8.98323 6.25105 8.82248C6.4118 8.66173 6.62981 8.57143 6.85714 8.57143C7.08447 8.57143 7.30249 8.66173 7.46323 8.82248C7.62398 8.98323 7.71429 9.20124 7.71429 9.42857V10.3886C9.72 10.6971 10.2857 12.1029 10.2857 12.8571C10.2857 13.0845 10.1954 13.3025 10.0347 13.4632C9.87392 13.624 9.6559 13.7143 9.42857 13.7143C9.20124 13.7143 8.98323 13.624 8.82248 13.4632C8.66173 13.3025 8.57143 13.0845 8.57143 12.8571C8.57143 12.7029 8.41714 12 6.85714 12C5.29714 12 5.14286 12.7457 5.14286 12.8571ZM18.8571 6.85714V21.4286C18.8571 22.1106 18.5862 22.7646 18.104 23.2468C17.6218 23.7291 16.9677 24 16.2857 24H2.57143C1.88944 24 1.23539 23.7291 0.753154 23.2468C0.270918 22.7646 0 22.1106 0 21.4286V2.57143C0 1.88944 0.270918 1.23539 0.753154 0.753154C1.23539 0.270918 1.88944 1.85528e-09 2.57143 1.85528e-09H12.8571C12.9809 -8.14342e-06 13.1033 0.0268041 13.2157 0.0785923C13.3282 0.13038 13.4281 0.205915 13.5086 0.3L18.6514 6.3C18.7842 6.45527 18.8572 6.65285 18.8571 6.85714ZM13.7143 6H16.14L13.7143 3.17143V6ZM17.1429 7.71429H12.8571C12.6302 7.71113 12.4128 7.62234 12.2486 7.46571C12.1691 7.38562 12.1063 7.29064 12.0636 7.18621C12.021 7.08177 11.9993 6.96995 12 6.85714V1.71429H2.57143C2.3441 1.71429 2.12608 1.80459 1.96534 1.96534C1.80459 2.12608 1.71429 2.3441 1.71429 2.57143V21.4286C1.71429 21.6559 1.80459 21.8739 1.96534 22.0347C2.12608 22.1954 2.3441 22.2857 2.57143 22.2857H16.2857C16.513 22.2857 16.7311 22.1954 16.8918 22.0347C17.0526 21.8739 17.1429 21.6559 17.1429 21.4286V7.71429ZM9.42857 3.42857H4.28571C4.05839 3.42857 3.84037 3.51888 3.67962 3.67962C3.51888 3.84037 3.42857 4.05839 3.42857 4.28571C3.42857 4.51304 3.51888 4.73106 3.67962 4.89181C3.84037 5.05255 4.05839 5.14286 4.28571 5.14286H9.42857C9.6559 5.14286 9.87392 5.05255 10.0347 4.89181C10.1954 4.73106 10.2857 4.51304 10.2857 4.28571C10.2857 4.05839 10.1954 3.84037 10.0347 3.67962C9.87392 3.51888 9.6559 3.42857 9.42857 3.42857Z" fill="black"/>
</svg>
