<svg width="32" height="40" viewBox="0 0 32 40" fill="none" xmlns="http://www.w3.org/2000/svg">
<g clip-path="url(#clip0_1865_20515)">
<path fill-rule="evenodd" clip-rule="evenodd" d="M0.69 40H30.73C31.11 40 31.42 39.69 31.42 39.31V9.27C31.42 9.08 31.35 8.91 31.22 8.78L22.64 0.2C22.51 0.07 22.33 0 22.15 0H0.69C0.31 0 0 0.31 0 0.69V39.31C0 39.69 0.31 40 0.69 40ZM22.84 2.36L29.06 8.58H22.84V2.36ZM1.38 1.38H21.45V9.27C21.45 9.65 21.76 9.96 22.14 9.96H30.03V38.62H1.38V1.38Z" fill="white"/>
<path d="M27.0599 32.1099L21.8099 26.8599C23.4199 25.0199 24.3099 22.6999 24.3099 20.2299C24.3099 17.5399 23.2599 15.0099 21.3599 13.0999C19.4599 11.1899 16.9299 10.1499 14.2299 10.1499C11.5299 10.1499 9.0099 11.1999 7.0999 13.0999C5.1899 14.9999 4.1499 17.5299 4.1499 20.2299C4.1499 22.9299 5.1999 25.4499 7.0999 27.3599C8.9999 29.2699 11.5299 30.3099 14.2299 30.3099C16.6999 30.3099 19.0199 29.4199 20.8599 27.8099L26.1099 33.0599C26.2399 33.1899 26.4099 33.2599 26.5899 33.2599C26.7699 33.2599 26.9299 33.1899 27.0699 33.0599C27.3299 32.7999 27.3299 32.3699 27.0699 32.1099H27.0599ZM8.0499 26.4099C6.3999 24.7599 5.4899 22.5699 5.4899 20.2299C5.4899 17.8899 6.3999 15.6999 8.0499 14.0499C9.6999 12.3999 11.8899 11.4899 14.2299 11.4899C16.5699 11.4899 18.7599 12.3999 20.4099 14.0499C22.0599 15.6999 22.9699 17.8899 22.9699 20.2299C22.9699 22.5699 22.0599 24.7599 20.4099 26.4099C18.7599 28.0599 16.5699 28.9699 14.2299 28.9699C11.8899 28.9699 9.6999 28.0599 8.0499 26.4099Z" fill="white"/>
<path d="M14.7799 22.57C14.7799 21.48 14.8399 20.14 14.9099 18.84C14.9699 17.55 15.0399 16.22 15.0399 15.16C15.0399 14.57 14.3199 14.55 14.2399 14.55C14.0499 14.55 13.4199 14.59 13.4199 15.16C13.4199 16.23 13.4799 17.56 13.5499 18.84C13.6099 20.14 13.6799 21.48 13.6799 22.57C13.6799 22.82 13.9899 22.87 14.2499 22.87C14.4499 22.87 14.7999 22.77 14.7999 22.57H14.7799Z" fill="white"/>
<path d="M15.1198 25.0101C15.1198 24.5301 14.7098 24.1101 14.2398 24.1101C13.7398 24.1101 13.3398 24.5001 13.3398 25.0101C13.3398 25.5201 13.7398 25.9101 14.2398 25.9101C14.6998 25.9101 15.1198 25.4801 15.1198 25.0101Z" fill="white"/>
</g>
<defs>
<clipPath id="clip0_1865_20515">
<rect width="31.42" height="40" fill="white"/>
</clipPath>
</defs>
</svg>
