<svg width="4" height="16" viewBox="0 0 4 16" fill="none" xmlns="http://www.w3.org/2000/svg">
<path fill-rule="evenodd" clip-rule="evenodd" d="M3.59997 14.4C3.59997 15.2837 2.88363 16 1.99998 16C1.11633 16 0.399987 15.2837 0.399987 14.4C0.399987 13.5164 1.11633 12.8 1.99998 12.8C2.88363 12.8 3.59997 13.5164 3.59997 14.4ZM3.59998 8.00003C3.59998 8.88367 2.88363 9.60002 1.99998 9.60002C1.11633 9.60002 0.399987 8.88367 0.399987 8.00003C0.399987 7.11638 1.11633 6.40003 1.99998 6.40003C2.88363 6.40003 3.59998 7.11638 3.59998 8.00003ZM3.59998 1.59999C3.59998 2.48364 2.88363 3.19999 1.99998 3.19999C1.11633 3.19999 0.399987 2.48364 0.399987 1.59999C0.399987 0.716347 1.11633 -1.08563e-07 1.99998 -6.9938e-08C2.88363 -3.13125e-08 3.59998 0.716347 3.59998 1.59999Z" fill="#006697"/>
</svg>
