<svg width="24" height="25" viewBox="0 0 24 25" fill="none" xmlns="http://www.w3.org/2000/svg">
<path d="M11.2049 18.5455C11.3094 18.6499 11.4334 18.7328 11.5699 18.7894C11.7064 18.8459 11.8527 18.875 12.0004 18.875C12.1482 18.875 12.2945 18.8459 12.431 18.7894C12.5675 18.7328 12.6915 18.6499 12.796 18.5455L17.0386 14.3029C17.2495 14.0919 17.3681 13.8057 17.3681 13.5074C17.3681 13.209 17.2495 12.9229 17.0386 12.7119C16.8276 12.5009 16.5414 12.3824 16.2431 12.3824C15.9447 12.3824 15.6586 12.5009 15.4476 12.7119L13.1254 15.034V2.75C13.1254 2.45163 13.0069 2.16548 12.7959 1.9545C12.585 1.74353 12.2988 1.625 12.0004 1.625C11.7021 1.625 11.4159 1.74353 11.2049 1.9545C10.994 2.16548 10.8754 2.45163 10.8754 2.75V15.034L8.5533 12.7119C8.34232 12.5009 8.05617 12.3824 7.75781 12.3824C7.45944 12.3824 7.17329 12.5009 6.96231 12.7119C6.75134 12.9229 6.63281 13.209 6.63281 13.5074C6.63281 13.8057 6.75134 14.0919 6.96231 14.3029L11.2049 18.5455Z" fill="black"/>
<path d="M21.75 11.375C21.4516 11.375 21.1655 11.4935 20.9545 11.7045C20.7435 11.9155 20.625 12.2016 20.625 12.5V21.125H3.375V12.5C3.375 12.2016 3.25647 11.9155 3.0455 11.7045C2.83452 11.4935 2.54837 11.375 2.25 11.375C1.95163 11.375 1.66548 11.4935 1.4545 11.7045C1.24353 11.9155 1.125 12.2016 1.125 12.5V21.5C1.125 21.9973 1.32254 22.4742 1.67417 22.8258C2.02581 23.1775 2.50272 23.375 3 23.375H21C21.4973 23.375 21.9742 23.1775 22.3258 22.8258C22.6775 22.4742 22.875 21.9973 22.875 21.5V12.5C22.875 12.2016 22.7565 11.9155 22.5455 11.7045C22.3345 11.4935 22.0484 11.375 21.75 11.375Z" fill="black"/>
</svg>
