<svg width="24" height="23" viewBox="0 0 24 23" fill="none" xmlns="http://www.w3.org/2000/svg">
<path d="M12.5505 10.8916L12.2692 10.6455C12.2589 10.6363 12.2441 10.6341 12.2315 10.6399C12.219 10.6456 12.2109 10.6581 12.2109 10.6719V10.7774H12.1901C11.9641 10.7774 11.7697 10.946 11.7377 11.1698L11.7191 11.2998C11.7168 11.3162 11.7262 11.3321 11.7419 11.3378C11.7458 11.3392 11.7499 11.3399 11.7539 11.3399C11.7657 11.3399 11.7772 11.3339 11.7837 11.3233L11.8355 11.2404C11.9067 11.1266 12.0293 11.0586 12.1635 11.0586H12.2109V11.1641C12.2109 11.1779 12.219 11.1904 12.2315 11.1961C12.244 11.2018 12.2588 11.1997 12.2692 11.1905L12.5505 10.9444C12.5581 10.9377 12.5625 10.9282 12.5625 10.918C12.5625 10.9078 12.5581 10.8982 12.5505 10.8916ZM12.2812 11.0866V11.0235C12.2812 11.0041 12.2655 10.9883 12.2461 10.9883H12.1635C12.0257 10.9883 11.8983 11.0489 11.8121 11.153C11.85 10.9772 12.008 10.8477 12.1901 10.8477H12.2461C12.2655 10.8477 12.2812 10.8319 12.2812 10.8125V10.7494L12.474 10.918L12.2812 11.0866Z" fill="black"/>
<path d="M1.84615 0C1.62175 2.24149e-05 1.40654 0.0891777 1.24786 0.247858C1.08918 0.406537 1.00002 0.621747 1 0.846154V19.4615C1.00002 19.6859 1.08918 19.9012 1.24786 20.0598C1.40654 20.2185 1.62175 20.3077 1.84615 20.3077H7.40073C7.51286 20.3093 7.62418 20.2886 7.72823 20.2468C7.83228 20.2049 7.92698 20.1429 8.00683 20.0641C8.08668 19.9854 8.15009 19.8916 8.19337 19.7881C8.23664 19.6847 8.25893 19.5737 8.25893 19.4615C8.25893 19.3494 8.23664 19.2384 8.19337 19.1349C8.15009 19.0315 8.08668 18.9377 8.00683 18.8589C7.92698 18.7802 7.83228 18.7181 7.72823 18.6763C7.62418 18.6345 7.51286 18.6138 7.40073 18.6154H2.69231V1.69231H19.6154V6.89813C19.6138 7.01026 19.6345 7.12158 19.6763 7.22563C19.7181 7.32968 19.7802 7.42438 19.8589 7.50423C19.9377 7.58408 20.0315 7.64749 20.1349 7.69077C20.2384 7.73405 20.3494 7.75633 20.4615 7.75633C20.5737 7.75633 20.6847 7.73405 20.7881 7.69077C20.8916 7.64749 20.9854 7.58408 21.0641 7.50423C21.1429 7.42438 21.2049 7.32968 21.2468 7.22563C21.2886 7.12158 21.3093 7.01026 21.3077 6.89813V0.846154C21.3077 0.621747 21.2185 0.406537 21.0598 0.247858C20.9012 0.0891777 20.6859 2.24149e-05 20.4615 0H1.84615Z" fill="black"/>
<path d="M18.5504 8.93912C18.3306 8.94263 18.1208 9.03154 17.9653 9.18702L10.1863 16.966C10.0277 17.1247 9.9385 17.3399 9.93848 17.5643V21.1538C9.9385 21.3782 10.0277 21.5934 10.1863 21.7521C10.345 21.9108 10.5602 22 10.7846 22H14.3758C14.6002 21.9999 14.8154 21.9108 14.974 21.7521L22.7514 13.9747C22.8302 13.8961 22.8927 13.8027 22.9353 13.6999C22.978 13.5971 22.9999 13.4869 22.9999 13.3756C22.9999 13.2644 22.978 13.1541 22.9353 13.0513C22.8927 12.9485 22.8302 12.8552 22.7514 12.7766L19.1618 9.18702C19.0817 9.10686 18.9863 9.04361 18.8812 9.00103C18.7762 8.95845 18.6637 8.9374 18.5504 8.93912V8.93912ZM18.5639 10.9818L20.9569 13.3748L14.0241 20.3077H11.6311V17.9146L18.5639 10.9818Z" fill="black"/>
<path d="M8.62696 5.92307H17.065C18.2092 5.93923 18.2092 4.21457 17.065 4.23077H8.62696C8.14998 4.224 7.76176 4.61312 7.76921 5.08496C7.77767 5.55681 8.1603 5.92946 8.62696 5.92307V5.92307Z" fill="black"/>
<path d="M8.62696 11H13.2573C14.4016 11.0162 14.4016 9.29154 13.2573 9.30773H8.62696C8.14998 9.30096 7.76176 9.69008 7.76921 10.1619C7.77767 10.6338 8.1603 11.0064 8.62696 11V11Z" fill="black"/>
<path d="M6.07695 5.07691C6.07695 5.18803 6.05507 5.29806 6.01255 5.40072C5.97003 5.50339 5.9077 5.59667 5.82913 5.67524C5.75055 5.75382 5.65727 5.81615 5.55461 5.85867C5.45195 5.90119 5.34192 5.92308 5.2308 5.92308C5.11968 5.92308 5.00965 5.90119 4.90698 5.85867C4.80432 5.81615 4.71104 5.75382 4.63247 5.67524C4.5539 5.59667 4.49157 5.50339 4.44905 5.40072C4.40653 5.29806 4.38464 5.18803 4.38464 5.07691C4.38465 4.8525 4.4738 4.63728 4.63248 4.4786C4.79117 4.31992 5.00639 4.23077 5.2308 4.23077C5.45521 4.23077 5.67043 4.31992 5.82911 4.4786C5.9878 4.63728 6.07695 4.8525 6.07695 5.07691V5.07691Z" fill="black"/>
<path d="M6.07695 10.1538C6.07695 10.265 6.05507 10.375 6.01255 10.4777C5.97003 10.5803 5.9077 10.6736 5.82913 10.7522C5.75055 10.8308 5.65727 10.8931 5.55461 10.9356C5.45195 10.9781 5.34192 11 5.2308 11C5.11968 11 5.00965 10.9781 4.90698 10.9356C4.80432 10.8931 4.71104 10.8308 4.63247 10.7522C4.5539 10.6736 4.49157 10.5803 4.44905 10.4777C4.40653 10.375 4.38464 10.265 4.38464 10.1538C4.38465 9.92944 4.4738 9.71422 4.63248 9.55554C4.79117 9.39685 5.00639 9.30771 5.2308 9.30771C5.45521 9.30771 5.67043 9.39685 5.82911 9.55554C5.9878 9.71422 6.07695 9.92944 6.07695 10.1538V10.1538Z" fill="black"/>
</svg>
