<svg width="425" height="290" viewBox="0 0 425 290" fill="none" xmlns="http://www.w3.org/2000/svg">
<g clip-path="url(#clip0_2113_29508)">
<path d="M212.503 290C329.865 290 425.005 276.069 425.005 258.883C425.005 241.698 329.865 227.767 212.503 227.767C95.1406 227.767 0 241.698 0 258.883C0 276.069 95.1406 290 212.503 290Z" fill="#EAEAEA"/>
<path fill-rule="evenodd" clip-rule="evenodd" d="M306.902 157.161H118.098V244.704C118.098 248.88 120.83 252.565 124.823 253.766C143.795 259.463 197.141 275.5 209.786 279.303C211.557 279.831 213.443 279.831 215.214 279.303C227.859 275.5 281.205 259.463 300.177 253.766C304.17 252.565 306.902 248.88 306.902 244.704V157.161Z" fill="url(#paint0_linear_2113_29508)"/>
<path fill-rule="evenodd" clip-rule="evenodd" d="M306.903 157.161H212.498C212.498 157.161 211.584 279.697 212.498 279.697C213.412 279.697 214.327 279.562 215.21 279.298C227.854 275.495 281.201 259.458 300.173 253.76C304.165 252.56 306.898 248.875 306.898 244.699V157.156L306.903 157.161Z" fill="url(#paint1_linear_2113_29508)"/>
<path fill-rule="evenodd" clip-rule="evenodd" d="M212.503 187.848L118.098 157.161C118.098 157.161 101.544 181.752 94.1418 192.743C93.3102 193.98 93.1088 195.522 93.5891 196.93C94.0747 198.332 95.1852 199.429 96.5953 199.89C114.529 205.727 167.612 223.006 181.532 227.534C183.531 228.186 185.721 227.436 186.899 225.692C193.226 216.336 212.498 187.853 212.498 187.853L212.503 187.848Z" fill="url(#paint2_linear_2113_29508)"/>
<path fill-rule="evenodd" clip-rule="evenodd" d="M306.903 157.161L212.498 187.848C212.498 187.848 231.764 216.33 238.097 225.687C239.275 227.431 241.465 228.186 243.464 227.529C257.389 223.001 310.472 205.717 328.401 199.885C329.811 199.419 330.921 198.327 331.407 196.925C331.887 195.522 331.686 193.975 330.854 192.738C323.452 181.747 306.898 157.156 306.898 157.156L306.903 157.161Z" fill="url(#paint3_linear_2113_29508)"/>
<path fill-rule="evenodd" clip-rule="evenodd" d="M189.652 92.7027C188.474 90.9691 186.284 90.2136 184.29 90.8656C170.375 95.3936 117.277 112.678 99.3482 118.515C97.9381 118.976 96.8224 120.067 96.3421 121.47C95.8617 122.872 96.0631 124.425 96.8947 125.656C103.713 135.784 118.103 157.161 118.103 157.161L212.508 126.37C212.508 126.37 195.556 101.386 189.657 92.7027H189.652Z" fill="url(#paint4_linear_2113_29508)"/>
<path fill-rule="evenodd" clip-rule="evenodd" d="M328.111 125.656C328.943 124.425 329.144 122.877 328.664 121.47C328.183 120.062 327.068 118.97 325.658 118.515C307.724 112.673 254.631 95.3885 240.715 90.8656C238.716 90.2136 236.532 90.9639 235.354 92.7027C229.46 101.391 212.503 126.37 212.503 126.37L306.908 157.161C306.908 157.161 321.298 135.784 328.116 125.656H328.111Z" fill="url(#paint5_linear_2113_29508)"/>
<path fill-rule="evenodd" clip-rule="evenodd" d="M306.902 157.161L212.498 126.37L118.093 157.161L212.498 187.848L306.902 157.161Z" fill="url(#paint6_linear_2113_29508)"/>
<path fill-rule="evenodd" clip-rule="evenodd" d="M212.503 187.848V126.37L118.098 157.161L212.503 187.848Z" fill="url(#paint7_linear_2113_29508)"/>
<path fill-rule="evenodd" clip-rule="evenodd" d="M193.536 139.954C191.573 138.666 189.802 137.295 188.231 135.851C186.315 134.086 183.33 134.216 181.563 136.141C179.802 138.06 179.931 141.052 181.852 142.816C183.784 144.596 185.959 146.289 188.376 147.872C190.556 149.3 193.484 148.685 194.91 146.501C196.336 144.317 195.721 141.383 193.541 139.954H193.536Z" fill="#006697"/>
<path fill-rule="evenodd" clip-rule="evenodd" d="M178.826 125.429C177.426 123.524 176.238 121.61 175.267 119.695C174.089 117.366 171.243 116.44 168.919 117.625C166.594 118.81 165.67 121.656 166.853 123.985C168.051 126.339 169.508 128.699 171.228 131.038C172.772 133.139 175.727 133.589 177.829 132.042C179.926 130.49 180.375 127.53 178.831 125.429H178.826Z" fill="#006697"/>
<path fill-rule="evenodd" clip-rule="evenodd" d="M171.925 106.126C171.971 104.222 172.25 102.369 172.761 100.6C173.479 98.0949 172.028 95.4661 169.523 94.752C167.023 94.0326 164.399 95.4868 163.686 97.9966C162.963 100.532 162.56 103.177 162.488 105.893C162.426 108.502 164.487 110.675 167.09 110.737C169.693 110.804 171.863 108.74 171.93 106.131L171.925 106.126Z" fill="#006697"/>
<path fill-rule="evenodd" clip-rule="evenodd" d="M179.187 90.3326C180.401 89.2097 181.759 88.1643 183.247 87.2277C185.452 85.8305 186.114 82.9118 184.724 80.7073C183.329 78.4977 180.416 77.8353 178.211 79.2273C176.212 80.49 174.404 81.8872 172.772 83.3983C170.861 85.1733 170.747 88.1643 172.519 90.079C174.29 91.9937 177.276 92.1076 179.187 90.3326Z" fill="#006697"/>
<path fill-rule="evenodd" clip-rule="evenodd" d="M196.739 82.177C199.115 81.7371 201.63 81.4525 204.28 81.3439C206.883 81.23 208.908 79.0203 208.799 76.4174C208.691 73.8144 206.485 71.7807 203.882 71.8894C200.767 72.0239 197.813 72.3551 195.024 72.8726C192.467 73.3487 190.768 75.8171 191.243 78.3838C191.713 80.9506 194.177 82.6479 196.744 82.177H196.739Z" fill="#006697"/>
<path fill-rule="evenodd" clip-rule="evenodd" d="M221.34 81.8976C225.364 81.9441 229.114 81.8044 232.595 81.4939C235.193 81.2611 237.115 78.9634 236.882 76.3604C236.65 73.7627 234.357 71.8376 231.759 72.0705C228.572 72.3499 225.142 72.4845 221.449 72.4327C218.846 72.4068 216.707 74.4975 216.676 77.1056C216.645 79.7138 218.732 81.8613 221.34 81.8924V81.8976Z" fill="#006697"/>
<path fill-rule="evenodd" clip-rule="evenodd" d="M248.112 78.596C252.786 77.1625 256.732 75.3306 260.033 73.2245C262.228 71.8221 262.879 68.8983 261.479 66.6938C260.085 64.4945 257.161 63.8424 254.961 65.2448C252.306 66.937 249.119 68.3963 245.348 69.5503C242.859 70.3162 241.454 72.9605 242.218 75.4548C242.977 77.9543 245.622 79.3567 248.107 78.596H248.112Z" fill="#006697"/>
<path fill-rule="evenodd" clip-rule="evenodd" d="M272.135 59.9871C274.361 55.3711 275.218 50.4912 275.002 45.7873C274.878 43.1791 272.667 41.1609 270.064 41.2851C267.46 41.4093 265.446 43.619 265.57 46.2271C265.72 49.4252 265.146 52.7371 263.633 55.8731C262.502 58.2225 263.483 61.0583 265.828 62.1916C268.173 63.3249 271.004 62.3365 272.135 59.9871Z" fill="#006697"/>
<path fill-rule="evenodd" clip-rule="evenodd" d="M269.129 29.0621C265.689 24.4047 261.019 21.16 255.931 20.1147C253.38 19.5921 250.88 21.2377 250.358 23.7992C249.836 26.3556 251.484 28.8603 254.036 29.3829C256.97 29.9832 259.557 32.0014 261.546 34.6923C263.101 36.7882 266.06 37.228 268.147 35.6756C270.244 34.1179 270.683 31.1527 269.129 29.0621Z" fill="#006697"/>
<path fill-rule="evenodd" clip-rule="evenodd" d="M207.467 21.0359C212.575 -7.93826 256.836 -6.06496 231.067 21.0359H207.467Z" fill="url(#paint8_linear_2113_29508)"/>
<path fill-rule="evenodd" clip-rule="evenodd" d="M207.467 28.3738C212.575 57.3428 256.836 55.4747 231.067 28.3738H207.467Z" fill="url(#paint9_linear_2113_29508)"/>
<path fill-rule="evenodd" clip-rule="evenodd" d="M207.038 29.4812H238.644C241.248 29.4812 243.365 27.3647 243.365 24.7514C243.365 22.1381 241.253 20.0216 238.644 20.0216H207.038C204.435 20.0216 202.317 22.1381 202.317 24.7514C202.317 27.3647 204.435 29.4812 207.038 29.4812Z" fill="#006697"/>
</g>
<defs>
<linearGradient id="paint0_linear_2113_29508" x1="118.63" y1="217.923" x2="307.057" y2="217.923" gradientUnits="userSpaceOnUse">
<stop stop-color="#CADCF0"/>
<stop offset="1" stop-color="#A4BBDB"/>
</linearGradient>
<linearGradient id="paint1_linear_2113_29508" x1="211.937" y1="217.923" x2="307.387" y2="217.923" gradientUnits="userSpaceOnUse">
<stop stop-color="#A4BBDB"/>
<stop offset="1" stop-color="#8DA3BE"/>
</linearGradient>
<linearGradient id="paint2_linear_2113_29508" x1="-5297.29" y1="-5323.64" x2="-5250.07" y2="-5231.09" gradientUnits="userSpaceOnUse">
<stop stop-color="#E9F3FC"/>
<stop offset="1" stop-color="#CADCF0"/>
</linearGradient>
<linearGradient id="paint3_linear_2113_29508" x1="-2183.88" y1="27.2605" x2="-2071.77" y2="73.1531" gradientUnits="userSpaceOnUse">
<stop stop-color="#E9F3FC"/>
<stop offset="1" stop-color="#CADCF0"/>
</linearGradient>
<linearGradient id="paint4_linear_2113_29508" x1="2286.02" y1="-560.292" x2="2308.73" y2="-635.061" gradientUnits="userSpaceOnUse">
<stop stop-color="#E9F3FC"/>
<stop offset="1" stop-color="#CADCF0"/>
</linearGradient>
<linearGradient id="paint5_linear_2113_29508" x1="-6256.61" y1="-5879.89" x2="-6215.23" y2="-5783.2" gradientUnits="userSpaceOnUse">
<stop stop-color="#E9F3FC"/>
<stop offset="1" stop-color="#CADCF0"/>
</linearGradient>
<linearGradient id="paint6_linear_2113_29508" x1="-10907.7" y1="156.876" x2="-10742.4" y2="156.876" gradientUnits="userSpaceOnUse">
<stop stop-color="#CADCF0"/>
<stop offset="1" stop-color="#A4BBDB"/>
</linearGradient>
<linearGradient id="paint7_linear_2113_29508" x1="165.337" y1="126.448" x2="167.377" y2="202.681" gradientUnits="userSpaceOnUse">
<stop stop-color="#A4BBDB"/>
<stop offset="1" stop-color="#8DA3BE"/>
</linearGradient>
<linearGradient id="paint8_linear_2113_29508" x1="207.538" y1="10.926" x2="239.076" y2="10.926" gradientUnits="userSpaceOnUse">
<stop stop-color="#E9F3FC"/>
<stop offset="1" stop-color="#CADCF0"/>
</linearGradient>
<linearGradient id="paint9_linear_2113_29508" x1="207.538" y1="38.4051" x2="239.076" y2="38.4051" gradientUnits="userSpaceOnUse">
<stop stop-color="#E9F3FC"/>
<stop offset="1" stop-color="#CADCF0"/>
</linearGradient>
<clipPath id="clip0_2113_29508">
<rect width="425" height="290" fill="white"/>
</clipPath>
</defs>
</svg>
