<svg width="60" height="68" viewBox="0 0 60 68" fill="none" xmlns="http://www.w3.org/2000/svg">
<path d="M56.0802 26.087C56.0802 40.4935 44.3997 52.1739 29.9932 52.1739C15.5867 52.1739 3.90625 40.4935 3.90625 26.087C3.90625 11.6804 15.5867 0 29.9932 0C44.3997 0 56.0802 11.6804 56.0802 26.087Z" fill="#006697"/>
<g style="mix-blend-mode:multiply">
<path d="M30.0598 47.0871C18.5163 47.0871 9.125 37.6958 9.125 26.1523C9.125 14.6088 18.5163 5.21753 30.0598 5.21753C41.6033 5.21753 50.9946 14.6088 50.9946 26.1523C50.9946 37.6958 41.6033 47.0871 30.0598 47.0871Z" fill="#939598"/>
</g>
<path d="M29.9946 46.9567C18.4902 46.9567 9.125 37.5914 9.125 26.0871C9.125 14.5827 18.4837 5.21753 29.9946 5.21753C41.5054 5.21753 50.8641 14.5827 50.8641 26.0871C50.8641 37.5914 41.5054 46.9567 29.9946 46.9567Z" fill="url(#paint0_linear_8458_67724)"/>
<path d="M49.67 33.0457C45.8352 43.8913 33.8809 49.5979 23.0352 45.7566C17.4852 43.7935 13.2787 39.7044 11.0156 34.7283C13.3569 39.3457 17.4069 43.1087 22.6569 44.9674C33.5026 48.8022 45.4569 43.1022 49.2917 32.25C51.1504 26.9935 50.7722 21.4827 48.6526 16.7544C51.0983 21.6457 51.633 27.4827 49.67 33.0392V33.0457Z" fill="white"/>
<path d="M39.0356 33.2023H20.5269C20.253 33.2023 20.0312 32.9805 20.0312 32.7066V18.1631C20.0312 17.8892 20.253 17.6675 20.5269 17.6675C20.8008 17.6675 21.0225 17.8892 21.0225 18.1631V32.211H39.0356C39.3095 32.211 39.5312 32.4327 39.5312 32.7066C39.5312 32.9805 39.3095 33.2023 39.0356 33.2023Z" fill="#67666B"/>
<path d="M25.8183 33.2024H22.2378C21.9639 33.2024 21.7422 32.9806 21.7422 32.7067V27.1958C21.7422 26.9219 21.9639 26.7002 22.2378 26.7002H25.8183C26.0922 26.7002 26.3139 26.9219 26.3139 27.1958V32.7067C26.3139 32.9806 26.0922 33.2024 25.8183 33.2024ZM22.7335 32.2111H25.3226V27.6915H22.7335V32.2111Z" fill="#67666B"/>
<path d="M31.5761 33.2024H27.9957C27.7217 33.2024 27.5 32.9807 27.5 32.7068V24.222C27.5 23.9481 27.7217 23.7263 27.9957 23.7263H31.5761C31.85 23.7263 32.0717 23.9481 32.0717 24.222V32.7068C32.0717 32.9807 31.85 33.2024 31.5761 33.2024ZM28.4913 32.2111H31.0804V24.7176H28.4913V32.2111Z" fill="#67666B"/>
<path d="M37.3339 33.2022H33.7535C33.4796 33.2022 33.2578 32.9805 33.2578 32.7066V19.8196C33.2578 19.5457 33.4796 19.324 33.7535 19.324H37.3339C37.6078 19.324 37.8296 19.5457 37.8296 19.8196V32.7066C37.8296 32.9805 37.6078 33.2022 37.3339 33.2022ZM34.2491 32.2109H36.8382V20.3153H34.2491V32.2109Z" fill="#67666B"/>
<path d="M30 56.087C13.4543 56.087 0 42.6261 0 26.087C0 25.7283 0.293478 25.4348 0.652174 25.4348C1.01087 25.4348 1.30435 25.7283 1.30435 26.087C1.30435 41.9087 14.1783 54.7826 30 54.7826C45.8217 54.7826 58.6957 41.9087 58.6957 26.087C58.6957 25.7283 58.9891 25.4348 59.3478 25.4348C59.7065 25.4348 60 25.7283 60 26.087C60 42.6326 46.5391 56.087 30 56.087Z" fill="#006697"/>
<path d="M30.0027 67.1739C32.524 67.1739 34.5679 65.13 34.5679 62.6087C34.5679 60.0874 32.524 58.0435 30.0027 58.0435C27.4814 58.0435 25.4375 60.0874 25.4375 62.6087C25.4375 65.13 27.4814 67.1739 30.0027 67.1739Z" fill="#006697"/>
<g style="mix-blend-mode:multiply">
<path d="M30.3077 66.2349C32.1087 66.2349 33.5686 64.7749 33.5686 62.974C33.5686 61.1731 32.1087 59.7131 30.3077 59.7131C28.5068 59.7131 27.0469 61.1731 27.0469 62.974C27.0469 64.7749 28.5068 66.2349 30.3077 66.2349Z" fill="#D1D3D4"/>
</g>
<path d="M30.0031 65.8696C31.804 65.8696 33.2639 64.4097 33.2639 62.6088C33.2639 60.8078 31.804 59.3479 30.0031 59.3479C28.2021 59.3479 26.7422 60.8078 26.7422 62.6088C26.7422 64.4097 28.2021 65.8696 30.0031 65.8696Z" fill="url(#paint1_linear_8458_67724)"/>
<defs>
<linearGradient id="paint0_linear_8458_67724" x1="4.29239" y1="24.5675" x2="48.6598" y2="27.1958" gradientUnits="userSpaceOnUse">
<stop stop-color="white"/>
<stop offset="0.32" stop-color="#FBFBFB"/>
<stop offset="0.64" stop-color="#EEEEEE"/>
<stop offset="0.96" stop-color="#DBDBDB"/>
<stop offset="0.99" stop-color="#D8D8D8"/>
</linearGradient>
<linearGradient id="paint1_linear_8458_67724" x1="26.7422" y1="62.6088" x2="33.2639" y2="62.6088" gradientUnits="userSpaceOnUse">
<stop stop-color="white"/>
<stop offset="0.32" stop-color="#FBFBFB"/>
<stop offset="0.64" stop-color="#EEEEEE"/>
<stop offset="0.96" stop-color="#DBDBDB"/>
<stop offset="0.99" stop-color="#D8D8D8"/>
</linearGradient>
</defs>
</svg>
