<?xml version="1.0" encoding="utf-8"?>
<!-- Generator: Adobe Illustrator 27.5.0, SVG Export Plug-In . SVG Version: 6.00 Build 0)  -->
<svg version="1.1" id="Layer_1" xmlns="http://www.w3.org/2000/svg" xmlns:xlink="http://www.w3.org/1999/xlink" x="0px" y="0px"
	 viewBox="0 0 20 20" style="enable-background:new 0 0 20 20;" xml:space="preserve">
<style type="text/css">
	.st0{fill:#C71B05;}
</style>
<g>
	<path class="st0" d="M17,3.1c-3.8-3.8-10.1-3.8-13.9,0c-3.8,3.8-3.8,10.1,0,13.9c3.8,3.8,10.1,3.8,13.9,0
		C20.8,13.2,20.8,6.9,17,3.1z M10,16.8c-0.6,0-1-0.5-1-1c0-0.6,0.5-1,1-1s1,0.5,1,1C11,16.4,10.6,16.8,10,16.8z M11.6,5l-1.1,7.5
		c0,0.3-0.2,0.4-0.4,0.4s-0.4-0.2-0.4-0.4L8.4,5C8.3,4.1,8.9,3.2,9.7,3.2h0.6C11.1,3.2,11.7,4.1,11.6,5z"/>
</g>
</svg>
