<svg width="16" height="16" viewBox="0 0 16 16" fill="none" xmlns="http://www.w3.org/2000/svg">
<g clip-path="url(#clip0_774_3619)">
<path d="M12.5 9.03137C12.224 9.03137 12 9.25537 12 9.53137V14.0314H1V3.03137H5.5C5.776 3.03137 6 2.80737 6 2.53137C6 2.25537 5.776 2.03137 5.5 2.03137H0.5C0.224 2.03137 0 2.25537 0 2.53137V14.5314C0 14.8074 0.224 15.0314 0.5 15.0314H12.5C12.776 15.0314 13 14.8074 13 14.5314V9.53137C13 9.25537 12.776 9.03137 12.5 9.03137Z" fill="black"/>
<path d="M15.829 3.65545L11.829 0.155449C11.682 0.0254486 11.472 -0.00555142 11.293 0.0764486C11.115 0.157449 11 0.335449 11 0.531449V2.03145H10.704C7.48997 2.03145 4.72397 4.43045 4.26897 7.61245L4.00497 9.46145C3.97197 9.69445 4.10597 9.92045 4.32897 10.0014C4.38497 10.0214 4.44297 10.0314 4.49997 10.0314C4.66797 10.0314 4.83097 9.94645 4.92397 9.79645L5.66097 8.61645C6.67297 6.99845 8.41697 6.03145 10.326 6.03145H11V7.53145C11 7.72745 11.115 7.90545 11.293 7.98645C11.47 8.06745 11.681 8.03745 11.829 7.90745L15.829 4.40745C15.938 4.31245 16 4.17645 16 4.03145C16 3.88645 15.938 3.75045 15.829 3.65545ZM12 6.42945V5.53145C12 5.25545 11.776 5.03145 11.5 5.03145H10.326C8.36597 5.03145 6.55297 5.89345 5.32697 7.37445C5.86697 4.87345 8.11397 3.03145 10.704 3.03145H11.5C11.776 3.03145 12 2.80745 12 2.53145V1.63345L14.741 4.03145L12 6.42945Z" fill="black"/>
</g>
<defs>
<clipPath id="clip0_774_3619">
<rect width="16" height="15.0625" fill="white"/>
</clipPath>
</defs>
</svg>
