<svg width="24" height="23" viewBox="0 0 24 23" fill="none" xmlns="http://www.w3.org/2000/svg">
<g clip-path="url(#clip0_6056_102260)">
<path d="M18.75 13.7502C18.336 13.7502 18 14.0862 18 14.5002V21.2502H1.5V4.75024H8.25C8.664 4.75024 9 4.41424 9 4.00024C9 3.58624 8.664 3.25024 8.25 3.25024H0.75C0.336 3.25024 0 3.58624 0 4.00024V22.0002C0 22.4142 0.336 22.7502 0.75 22.7502H18.75C19.164 22.7502 19.5 22.4142 19.5 22.0002V14.5002C19.5 14.0862 19.164 13.7502 18.75 13.7502Z" fill="black"/>
<path d="M23.7435 5.68624L17.7435 0.436237C17.523 0.241237 17.208 0.194737 16.9395 0.317737C16.6725 0.439237 16.5 0.706237 16.5 1.00024V3.25024H16.056C11.235 3.25024 7.08595 6.84874 6.40345 11.6217L6.00745 14.3952C5.95795 14.7447 6.15895 15.0837 6.49345 15.2052C6.57745 15.2352 6.66445 15.2502 6.74995 15.2502C7.00195 15.2502 7.24645 15.1227 7.38595 14.8977L8.49145 13.1277C10.0095 10.7007 12.6255 9.25024 15.489 9.25024H16.5V11.5002C16.5 11.7942 16.6725 12.0612 16.9395 12.1827C17.205 12.3042 17.5215 12.2592 17.7435 12.0642L23.7435 6.81424C23.907 6.67174 24 6.46774 24 6.25024C24 6.03274 23.907 5.82874 23.7435 5.68624ZM18 9.84724V8.50024C18 8.08624 17.664 7.75024 17.25 7.75024H15.489C12.549 7.75024 9.82945 9.04324 7.99045 11.2647C8.80045 7.51324 12.171 4.75024 16.056 4.75024H17.25C17.664 4.75024 18 4.41424 18 4.00024V2.65324L22.1115 6.25024L18 9.84724Z" fill="black"/>
</g>
<defs>
<clipPath id="clip0_6056_102260">
<rect width="24" height="22.5938" fill="white" transform="translate(0 0.203125)"/>
</clipPath>
</defs>
</svg>
