<svg width="40" height="40" viewBox="0 0 40 40" fill="none" xmlns="http://www.w3.org/2000/svg">
<path d="M38.33 18H36V13.82C36 12.82 35.18 12 34.18 12H32V10.39L31.67 10.06L26.81 5.2L21.61 0H5.33V7.33H1.82C0.82 7.33 0 8.15 0 9.15V38.27C0 38.65 0.11 39.01 0.35 39.32C0.68 39.75 1.17 39.99 1.71 39.99H31.55C32.32 39.99 33 39.47 33.18 38.78L40 20.09V19.97C40 18.82 39.3 17.99 38.33 17.99V18ZM34.18 13.33C34.45 13.33 34.67 13.55 34.67 13.82V18H32V13.33H34.18ZM22 2.28L29.72 10H22V2.28ZM6.67 1.33H20.67V11.33H30.67V18H8.49C8.39 18 8.3 18 8.21 18.02C7.56 18.13 7.02 18.6 6.86 19.21L6.67 19.72V1.33ZM1.33 9.15C1.33 8.88 1.55 8.66 1.82 8.66H5.33V23.35L1.33 34.27V9.15ZM31.91 38.38C31.87 38.54 31.72 38.66 31.55 38.66H1.71C1.55 38.66 1.45 38.57 1.41 38.51C1.37 38.46 1.3 38.34 1.33 38.24L5.33 27.26L8.1 19.66L8.12 19.61C8.16 19.45 8.31 19.33 8.48 19.33H38.32C38.57 19.33 38.64 19.69 38.65 19.88L31.9 38.39L31.91 38.38Z" fill="white"/>
<path d="M10.67 11.33H17.34C17.71 11.33 18.01 11.03 18.01 10.66C18.01 10.29 17.71 9.98999 17.34 9.98999H10.67C10.3 9.98999 10 10.29 10 10.66C10 11.03 10.3 11.33 10.67 11.33Z" fill="white"/>
<path d="M10.67 6.67008H17.34C17.71 6.67008 18.01 6.37008 18.01 6.00008C18.01 5.63008 17.71 5.33008 17.34 5.33008H10.67C10.3 5.33008 10 5.63008 10 6.00008C10 6.37008 10.3 6.67008 10.67 6.67008Z" fill="white"/>
<path d="M10.67 15.9999H26.67C27.04 15.9999 27.34 15.6999 27.34 15.3299C27.34 14.9599 27.04 14.6599 26.67 14.6599H10.67C10.3 14.6599 10 14.9599 10 15.3299C10 15.6999 10.3 15.9999 10.67 15.9999Z" fill="white"/>
</svg>
