<svg width="20" height="21" viewBox="0 0 20 21" fill="none" xmlns="http://www.w3.org/2000/svg">
<path d="M18.9248 0.725587H1.09382C0.779325 0.724993 0.491008 0.900679 0.347247 1.18047C0.201502 1.46403 0.227082 1.80548 0.413278 2.06445L6.9458 11.2668C6.94799 11.27 6.95036 11.2729 6.95255 11.2761C7.1899 11.5965 7.3182 11.9846 7.31899 12.3836V19.8861C7.3176 20.1084 7.40485 20.3218 7.5615 20.4794C7.71815 20.6371 7.93112 20.7255 8.1532 20.7255C8.26623 20.7255 8.37787 20.7029 8.48217 20.6597L12.1529 19.2599C12.4819 19.1596 12.7002 18.8493 12.7002 18.4755V12.3836C12.7008 11.9848 12.8293 11.5965 13.0665 11.2761C13.0687 11.2729 13.071 11.27 13.0732 11.2668L19.6055 2.06406C19.7917 1.80529 19.8173 1.46403 19.6716 1.18047C19.5278 0.900679 19.2395 0.724993 18.9248 0.725587ZM12.2479 10.6747C11.8831 11.1698 11.6858 11.7685 11.6846 12.3836V18.3521L8.33424 19.6295V12.3836C8.33305 11.7685 8.13575 11.1698 7.7707 10.6747L1.42873 1.74084H18.5901L12.2479 10.6747Z" fill="black"/>
</svg>
