<svg width="12" height="15" viewBox="0 0 12 15" fill="none" xmlns="http://www.w3.org/2000/svg">
<path d="M9.83594 4.8335L11.5359 2.56683C11.61 2.46774 11.6551 2.34999 11.6662 2.22674C11.6772 2.1035 11.6537 1.97962 11.5984 1.86894C11.543 1.75827 11.458 1.66517 11.3528 1.60004C11.2476 1.53492 11.1263 1.50034 11.0026 1.50016H3.0026C3.0026 1.32335 2.93237 1.15378 2.80734 1.02876C2.68232 0.903734 2.51275 0.833496 2.33594 0.833496C2.15913 0.833496 1.98956 0.903734 1.86453 1.02876C1.73951 1.15378 1.66927 1.32335 1.66927 1.50016V12.8335H1.0026C0.825793 12.8335 0.656224 12.9037 0.5312 13.0288C0.406176 13.1538 0.335938 13.3234 0.335938 13.5002C0.335938 13.677 0.406176 13.8465 0.5312 13.9716C0.656224 14.0966 0.825793 14.1668 1.0026 14.1668H3.66927C3.84608 14.1668 4.01565 14.0966 4.14068 13.9716C4.2657 13.8465 4.33594 13.677 4.33594 13.5002C4.33594 13.3234 4.2657 13.1538 4.14068 13.0288C4.01565 12.9037 3.84608 12.8335 3.66927 12.8335H3.0026V8.16683H11.0026C11.1263 8.16666 11.2476 8.13207 11.3528 8.06695C11.458 8.00182 11.543 7.90872 11.5984 7.79805C11.6537 7.68738 11.6772 7.56349 11.6662 7.44025C11.6551 7.317 11.61 7.19926 11.5359 7.10016L9.83594 4.8335Z" fill="#E9523F"/>
</svg>
