<svg width="10" height="10" viewBox="0 0 10 10" fill="none" xmlns="http://www.w3.org/2000/svg">
<path d="M8.75 6.39458V5.03911C8.44727 5.22271 7.89062 5.41021 7.34375 5.48638V6.86138C7.9043 6.80669 8.41406 6.59771 8.75 6.39458ZM8.75 2.34576C8.33594 2.50396 7.83789 2.65435 7.34375 2.74029V4.11919C7.83203 4.04107 8.29297 3.87505 8.75 3.70122V2.34576ZM1.71875 6.57818C2.14258 6.44146 2.64062 6.34576 3.125 6.29497V4.92583C2.65039 4.97271 2.1875 5.07427 1.71875 5.22466V6.57818ZM8.69336 1.01177C7.99219 1.31451 7.25781 1.56255 6.56641 1.56255C5.60742 1.56255 4.74414 0.937552 3.4043 0.937552C2.79297 0.937552 2.26562 1.06451 1.82617 1.23443C1.86914 1.10357 1.88477 0.966849 1.86719 0.83013C1.81836 0.382865 1.44922 0.0313023 1 0.00200543C0.453125 -0.0331508 0 0.39849 0 0.937552C0 1.28521 0.189453 1.58794 0.46875 1.75005V9.68755C0.46875 9.85943 0.609375 10.0001 0.78125 10.0001H1.09375C1.26562 10.0001 1.40625 9.85943 1.40625 9.68755V8.05865C2.14648 7.72076 2.79883 7.50005 3.90234 7.50005C4.86133 7.50005 5.72461 8.12505 7.06445 8.12505C8.20703 8.12505 9.05664 7.68365 9.57422 7.3438C9.83984 7.16997 9.99805 6.87505 9.99805 6.55865V1.8731C10 1.20122 9.31055 0.746146 8.69336 1.01177ZM9.0625 6.56255C8.63672 6.86333 7.875 7.18755 7.06445 7.18755C5.89453 7.18755 5.07227 6.56255 3.90234 6.56255C3.05469 6.56255 2.01953 6.74615 1.40625 7.0313V2.50005C1.83203 2.19927 2.59375 1.87505 3.4043 1.87505C4.57422 1.87505 5.39648 2.50005 6.56641 2.50005C7.41211 2.50005 8.44727 2.16021 9.0625 1.87505V6.56255ZM1.71875 2.66802V4.02349C2.02148 3.8399 2.57812 3.6524 3.125 3.57622V2.20122C2.56445 2.25591 2.05469 2.46294 1.71875 2.66802ZM3.125 3.57622V4.92583C3.7207 4.86724 4.12891 4.90044 4.53125 4.98638V3.67779C3.97461 3.52935 3.58008 3.51372 3.125 3.57622ZM5.9375 5.38677C5.47461 5.26568 5.0293 5.0899 4.53125 4.98638V6.30474C5.03711 6.38872 5.48633 6.55669 5.9375 6.68755V5.38677C6.49414 5.53326 6.88867 5.54888 7.34375 5.48833V4.12115C6.87891 4.19536 6.43555 4.1856 5.9375 4.08013V5.38677ZM5.9375 2.75982C5.43164 2.67583 4.98438 2.50786 4.53125 2.37505V3.67583C4.99609 3.79888 5.43945 3.97271 5.9375 4.07622V2.75982Z" fill="#262626"/>
</svg>
