<svg width="16" height="16" viewBox="0 0 16 16" fill="none" xmlns="http://www.w3.org/2000/svg">
<path fill-rule="evenodd" clip-rule="evenodd" d="M7 0H1H0V0.974138V6.81897H1V0.974138H7V0Z" fill="white"/>
<path fill-rule="evenodd" clip-rule="evenodd" d="M9 15.5862L15 15.5862L16 15.5862L16 14.6121L16 8.76724L15 8.76724L15 14.6121L9 14.6121L9 15.5862Z" fill="white"/>
<path fill-rule="evenodd" clip-rule="evenodd" d="M16 6.81897L16 0.974138L16 0L15 -4.37114e-08L9 -3.0598e-07L9 0.974138L15 0.974138L15 6.81897L16 6.81897Z" fill="white"/>
<path fill-rule="evenodd" clip-rule="evenodd" d="M9.1794e-07 8.76724L1.31135e-07 14.6121L0 15.5862L1 15.5862L7 15.5862L7 14.6121L1 14.6121L1 8.76724L9.1794e-07 8.76724Z" fill="white"/>
</svg>
