<svg width="40" height="40" viewBox="0 0 40 40" fill="none" xmlns="http://www.w3.org/2000/svg">
<g clip-path="url(#clip0_1865_20497)">
<path d="M27.5 15C20.6 15 15 20.6 15 27.5C15 34.4 20.6 40 27.5 40C34.4 40 40 34.4 40 27.5C40 20.6 34.4 15.01 27.5 15ZM27.5 38.81C21.25 38.81 16.19 33.75 16.19 27.5C16.19 21.25 21.25 16.19 27.5 16.19C33.75 16.19 38.81 21.25 38.81 27.5C38.81 33.74 33.74 38.8 27.5 38.81Z" fill="white"/>
<path d="M32.0101 28.96C32.1001 28.67 31.9501 28.36 31.6601 28.25L28.0901 27.06V20.36C28.0901 20.03 27.8201 19.76 27.4901 19.76C27.1601 19.76 26.8901 20.03 26.8901 20.36V27.5C26.8901 27.75 27.0501 27.98 27.2901 28.06L31.2401 29.38C31.2401 29.38 31.3001 29.38 31.3401 29.38C31.3801 29.38 31.4001 29.38 31.4401 29.38C31.7001 29.38 31.9201 29.21 32.0001 28.96H32.0101Z" fill="white"/>
<path d="M13.02 27.9301L0.95 21.4701V8.42006L4.74 10.4501V15.7101C4.74 15.9901 4.95 16.2201 5.21 16.2201H6.91L8.67 18.1001C8.85 18.3001 9.15 18.3001 9.34 18.1001C9.43 18.0101 9.48 17.8801 9.48 17.7401V12.9901L13.27 15.0201V24.7901C13.47 23.7201 13.79 22.7001 14.22 21.7201V15.0101L26.54 8.42006V13.0501C26.85 13.0301 27.17 13.0001 27.49 13.0001V7.60006C27.49 7.41006 27.39 7.23006 27.23 7.15006L13.95 0.0500586C13.82 -0.0199414 13.66 -0.0199414 13.53 0.0500586L0.26 7.15006C0.1 7.23006 0 7.41006 0 7.60006V21.7901C0 21.9801 0.1 22.1601 0.26 22.2501L13.09 29.1101C13.05 28.7201 13.03 28.3301 13.02 27.9401V27.9301ZM8.53 16.5101L7.44 15.3501C7.35 15.2501 7.23 15.2001 7.11 15.2001H5.69V10.9501L8.53 12.4701V16.5101ZM25.95 7.60006L13.74 14.1301L10.04 12.1501L21.88 5.42006L25.95 7.60006ZM20.83 4.86006L8.99 11.5901L6.24 10.1201L18.08 3.39006L20.83 4.86006ZM13.74 1.07006L17.04 2.83006L5.2 9.56006L1.53 7.60006L13.74 1.07006Z" fill="white"/>
</g>
<defs>
<clipPath id="clip0_1865_20497">
<rect width="40" height="40" fill="white"/>
</clipPath>
</defs>
</svg>
