<svg width="24" height="24" viewBox="0 0 24 24" fill="none" xmlns="http://www.w3.org/2000/svg">
<g clip-path="url(#clip0_6418_110669)">
<path d="M7.70039 11.6C9.80039 11.6 11.6004 9.90002 11.6004 7.70002C11.6004 5.50002 9.90039 3.90002 7.70039 3.90002C5.50039 3.90002 3.90039 5.60002 3.90039 7.70002C3.90039 9.80002 5.60039 11.6 7.70039 11.6ZM7.70039 5.20002C9.10039 5.20002 10.3004 6.40002 10.3004 7.80002C10.3004 9.20002 9.10039 10.4 7.70039 10.4C6.30039 10.4 5.10039 9.20002 5.10039 7.80002C5.20039 6.30002 6.30039 5.20002 7.70039 5.20002Z" fill="#006697"/>
<path d="M18 24V18H24V16H18V10H16V16H10V18H16V24H18Z" fill="#006697"/>
<path d="M8 20V19.8C7.9 19.9 7.8 20 7.7 20.2C6.2 18.1 4.3 15.6 3 13.1C1.8 11 1.3 9.3 1.3 7.7C1.3 4.1 4.2 1.3 7.7 1.3C11.3 1.3 14.1 4.2 14.1 7.7C14.1 7.8 14.1 7.9 14.1 8H15.4C15.4 7.9 15.4 7.8 15.4 7.7C15.5 3.5 12 0 7.7 0C3.5 0 0 3.5 0 7.7C0 9.4 0.6 11.4 1.9 13.7C3.5 16.6 5.7 19.4 7.2 21.7C7.3 21.9 7.5 22 7.7 22C7.9 22 8.1 21.9 8.2 21.7C8.6 21.2 9 20.6 9.5 20H8Z" fill="#006697"/>
</g>
<defs>
<clipPath id="clip0_6418_110669">
<rect width="24" height="24" fill="white"/>
</clipPath>
</defs>
</svg>
