<svg width="18" height="20" viewBox="0 0 18 20" fill="none" xmlns="http://www.w3.org/2000/svg">
<path d="M17.4738 1.35625C17.3025 1.24125 17.0837 1.21875 16.8913 1.295C16.8487 1.3125 12.73 2.9425 9.2675 1.31C6.295 -0.0937501 3.02125 0.5625 1.5 1.00625V0.625C1.5 0.28 1.22 0 0.875 0C0.53 0 0.25 0.28 0.25 0.625V19.375C0.25 19.72 0.53 20 0.875 20C1.22 20 1.5 19.72 1.5 19.375V12.3162C2.6075 11.955 5.89 11.0962 8.73375 12.44C10.085 13.0787 11.4987 13.2913 12.7825 13.2913C15.2513 13.2913 17.2362 12.505 17.36 12.455C17.595 12.3587 17.75 12.13 17.75 11.875V1.875C17.75 1.6675 17.6462 1.47375 17.4738 1.35625ZM16.5 11.4325C15.3863 11.7937 12.105 12.6488 9.26625 11.3088C6.295 9.90625 3.02125 10.5625 1.5 11.0063V2.3175C2.6075 1.95625 5.89 1.0975 8.73375 2.44125C11.7025 3.8425 14.9788 3.1875 16.5 2.7425V11.4325Z" fill="#D47A11"/>
</svg>
