<svg width="18" height="24" viewBox="0 0 18 24" fill="none" xmlns="http://www.w3.org/2000/svg">
<path d="M16.1998 9.24844H15.3561V6.87656C15.3561 3.37031 12.5061 0.515625 8.9998 0.515625C5.49355 0.515625 2.64355 3.37031 2.64355 6.87188V9.24375H1.80449C0.974805 9.24375 0.299805 9.91875 0.299805 10.7484V21.9797C0.299805 22.8094 0.974805 23.4844 1.80449 23.4844H16.2045C17.0342 23.4844 17.7092 22.8094 17.7092 21.9797V10.7484C17.7045 9.92344 17.0295 9.24844 16.1998 9.24844V9.24844ZM4.55605 6.87188C4.55605 4.42031 6.54824 2.42812 8.9998 2.42812C11.4514 2.42812 13.4436 4.42031 13.4436 6.87188V9.23906H4.55605V6.87188ZM15.7873 21.5719H2.2123V11.1609H15.792V21.5719H15.7873Z" fill="white"/>
<path d="M9.0002 20.1422C9.52988 20.1422 9.95644 19.7156 9.95644 19.1859V16.7203C9.95644 16.1906 9.52988 15.7641 9.0002 15.7641C8.47051 15.7641 8.04395 16.1906 8.04395 16.7203V19.1859C8.04395 19.7109 8.47051 20.1422 9.0002 20.1422Z" fill="white"/>
</svg>
