<svg width="22" height="24" viewBox="0 0 22 24" fill="none" xmlns="http://www.w3.org/2000/svg">
<path d="M18.2125 0H2.9375C1.31835 0 0 1.31718 0 2.9375V20.5625C0 22.1828 1.31835 23.5 2.9375 23.5H18.2125C19.8316 23.5 21.15 22.1828 21.15 20.5625V2.9375C21.15 1.31718 19.8316 0 18.2125 0ZM19.975 20.5625C19.975 21.5342 19.1842 22.325 18.2125 22.325H2.9375C1.96577 22.325 1.175 21.5342 1.175 20.5625V2.9375C1.175 1.96577 1.96577 1.175 2.9375 1.175H18.2125C19.1842 1.175 19.975 1.96577 19.975 2.9375V20.5625Z" fill="black"/>
<path d="M6.46221 5.875H5.28721C4.96291 5.875 4.69971 6.1382 4.69971 6.4625C4.69971 6.7868 4.96291 7.05 5.28721 7.05H6.46221C6.78651 7.05 7.04971 6.7868 7.04971 6.4625C7.04971 6.1382 6.78651 5.875 6.46221 5.875Z" fill="black"/>
<path d="M15.8631 5.875H8.81309C8.48879 5.875 8.22559 6.1382 8.22559 6.4625C8.22559 6.7868 8.48879 7.05 8.81309 7.05H15.8631C16.1874 7.05 16.4506 6.7868 16.4506 6.4625C16.4506 6.1382 16.1874 5.875 15.8631 5.875Z" fill="black"/>
<path d="M6.46221 10.5747H5.28721C4.96291 10.5747 4.69971 10.8379 4.69971 11.1622C4.69971 11.4865 4.96291 11.7497 5.28721 11.7497H6.46221C6.78651 11.7497 7.04971 11.4865 7.04971 11.1622C7.04971 10.8379 6.78651 10.5747 6.46221 10.5747Z" fill="black"/>
<path d="M15.8631 10.5747H8.81309C8.48879 10.5747 8.22559 10.8379 8.22559 11.1622C8.22559 11.4865 8.48879 11.7497 8.81309 11.7497H15.8631C16.1874 11.7497 16.4506 11.4865 16.4506 11.1622C16.4506 10.8379 16.1874 10.5747 15.8631 10.5747Z" fill="black"/>
<path d="M6.46221 15.2751H5.28721C4.96291 15.2751 4.69971 15.5383 4.69971 15.8626C4.69971 16.1869 4.96291 16.4501 5.28721 16.4501H6.46221C6.78651 16.4501 7.04971 16.1869 7.04971 15.8626C7.04971 15.5383 6.78651 15.2751 6.46221 15.2751Z" fill="black"/>
<path d="M15.8631 15.2751H8.81309C8.48879 15.2751 8.22559 15.5383 8.22559 15.8626C8.22559 16.1869 8.48879 16.4501 8.81309 16.4501H15.8631C16.1874 16.4501 16.4506 16.1869 16.4506 15.8626C16.4506 15.5383 16.1874 15.2751 15.8631 15.2751Z" fill="black"/>
</svg>
