<svg width="147" height="17" viewBox="0 0 147 17" fill="none" xmlns="http://www.w3.org/2000/svg">
<path d="M10.61 16.2187H7.23V10.2765C7.23 8.62042 6.62 7.7924 5.41 7.7924C4.82 7.7924 4.34 8.01645 3.96 8.45482C3.58 8.88344 3.39 9.43869 3.39 10.1109V16.209H0V5.52266H3.39V7.21766H3.43C4.24 5.91232 5.41 5.25964 6.96 5.25964C9.39 5.25964 10.61 6.73059 10.61 9.67249V16.2187Z" fill="white"/>
<path d="M26.4202 1.23657L21.1202 16.2188H17.2002L11.9702 1.23657H15.7002L18.9102 11.6598C19.0802 12.2248 19.1802 12.7217 19.2202 13.1503H19.2802C19.3302 12.6827 19.4402 12.1761 19.6102 11.6111L22.8002 1.23657H26.4202Z" fill="white"/>
<path d="M29.6502 3.82774C29.0802 3.82774 28.6102 3.66214 28.2502 3.33093C27.8902 2.99973 27.7002 2.59059 27.7002 2.11326C27.7002 1.61645 27.8802 1.21705 28.2502 0.90533C28.6202 0.593606 29.0802 0.437744 29.6502 0.437744C30.2302 0.437744 30.7002 0.593606 31.0602 0.90533C31.4202 1.21705 31.6002 1.62619 31.6002 2.11326C31.6002 2.61007 31.4202 3.02895 31.0602 3.35042C30.7002 3.66214 30.2302 3.82774 29.6502 3.82774ZM31.3302 16.2188H27.9402V5.52274H31.3302V16.2188Z" fill="white"/>
<path d="M33.4602 15.9363V13.2574C34.0202 13.5886 34.5702 13.8321 35.1302 13.988C35.6802 14.1439 36.2102 14.2315 36.7002 14.2315C37.3002 14.2315 37.7702 14.1536 38.1202 13.988C38.4702 13.8321 38.6402 13.5886 38.6402 13.2574C38.6402 13.0528 38.5602 12.8775 38.4002 12.7314C38.2402 12.595 38.0402 12.4683 37.7902 12.3612C37.5402 12.254 37.2702 12.1664 36.9802 12.0787C36.6902 11.991 36.4002 11.9033 36.1302 11.7962C35.6902 11.6403 35.3102 11.465 34.9802 11.2799C34.6502 11.0948 34.3702 10.8805 34.1402 10.637C33.9102 10.3934 33.7402 10.1109 33.6302 9.78946C33.5102 9.46799 33.4502 9.08808 33.4502 8.64972C33.4502 8.04575 33.5802 7.5392 33.8502 7.10084C34.1202 6.66248 34.4802 6.31179 34.9202 6.03903C35.3702 5.76627 35.8802 5.5617 36.4502 5.43506C37.0202 5.30842 37.6202 5.24023 38.2502 5.24023C38.7402 5.24023 39.2302 5.2792 39.7302 5.34739C40.2302 5.41558 40.7202 5.52273 41.2102 5.66886V8.2211C40.7802 7.97756 40.3202 7.79248 39.8302 7.67558C39.3402 7.55868 38.8602 7.49049 38.3902 7.49049C38.1702 7.49049 37.9602 7.50998 37.7602 7.54894C37.5602 7.58791 37.3902 7.64636 37.2402 7.71455C37.0902 7.79248 36.9702 7.88015 36.8902 7.99705C36.8002 8.11394 36.7602 8.24058 36.7602 8.3867C36.7602 8.58153 36.8202 8.74713 36.9502 8.88351C37.0802 9.01989 37.2502 9.14653 37.4502 9.24394C37.6602 9.34136 37.8902 9.43877 38.1402 9.5167C38.3902 9.59463 38.6502 9.6823 38.9002 9.76023C39.3502 9.9161 39.7602 10.0817 40.1202 10.257C40.4802 10.4421 40.8002 10.6467 41.0602 10.8902C41.3202 11.1338 41.5202 11.4163 41.6602 11.7475C41.8002 12.0787 41.8702 12.4683 41.8702 12.9164C41.8702 13.5496 41.7302 14.0951 41.4502 14.5433C41.1702 14.9914 40.7902 15.3615 40.3202 15.644C39.8502 15.9265 39.3102 16.1311 38.7002 16.2577C38.0902 16.3844 37.4502 16.4526 36.8002 16.4526C35.6102 16.4818 34.4902 16.2967 33.4602 15.9363Z" fill="white"/>
<path d="M45.5599 3.82774C44.9899 3.82774 44.5199 3.66214 44.1599 3.33093C43.7999 2.99973 43.6099 2.59059 43.6099 2.11326C43.6099 1.61645 43.7899 1.21705 44.1599 0.90533C44.5299 0.593606 44.9899 0.437744 45.5599 0.437744C46.1399 0.437744 46.6099 0.593606 46.9699 0.90533C47.3299 1.21705 47.5099 1.62619 47.5099 2.11326C47.5099 2.61007 47.3299 3.02895 46.9699 3.35042C46.6099 3.66214 46.1399 3.82774 45.5599 3.82774ZM47.2299 16.2188H43.8399V5.52274H47.2299V16.2188Z" fill="white"/>
<path d="M55.3202 16.4817C53.4902 16.4817 52.0502 15.9849 51.0002 14.9815C49.9502 13.9782 49.4302 12.6241 49.4302 10.9096C49.4302 9.13671 49.9702 7.75344 51.0602 6.75982C52.1502 5.75645 53.6202 5.25964 55.4702 5.25964C57.2902 5.25964 58.7202 5.75645 59.7602 6.75982C60.8002 7.76318 61.3202 9.07826 61.3202 10.7246C61.3202 12.4975 60.7902 13.9002 59.7202 14.9328C58.6502 15.9654 57.1702 16.4817 55.3202 16.4817ZM55.4002 7.78266C54.6002 7.78266 53.9802 8.05542 53.5302 8.5912C53.0902 9.12697 52.8702 9.8868 52.8702 10.8707C52.8702 12.9261 53.7202 13.949 55.4202 13.949C57.0402 13.949 57.8502 12.8969 57.8502 10.783C57.8602 8.78602 57.0402 7.78266 55.4002 7.78266Z" fill="white"/>
<path d="M74.1198 16.2187H70.7398V10.2765C70.7398 8.62042 70.1298 7.7924 68.9198 7.7924C68.3298 7.7924 67.8498 8.01645 67.4698 8.45482C67.0898 8.88344 66.8998 9.43869 66.8998 10.1109V16.209H63.5098V5.52266H66.8998V7.21766H66.9398C67.7498 5.91232 68.9198 5.25964 70.4698 5.25964C72.8998 5.25964 74.1198 6.73059 74.1198 9.67249V16.2187Z" fill="white"/>
<path d="M95.8102 15.2153C94.3102 16.0531 92.4402 16.4817 90.2102 16.4817C87.7402 16.4817 85.7902 15.8193 84.3602 14.4847C82.9302 13.1502 82.2202 11.3188 82.2202 8.97111C82.2202 6.6137 83.0002 4.69464 84.5602 3.21395C86.1202 1.73326 88.1902 0.99292 90.7802 0.99292C92.4102 0.99292 93.8502 1.21697 95.0902 1.65533V4.82128C93.9002 4.14913 92.4502 3.81792 90.7402 3.81792C89.3002 3.81792 88.1302 4.27576 87.2302 5.18171C86.3302 6.08766 85.8702 7.30533 85.8702 8.82499C85.8702 10.3641 86.2802 11.5526 87.0902 12.4001C87.9002 13.2476 89.0002 13.6665 90.3802 13.6665C91.2102 13.6665 91.8702 13.5496 92.3502 13.3255V10.4031H89.2702V7.68525H95.8102V15.2153Z" fill="white"/>
<path d="M101.86 16.2188H98.4702V0.379272H101.86V16.2188Z" fill="white"/>
<path d="M109.94 16.4817C108.11 16.4817 106.67 15.9849 105.62 14.9815C104.57 13.9782 104.05 12.6241 104.05 10.9096C104.05 9.13671 104.59 7.75344 105.68 6.75982C106.77 5.75645 108.24 5.25964 110.09 5.25964C111.91 5.25964 113.34 5.75645 114.38 6.75982C115.42 7.76318 115.94 9.07826 115.94 10.7246C115.94 12.4975 115.41 13.9002 114.34 14.9328C113.27 15.9654 111.8 16.4817 109.94 16.4817ZM110.03 7.78266C109.23 7.78266 108.61 8.05542 108.16 8.5912C107.72 9.12697 107.5 9.8868 107.5 10.8707C107.5 12.9261 108.35 13.949 110.05 13.949C111.67 13.949 112.48 12.8969 112.48 10.783C112.49 8.78602 111.67 7.78266 110.03 7.78266Z" fill="white"/>
<path d="M121.57 14.9719H121.53V16.2188H118.14V0.379272H121.53V7.13005H121.57C122.41 5.88315 123.6 5.2597 125.14 5.2597C126.56 5.2597 127.65 5.73703 128.41 6.68194C129.17 7.62686 129.56 8.92246 129.56 10.5688C129.56 12.3514 129.11 13.7834 128.22 14.8647C127.33 15.946 126.13 16.4818 124.64 16.4818C123.29 16.4818 122.26 15.9752 121.57 14.9719ZM121.47 10.4616V11.5624C121.47 12.254 121.67 12.819 122.08 13.2769C122.49 13.725 123.01 13.9588 123.65 13.9588C124.42 13.9588 125.02 13.6665 125.45 13.082C125.88 12.4975 126.09 11.6793 126.09 10.6077C126.09 9.72126 125.9 9.02962 125.51 8.53281C125.12 8.036 124.56 7.78272 123.84 7.78272C123.16 7.78272 122.6 8.02626 122.15 8.52307C121.7 9.01988 121.47 9.66281 121.47 10.4616Z" fill="white"/>
<path d="M140.68 16.2187H137.47V14.6796H137.43C136.69 15.8777 135.6 16.472 134.16 16.472C133.09 16.472 132.26 16.1797 131.65 15.5855C131.04 15.001 130.73 14.212 130.73 13.2281C130.73 11.1532 131.99 9.95499 134.52 9.63352L137.5 9.24387C137.5 8.0749 136.85 7.49042 135.55 7.49042C134.24 7.49042 133 7.87033 131.82 8.63016V6.15585C132.29 5.92206 132.94 5.70775 133.76 5.5324C134.58 5.34732 135.32 5.25964 136 5.25964C139.13 5.25964 140.7 6.7793 140.7 9.82835V16.2187H140.68ZM137.5 11.874V11.1532L135.51 11.4065C134.41 11.5428 133.86 12.0299 133.86 12.8579C133.86 13.2378 133.99 13.5398 134.26 13.7834C134.53 14.0269 134.89 14.1438 135.35 14.1438C135.99 14.1438 136.5 13.9295 136.91 13.5009C137.3 13.0625 137.5 12.5267 137.5 11.874Z" fill="white"/>
<path d="M146.75 16.2188H143.36V0.379272H146.75V16.2188Z" fill="white"/>
</svg>
