<svg width="24" height="24" viewBox="0 0 24 24" fill="none" xmlns="http://www.w3.org/2000/svg">
<path d="M21.7575 7.46285L20.0152 5.59817L22.7481 2.86525C23.2434 2.36994 23.2434 1.62407 22.7481 1.12294C22.2528 0.621802 21.507 0.627629 21.0058 1.12294L18.2729 3.85586L16.4082 2.11355C15.9129 1.61824 15.2894 1.99118 15.2894 2.48648V7.82996C15.2894 8.20289 15.54 8.45346 15.9129 8.45346H21.2622C21.7575 8.45929 22.1305 7.83578 21.7575 7.46285ZM7.34121 2.11937L5.5989 3.86168L2.86598 1.12876C2.37067 0.633457 1.6248 0.633457 1.12367 1.12876C0.622535 1.62407 0.628362 2.36994 1.12367 2.87107L3.73422 5.604L1.99191 7.46868C1.4966 7.84161 1.86954 8.46511 2.36485 8.46511H7.70832C8.08126 8.46511 8.33182 8.21455 8.33182 7.84161V2.49231C8.33182 1.99118 7.71415 1.61824 7.34121 2.11937ZM1.99191 16.5357L3.85659 18.278L1.12367 21.0109C0.628362 21.5062 0.628362 22.2521 1.12367 22.7532C1.61897 23.2544 2.36485 23.2485 2.86598 22.7532L5.5989 20.0203L7.46358 21.7626C7.71415 22.2579 8.33182 21.885 8.33182 21.3897V16.0462C8.33182 15.6733 8.08126 15.4227 7.70832 15.4227H2.36485C1.86954 15.4169 1.4966 16.0404 1.99191 16.5357ZM16.5364 21.7568L18.4011 20.0145L21.134 22.7474C21.6293 23.2427 22.3752 23.2427 22.8763 22.7474C23.3775 22.2521 23.3716 21.5062 22.8763 21.0051L20.1434 18.2722L21.8857 16.4075C22.2587 16.0346 22.0081 15.2887 21.3904 15.2887H16.0469C15.674 15.2887 15.4234 15.5392 15.4234 15.9122V21.2615C15.5458 21.7568 16.1635 22.1297 16.5364 21.7568Z" fill="#006697"/>
</svg>
