<svg width="24" height="24" viewBox="0 0 24 24" fill="none" xmlns="http://www.w3.org/2000/svg">
<path d="M22.3132 23.2499C22.0732 23.2499 21.8332 23.1585 21.6504 22.9752L15.4289 16.7537C15.0628 16.3876 15.0628 15.7941 15.4289 15.428C15.7945 15.0619 16.3889 15.0619 16.7546 15.428L22.9761 21.6495C23.3422 22.0156 23.3422 22.6091 22.9761 22.9752C22.7932 23.1585 22.5532 23.2499 22.3132 23.2499Z" fill="#006697"/>
<path d="M10.066 19.4928H10.0655C9.22546 19.4928 8.39151 19.378 7.58617 19.152C2.96457 17.8563 0.0296049 13.1372 0.90386 8.40922C1.71155 4.04264 5.68718 0.75 10.1513 0.75C10.4307 0.75 10.7129 0.763125 10.9913 0.788439C15.7615 1.22721 19.4985 5.328 19.4985 10.1245C19.4985 11.2711 19.2937 12.391 18.8901 13.4537C17.5175 17.066 13.9713 19.4928 10.066 19.4928ZM10.1513 2.62508C6.57691 2.62508 3.39396 5.25816 2.748 8.75002C2.04813 12.5335 4.39572 16.3094 8.09244 17.3463C8.73325 17.5259 9.39703 17.6173 10.0655 17.6173C13.1973 17.6173 16.039 15.6761 17.1364 12.7866C17.4589 11.9377 17.623 11.0418 17.623 10.1235C17.623 6.28617 14.6346 3.00572 10.8193 2.65508C10.598 2.63539 10.373 2.62508 10.1513 2.62508Z" fill="#006697"/>
<path d="M13.8695 11.062H6.36918C5.85166 11.062 5.43164 10.642 5.43164 10.1244C5.43164 9.60691 5.85166 9.18689 6.36918 9.18689H13.8695C14.387 9.18689 14.807 9.60691 14.807 10.1244C14.807 10.642 14.3875 11.062 13.8695 11.062Z" fill="#006697"/>
</svg>
