<svg width="24" height="24" viewBox="0 0 24 24" fill="none" xmlns="http://www.w3.org/2000/svg">
<path d="M22.9753 21.6497L17.3794 16.0537C18.7031 14.4375 19.5 12.3731 19.5 10.125C19.5 4.95563 15.2944 0.75 10.125 0.75C4.95563 0.75 0.75 4.95563 0.75 10.125C0.75 15.2944 4.95563 19.5 10.125 19.5C12.3731 19.5 14.4375 18.7031 16.0537 17.3794L21.6497 22.9753C22.0162 23.3419 22.6088 23.3419 22.9753 22.9753C23.3419 22.6088 23.3419 22.0162 22.9753 21.6497ZM2.625 10.125C2.625 5.98969 5.98969 2.625 10.125 2.625C14.2603 2.625 17.625 5.98969 17.625 10.125C17.625 14.2603 14.2603 17.625 10.125 17.625C5.98969 17.625 2.625 14.2603 2.625 10.125Z" fill="#006697"/>
<path d="M14.8125 10.125C14.8125 10.6425 14.3925 11.0625 13.875 11.0625H11.0625V13.875C11.0625 14.3925 10.6425 14.8125 10.125 14.8125C9.6075 14.8125 9.1875 14.3925 9.1875 13.875V11.0625H6.375C5.8575 11.0625 5.4375 10.6425 5.4375 10.125C5.4375 9.6075 5.8575 9.1875 6.375 9.1875H9.1875V6.375C9.1875 5.8575 9.6075 5.4375 10.125 5.4375C10.6425 5.4375 11.0625 5.8575 11.0625 6.375V9.1875H13.875C14.3925 9.1875 14.8125 9.6075 14.8125 10.125Z" fill="#006697"/>
</svg>
