<svg width="24" height="25" viewBox="0 0 24 25" fill="none" xmlns="http://www.w3.org/2000/svg">
<g clip-path="url(#clip0_5528_86321)">
<path d="M23.2493 10.9994C22.8353 10.9994 22.4993 11.3353 22.4993 11.7493V20.2418L16.4997 22.6416V14.7491C16.4997 14.3351 16.1637 13.9992 15.7497 13.9992C15.3358 13.9992 14.9998 14.3351 14.9998 14.7491V22.6401L9.00017 20.2403V8.35802L12.4755 9.74843C12.8549 9.90142 13.2959 9.71543 13.4504 9.32996C13.6049 8.94598 13.4174 8.50951 13.0319 8.35502L8.5427 6.55813C8.5427 6.55813 8.5427 6.55813 8.5412 6.55813L8.5292 6.55363C8.35071 6.48163 8.15122 6.48163 7.97273 6.55363L7.95923 6.55813C7.95923 6.55813 7.95924 6.55813 7.95774 6.55813L0.471703 9.55344C0.188221 9.66744 0.000732422 9.94192 0.000732422 10.2494V23.7486C0.000732422 23.9975 0.125225 24.23 0.330712 24.3695C0.456704 24.455 0.602195 24.4985 0.750686 24.4985C0.84518 24.4985 0.939674 24.4805 1.02967 24.4445L8.25022 21.5572L15.4573 24.44C15.4573 24.44 15.4573 24.44 15.4588 24.44L15.4723 24.446C15.6508 24.518 15.8502 24.518 16.0287 24.446L16.0422 24.44C16.0422 24.44 16.0422 24.44 16.0437 24.44L23.5298 21.4462C23.8117 21.3307 23.9992 21.0562 23.9992 20.7487V11.7493C23.9992 11.3353 23.6633 10.9994 23.2493 10.9994ZM7.50026 20.2403L1.50064 22.6401V10.7564L7.50026 8.35652V20.2403Z" fill="black"/>
<path d="M18.7496 3.49982C17.5091 3.49982 16.4997 4.50925 16.4997 5.74968C16.4997 6.9901 17.5091 7.99954 18.7496 7.99954C19.99 7.99954 20.9994 6.9901 20.9994 5.74968C20.9994 4.50925 19.99 3.49982 18.7496 3.49982ZM18.7496 6.49963C18.3356 6.49963 17.9996 6.16365 17.9996 5.74968C17.9996 5.3357 18.3356 4.99972 18.7496 4.99972C19.1635 4.99972 19.4995 5.3357 19.4995 5.74968C19.4995 6.16365 19.1635 6.49963 18.7496 6.49963Z" fill="black"/>
<path d="M18.7495 0.5C15.8547 0.5 13.4999 2.85485 13.4999 5.74967C13.4999 8.4435 17.7116 13.2147 18.1916 13.7502C18.3341 13.9077 18.5366 13.9992 18.7495 13.9992C18.9625 13.9992 19.165 13.9077 19.3075 13.7502C19.7875 13.2147 23.9992 8.4435 23.9992 5.74967C23.9992 2.85485 21.6444 0.5 18.7495 0.5ZM18.7495 12.1048C17.1117 10.1624 14.9998 7.18058 14.9998 5.74967C14.9998 3.6828 16.6827 1.99991 18.7495 1.99991C20.8164 1.99991 22.4993 3.6828 22.4993 5.74967C22.4993 7.17908 20.3874 10.1624 18.7495 12.1048Z" fill="black"/>
</g>
<defs>
<clipPath id="clip0_5528_86321">
<rect width="24" height="24" fill="white" transform="translate(0 0.5)"/>
</clipPath>
</defs>
</svg>
