<svg width="24" height="24" viewBox="0 0 24 24" fill="none" xmlns="http://www.w3.org/2000/svg">
<path d="M16.6616 1.75L18.4019 3.625L15.6671 6.375C15.1699 6.875 15.1699 7.625 15.6671 8.125C16.1644 8.625 16.9102 8.625 17.4075 8.125L20.1423 5.375L22.0069 7.125C22.5041 7.625 23.1257 7.25 23.1257 6.75V1.375C23.1257 1 22.8771 0.75 22.5041 0.75H17.1588C16.6616 0.75 16.2887 1.375 16.6616 1.75V1.75ZM1.74448 7.125L3.48481 5.375L6.21961 8.125C6.71685 8.625 7.46271 8.625 7.95994 8.125C8.45718 7.625 8.45718 6.875 7.95994 6.375L5.34945 3.625L7.08978 1.75C7.58702 1.375 7.21409 0.75 6.71685 0.75H1.37155C0.998619 0.75 0.75 1 0.75 1.375V6.75C0.75 7.25 1.37155 7.625 1.74448 7.125V7.125ZM7.08978 22.125L5.22514 20.375L7.95994 17.625C8.45718 17.125 8.45718 16.375 7.95994 15.875C7.46271 15.375 6.71685 15.375 6.21961 15.875L3.48481 18.625L1.62017 16.875C1.37155 16.375 0.75 16.75 0.75 17.25V22.625C0.75 23 0.998619 23.25 1.37155 23.25H6.71685C7.21409 23.25 7.58702 22.625 7.08978 22.125V22.125ZM22.1312 16.75L20.2666 18.5L17.5318 15.75C17.0345 15.25 16.2887 15.25 15.7914 15.75C15.2942 16.25 15.2942 17 15.7914 17.5L18.5262 20.25L16.7859 22.125C16.413 22.5 16.6616 23.25 17.2831 23.25H22.6285C23.0014 23.25 23.25 23 23.25 22.625V17.25C23.1257 16.75 22.5041 16.375 22.1312 16.75V16.75Z" fill="#006697"/>
</svg>
