<svg width="25" height="24" viewBox="0 0 25 24" fill="none" xmlns="http://www.w3.org/2000/svg">
<path d="M24.8604 15.6875V0.9375C24.8604 0.419719 24.4406 0 23.9229 0H1.79785C1.28007 0 0.860352 0.419719 0.860352 0.9375V23.0625C0.860352 23.5803 1.28007 24 1.79785 24H16.5479C16.7998 24 17.0395 23.8967 17.2109 23.7253L24.5857 16.3505C24.7569 16.1794 24.8604 15.9405 24.8604 15.6875ZM2.73535 1.875H22.9854V14.75H16.5479C16.0301 14.75 15.6104 15.1697 15.6104 15.6875V22.125H2.73535V1.875ZM21.6595 16.625L17.4854 20.7992V16.625H21.6595ZM6.3916 8.31248C6.3916 7.7947 6.81132 7.37498 7.3291 7.37498H18.3916C18.9094 7.37498 19.3291 7.7947 19.3291 8.31248C19.3291 8.83027 18.9094 9.24998 18.3916 9.24998H7.3291C6.81132 9.24998 6.3916 8.83027 6.3916 8.31248ZM7.3291 12.9375C6.81132 12.9375 6.3916 12.5178 6.3916 12C6.3916 11.4822 6.81132 11.0625 7.3291 11.0625H18.3916C18.9094 11.0625 19.3291 11.4822 19.3291 12C19.3291 12.5178 18.9094 12.9375 18.3916 12.9375H7.3291Z" fill="black"/>
</svg>
