<svg width="40" height="40" viewBox="0 0 40 40" fill="none" xmlns="http://www.w3.org/2000/svg">
    <g clip-path="url(#clip0_2022_23567)">
        <g clip-path="url(#clip1_2022_23567)">
            <path d="M39.806 14.4304L36.177 11.3996L38.6261 7.25314C38.7116 7.10853 38.725 6.93252 38.6623 6.77666C38.5997 6.62111 38.4684 6.50322 38.3066 6.45783L20.4634 1.45854C20.2287 1.39135 19.9771 1.49299 19.8525 1.70416L17.4931 5.69807L13.9998 2.78096C13.8151 2.62721 13.5519 2.61346 13.353 2.7465L0.240466 11.5085C0.0986689 11.6031 0.00999701 11.759 0.00077826 11.929C-0.00836236 12.099 0.0634345 12.2637 0.193981 12.3728L3.82289 15.4038L1.37398 19.55C1.29023 19.6915 1.27547 19.8635 1.33422 20.0174C1.39265 20.1711 1.51828 20.2897 1.67523 20.3397L3.98164 21.0749V32.1622C3.98164 32.3976 4.13398 32.6056 4.3582 32.677L22.739 38.5364C22.7925 38.5537 22.848 38.5621 22.903 38.5621C23.0202 38.5621 23.1359 38.5238 23.2313 38.451L35.8062 28.8286C35.94 28.7262 36.0184 28.5675 36.0184 28.3993V18.1588L39.7878 15.2746C39.9184 15.1746 39.9965 15.0208 40 14.8568C40.0034 14.6925 39.9319 14.5356 39.806 14.4304ZM22.7984 20.5417L18.1753 19.0679V7.23369L34.2898 11.7485L22.7984 20.5417ZM17.0942 18.7235L5.75531 15.1089L17.0942 7.53213V18.7235ZM20.5719 2.61135L37.3377 7.309L35.2241 10.8876L18.4577 6.1901L20.5719 2.61135ZM13.6173 3.87018L16.7339 6.47283L4.55812 14.609L1.44148 12.0061L13.6173 3.87018ZM4.76812 15.9285L22.0926 21.4512L19.9736 25.0384L2.64961 19.5159L4.76812 15.9285ZM5.06273 21.4196L20.0559 26.1991C20.1102 26.2167 20.1654 26.2248 20.2199 26.2248C20.4071 26.2248 20.5859 26.1273 20.6852 25.9591L22.3623 23.1195V37.2818L5.06273 31.7674V21.4196ZM34.9373 28.1321L23.4434 36.9272V22.2985L26.5374 24.8825C26.6377 24.966 26.7609 25.0081 26.8841 25.0081C26.9998 25.0081 27.1152 24.9712 27.2124 24.897L34.9373 18.986V28.1321ZM26.8989 23.7758L23.7681 21.1609L35.463 12.212L38.5941 14.827L26.8989 23.7758Z" fill="white"/>
        </g>
    </g>
    <defs>
        <clipPath id="clip0_2022_23567">
            <rect width="40" height="40" fill="white"/>
        </clipPath>
        <clipPath id="clip1_2022_23567">
            <rect width="40" height="40" fill="white"/>
        </clipPath>
    </defs>
</svg>
