<svg width="16" height="16" viewBox="0 0 16 16" fill="none" xmlns="http://www.w3.org/2000/svg">
<path d="M9.90728 3L1.97128 10.9364C1.93135 10.9765 1.90252 11.027 1.88879 11.0814L1.00916 14.612C0.98285 14.7182 1.01408 14.8313 1.09165 14.9088C1.15033 14.9675 1.2303 15 1.3121 15C1.33715 15 1.36278 14.9969 1.38772 14.9906L4.91836 14.1109C4.97339 14.0972 5.02338 14.0684 5.06331 14.0285L13 6.09266L9.90728 3Z" fill="#252EFF"/>
<path d="M14.5063 2.4359L13.5527 1.47929C12.9154 0.839929 11.8046 0.840548 11.1681 1.47929L10 2.65109L13.3382 6L14.5063 4.8282C14.8246 4.50895 15 4.08404 15 3.63211C15 3.18019 14.8246 2.75527 14.5063 2.4359Z" fill="#252EFF"/>
</svg>
