<svg width="16" height="16" viewBox="0 0 16 16" fill="none" xmlns="http://www.w3.org/2000/svg">
<g clip-path="url(#clip0_878_2436)">
<path d="M9.88086 2.68738L1.07744 11.4914C1.03315 11.5359 1.00117 11.5919 0.985939 11.6522L0.0101637 15.5688C-0.0190245 15.6867 0.0156207 15.8121 0.101662 15.8981C0.166765 15.9632 0.255472 15.9992 0.346209 15.9992C0.374001 15.9992 0.402428 15.9958 0.430094 15.9888L4.34665 15.0129C4.40769 14.9977 4.46315 14.9659 4.50744 14.9216L13.3116 6.11814L9.88086 2.68738Z" fill="white"/>
<path d="M15.4926 1.48694L14.5126 0.506972C13.8577 -0.147986 12.7162 -0.147352 12.062 0.506972L10.8616 1.70737L14.2922 5.138L15.4926 3.93761C15.8198 3.61057 16 3.17529 16 2.71233C16 2.24938 15.8198 1.8141 15.4926 1.48694Z" fill="white"/>
</g>
<defs>
<clipPath id="clip0_878_2436">
<rect width="16" height="16" fill="white"/>
</clipPath>
</defs>
</svg>
