<svg width="60" height="70" viewBox="0 0 60 70" fill="none" xmlns="http://www.w3.org/2000/svg">
<path d="M56.0802 42.9981C56.0802 57.4046 44.3997 69.085 29.9932 69.085C15.5867 69.085 3.90625 57.4046 3.90625 42.9981C3.90625 28.5916 15.5867 16.9111 29.9932 16.9111C44.3997 16.9111 56.0802 28.5916 56.0802 42.9981Z" fill="#006697"/>
<g style="mix-blend-mode:multiply">
<path d="M30.0598 63.9982C18.5163 63.9982 9.125 54.6069 9.125 43.0634C9.125 31.52 18.5163 22.1287 30.0598 22.1287C41.6033 22.1287 50.9946 31.52 50.9946 43.0634C50.9946 54.6069 41.6033 63.9982 30.0598 63.9982Z" fill="#939598"/>
</g>
<path d="M29.9946 63.8678C18.4902 63.8678 9.125 54.5026 9.125 42.9982C9.125 31.4939 18.4837 22.1287 29.9946 22.1287C41.5054 22.1287 50.8641 31.4939 50.8641 42.9982C50.8641 54.5026 41.5054 63.8678 29.9946 63.8678Z" fill="url(#paint0_linear_8458_67663)"/>
<path d="M49.67 49.9568C45.8352 60.809 33.8808 66.509 23.0352 62.6677C17.4852 60.7047 13.2787 56.6155 11.0156 51.6394C13.3569 56.2568 17.4069 60.0199 22.6569 61.8786C33.5026 65.7134 45.4569 60.0134 49.2917 49.1612C51.1504 43.9047 50.7721 38.3938 48.6526 33.6655C51.0982 38.5568 51.633 44.3938 49.67 49.9503V49.9568Z" fill="white"/>
<path d="M27.4293 47.1979C25.4206 47.1979 23.5358 46.337 22.251 44.837C19.7923 41.9674 20.1967 37.5783 23.138 35.0609C24.4293 33.9522 26.0728 33.3457 27.7554 33.3457C29.7641 33.3457 31.6489 34.2066 32.9271 35.7066C35.138 38.2957 35.0597 42.2022 32.7445 44.7979C32.5489 45.0327 32.3141 45.2609 32.0467 45.4892C31.7793 45.7174 31.5184 45.9131 31.251 46.0761C30.1097 46.8131 28.7858 47.2044 27.4293 47.2044V47.1979ZM27.7619 34.337C26.3141 34.337 24.8989 34.8587 23.7836 35.8174C21.2532 37.9761 20.9075 41.7392 23.0075 44.1979C24.1032 45.4827 25.7141 46.2131 27.4293 46.2131C28.5967 46.2131 29.738 45.874 30.7228 45.2413C30.9575 45.0979 31.1728 44.9348 31.4075 44.7392C31.6358 44.5435 31.8315 44.3479 32.001 44.1522C33.9967 41.9153 34.0684 38.5696 32.1771 36.3587C31.0815 35.0805 29.4706 34.3435 27.7554 34.3435L27.7619 34.337Z" fill="#67666B"/>
<path d="M34.8104 51.7434C34.4713 51.7434 34.1517 51.5934 33.93 51.339L31.3539 48.326C30.943 47.8434 30.9952 47.1064 31.4843 46.6955L33.3495 45.1042C33.8126 44.7064 34.5821 44.7651 34.98 45.2347L37.556 48.2477C37.9669 48.7303 37.9147 49.4608 37.4256 49.8782L35.5604 51.4695C35.3517 51.6455 35.0843 51.7499 34.8104 51.7499V51.7434ZM34.093 45.8151C34.093 45.8151 34.0278 45.8151 33.9887 45.8542L32.1234 47.4455C32.0517 47.5042 32.0452 47.6086 32.1039 47.6803L34.68 50.6934C34.7647 50.7912 34.8365 50.7782 34.9147 50.7129L36.78 49.1216C36.8517 49.0629 36.8582 48.9586 36.7995 48.8868L34.2234 45.8738C34.1843 45.8216 34.1256 45.8151 34.0995 45.8151H34.093Z" fill="#67666B"/>
<path d="M31.9757 47.5696L30.2344 45.5283L30.73 45.2283C30.9518 45.0913 31.1735 44.9283 31.4018 44.7326C31.63 44.537 31.8257 44.3413 31.9953 44.1457L32.3735 43.7087L34.1148 45.75L31.9757 47.5826V47.5696ZM31.7213 45.7435L32.0866 46.1674L32.7192 45.6261L32.3539 45.2022C32.2561 45.2935 32.1518 45.3913 32.0474 45.4827C31.9365 45.574 31.8322 45.6653 31.7213 45.7435Z" fill="#67666B"/>
<path d="M59.3478 43.6505C58.9891 43.6505 58.6957 43.357 58.6957 42.9983C58.6957 27.1766 45.8217 14.3026 30 14.3026C14.1783 14.3026 1.30435 27.1766 1.30435 42.9983C1.30435 43.357 1.01087 43.6505 0.652174 43.6505C0.293478 43.6505 0 43.357 0 42.9983C0 26.4592 13.4543 12.9983 30 12.9983C46.5457 12.9983 60 26.4526 60 42.9983C60 43.357 59.7065 43.6505 59.3478 43.6505Z" fill="#006697"/>
<path d="M30.0027 9.45051C32.524 9.45051 34.5679 7.40659 34.5679 4.88529C34.5679 2.36399 32.524 0.320068 30.0027 0.320068C27.4814 0.320068 25.4375 2.36399 25.4375 4.88529C25.4375 7.40659 27.4814 9.45051 30.0027 9.45051Z" fill="#006697"/>
<g style="mix-blend-mode:multiply">
<path d="M30.3077 8.51783C32.1087 8.51783 33.5686 7.05789 33.5686 5.25696C33.5686 3.45603 32.1087 1.99609 30.3077 1.99609C28.5068 1.99609 27.0469 3.45603 27.0469 5.25696C27.0469 7.05789 28.5068 8.51783 30.3077 8.51783Z" fill="#D1D3D4"/>
</g>
<path d="M30.0031 8.14626C31.804 8.14626 33.2639 6.68631 33.2639 4.88538C33.2639 3.08445 31.804 1.62451 30.0031 1.62451C28.2021 1.62451 26.7422 3.08445 26.7422 4.88538C26.7422 6.68631 28.2021 8.14626 30.0031 8.14626Z" fill="url(#paint1_linear_8458_67663)"/>
<defs>
<linearGradient id="paint0_linear_8458_67663" x1="4.29239" y1="41.4787" x2="48.6598" y2="44.1069" gradientUnits="userSpaceOnUse">
<stop stop-color="white"/>
<stop offset="0.32" stop-color="#FBFBFB"/>
<stop offset="0.64" stop-color="#EEEEEE"/>
<stop offset="0.96" stop-color="#DBDBDB"/>
<stop offset="0.99" stop-color="#D8D8D8"/>
</linearGradient>
<linearGradient id="paint1_linear_8458_67663" x1="26.7422" y1="4.88538" x2="33.2639" y2="4.88538" gradientUnits="userSpaceOnUse">
<stop stop-color="white"/>
<stop offset="0.32" stop-color="#FBFBFB"/>
<stop offset="0.64" stop-color="#EEEEEE"/>
<stop offset="0.96" stop-color="#DBDBDB"/>
<stop offset="0.99" stop-color="#D8D8D8"/>
</linearGradient>
</defs>
</svg>
