<svg width="24" height="24" viewBox="0 0 24 24" fill="none" xmlns="http://www.w3.org/2000/svg">
<path d="M22.3069 6.04676H19.6186V1.65764C19.6186 1.2568 19.2937 0.932007 18.893 0.932007H5.10701C4.70627 0.932007 4.38138 1.2568 4.38138 1.65764V6.04676H1.69315C0.759593 6.04676 0 6.80625 0 7.7399V17.0498C0 17.9833 0.759593 18.7429 1.69315 18.7429H4.38138V22.3424C4.38138 22.7432 4.70627 23.068 5.10701 23.068H18.8929C19.2936 23.068 19.6185 22.7432 19.6185 22.3424V18.7429H22.3068C23.2403 18.7429 23.9999 17.9833 23.9999 17.0498V7.7399C24 6.80635 23.2404 6.04676 22.3069 6.04676ZM5.83264 2.38327H18.1673V6.04676H5.83264V2.38327ZM18.1673 21.6167H5.83264V14.4181H18.1673V21.6167ZM22.5487 17.0498C22.5487 17.1809 22.438 17.2917 22.3069 17.2917H19.6186V13.6924C19.6186 13.2916 19.2937 12.9668 18.893 12.9668H5.10701C4.70627 12.9668 4.38138 13.2916 4.38138 13.6924V17.2917H1.69315C1.56205 17.2917 1.45127 17.1809 1.45127 17.0498V7.7399C1.45127 7.60871 1.56205 7.49802 1.69315 7.49802H5.10701H18.8929H22.3068C22.4379 7.49802 22.5486 7.60871 22.5486 7.7399V17.0498H22.5487Z" fill="white"/>
<path d="M18.8935 11.2645C19.4635 11.2645 19.9256 10.8024 19.9256 10.2324C19.9256 9.66236 19.4635 9.20026 18.8935 9.20026C18.3234 9.20026 17.8613 9.66236 17.8613 10.2324C17.8613 10.8024 18.3234 11.2645 18.8935 11.2645Z" fill="white"/>
<path d="M15.301 15.85H8.69829C8.29755 15.85 7.97266 16.1748 7.97266 16.5756C7.97266 16.9764 8.29755 17.3012 8.69829 17.3012H15.301C15.7017 17.3012 16.0266 16.9764 16.0266 16.5756C16.0266 16.1749 15.7018 15.85 15.301 15.85Z" fill="white"/>
<path d="M15.301 18.7333H8.69829C8.29755 18.7333 7.97266 19.0581 7.97266 19.4589C7.97266 19.8598 8.29755 20.1845 8.69829 20.1845H15.301C15.7017 20.1845 16.0266 19.8598 16.0266 19.4589C16.0266 19.0581 15.7018 18.7333 15.301 18.7333Z" fill="white"/>
</svg>
