<svg width="24" height="25" viewBox="0 0 24 25" fill="none" xmlns="http://www.w3.org/2000/svg">
<path d="M22.3069 6.54676H19.6186V2.15764C19.6186 1.7568 19.2937 1.43201 18.893 1.43201H5.10701C4.70627 1.43201 4.38138 1.7568 4.38138 2.15764V6.54676H1.69315C0.759593 6.54676 0 7.30625 0 8.2399V17.5498C0 18.4833 0.759593 19.2429 1.69315 19.2429H4.38138V22.8424C4.38138 23.2432 4.70627 23.568 5.10701 23.568H18.8929C19.2936 23.568 19.6185 23.2432 19.6185 22.8424V19.2429H22.3068C23.2403 19.2429 23.9999 18.4833 23.9999 17.5498V8.2399C24 7.30635 23.2404 6.54676 22.3069 6.54676ZM5.83264 2.88327H18.1673V6.54676H5.83264V2.88327ZM18.1673 22.1167H5.83264V14.9181H18.1673V22.1167ZM22.5487 17.5498C22.5487 17.6809 22.438 17.7917 22.3069 17.7917H19.6186V14.1924C19.6186 13.7916 19.2937 13.4668 18.893 13.4668H5.10701C4.70627 13.4668 4.38138 13.7916 4.38138 14.1924V17.7917H1.69315C1.56205 17.7917 1.45127 17.6809 1.45127 17.5498V8.2399C1.45127 8.10871 1.56205 7.99802 1.69315 7.99802H5.10701H18.8929H22.3068C22.4379 7.99802 22.5486 8.10871 22.5486 8.2399V17.5498H22.5487Z" fill="black"/>
<path d="M18.8925 11.7645C19.4625 11.7645 19.9246 11.3024 19.9246 10.7324C19.9246 10.1624 19.4625 9.70026 18.8925 9.70026C18.3225 9.70026 17.8604 10.1624 17.8604 10.7324C17.8604 11.3024 18.3225 11.7645 18.8925 11.7645Z" fill="black"/>
<path d="M15.301 16.35H8.69829C8.29755 16.35 7.97266 16.6748 7.97266 17.0756C7.97266 17.4764 8.29755 17.8012 8.69829 17.8012H15.301C15.7017 17.8012 16.0266 17.4764 16.0266 17.0756C16.0266 16.6749 15.7018 16.35 15.301 16.35Z" fill="black"/>
<path d="M15.301 19.2332H8.69829C8.29755 19.2332 7.97266 19.558 7.97266 19.9589C7.97266 20.3597 8.29755 20.6845 8.69829 20.6845H15.301C15.7017 20.6845 16.0266 20.3597 16.0266 19.9589C16.0266 19.558 15.7018 19.2332 15.301 19.2332Z" fill="black"/>
</svg>
