<svg width="24" height="24" viewBox="0 0 24 24" fill="none" xmlns="http://www.w3.org/2000/svg">
<g clip-path="url(#clip0_6418_110648)">
<path d="M18 24V18H24V16H18V10H16V16H10V18H16V24H18Z" fill="#006697"/>
<path d="M14 20.7H2.8C2 20.7 1.3 20 1.3 19.2V8H14H16H18H20H21.6V14H22.9V7.6C22.9 7.4 22.9 7.2 22.8 7L21 1.6C20.7 0.6 19.9 0 18.9 0H4.1C3.2 0 2.3 0.6 2 1.5L0.1 6.9C0 7.1 0 7.3 0 7.6V19.3C0 20.8 1.2 22 2.8 22H14V20.7ZM12.1 1.3H18.9C19.3 1.3 19.6 1.6 19.8 2L21.3 6.8H12.1V1.3ZM3.3 1.9C3.4 1.5 3.8 1.3 4.2 1.3H10.8V6.7H1.6L3.3 1.9Z" fill="#006697"/>
</g>
<defs>
<clipPath id="clip0_6418_110648">
<rect width="24" height="24" fill="white"/>
</clipPath>
</defs>
</svg>
