<svg width="24" height="25" viewBox="0 0 24 25" fill="none" xmlns="http://www.w3.org/2000/svg">
<g clip-path="url(#clip0_2026_31206)">
<path d="M9.59104 3.60596C6.61237 4.40239 4.37502 6.58628 3.38831 9.27656C3.21428 9.75069 2.6371 9.92776 2.23283 9.62512L2.22146 9.6166C1.95747 9.41899 1.85055 9.07153 1.96391 8.76184C3.11372 5.62177 5.72411 3.07222 9.19985 2.14289C14.8376 0.635498 20.662 4.07837 22.2145 9.69189L20.7511 10.0832C19.4149 5.27707 14.4211 2.31452 9.59104 3.60596Z" fill="black"/>
<path d="M23.5949 9.61084L22.4747 12.7913C22.4147 12.9617 22.2022 13.0185 22.0652 12.9008L19.5072 10.7038C19.3504 10.5693 19.4087 10.3143 19.6081 10.261L23.2863 9.27751C23.4859 9.22416 23.6634 9.41607 23.5949 9.61084Z" fill="black"/>
<path d="M14.3945 21.3943C17.3732 20.5979 19.6105 18.4138 20.5972 15.7235C20.7713 15.2494 21.3484 15.0723 21.7527 15.375L21.7641 15.3835C22.0281 15.5811 22.135 15.9286 22.0216 16.2383C20.8719 19.3785 18.2614 21.9279 14.7857 22.8572C9.14797 24.3646 3.32565 20.9297 1.77312 15.316L3.23654 14.9247C4.57276 19.7308 9.56434 22.6858 14.3945 21.3943Z" fill="black"/>
<path d="M0.390602 15.3896L1.51083 12.2091C1.57086 12.0388 1.78331 11.982 1.92034 12.0996L4.47839 14.2966C4.63506 14.431 4.57685 14.6861 4.3775 14.7394L0.699212 15.7229C0.499678 15.7763 0.321908 15.5842 0.390602 15.3896Z" fill="black"/>
</g>
<defs>
<clipPath id="clip0_2026_31206">
<rect width="24" height="24" fill="white" transform="translate(0 0.5)"/>
</clipPath>
</defs>
</svg>
