<svg width="24" height="23" viewBox="0 0 24 23" fill="none" xmlns="http://www.w3.org/2000/svg">
<path d="M23.0325 4.96751L18.5325 0.467513C18.4624 0.398001 18.3793 0.343008 18.2879 0.305684C18.1966 0.268361 18.0987 0.249442 18 0.250013H3C2.40326 0.250013 1.83097 0.487065 1.40901 0.909022C0.987053 1.33098 0.75 1.90328 0.75 2.50001V20.5C0.75 21.0968 0.987053 21.669 1.40901 22.091C1.83097 22.513 2.40326 22.75 3 22.75H21C21.5967 22.75 22.169 22.513 22.591 22.091C23.0129 21.669 23.25 21.0968 23.25 20.5V5.50001C23.2506 5.40131 23.2317 5.30346 23.1943 5.21208C23.157 5.1207 23.102 5.03759 23.0325 4.96751ZM15 1.75001V6.25001H9V1.75001H15ZM6 21.25V16C6 15.8011 6.07902 15.6103 6.21967 15.4697C6.36032 15.329 6.55109 15.25 6.75 15.25H17.25C17.4489 15.25 17.6397 15.329 17.7803 15.4697C17.921 15.6103 18 15.8011 18 16V21.25H6ZM21.75 20.5C21.75 20.6989 21.671 20.8897 21.5303 21.0303C21.3897 21.171 21.1989 21.25 21 21.25H19.5V16C19.5 15.4033 19.2629 14.831 18.841 14.409C18.419 13.9871 17.8467 13.75 17.25 13.75H6.75C6.15326 13.75 5.58097 13.9871 5.15901 14.409C4.73705 14.831 4.5 15.4033 4.5 16V21.25H3C2.80109 21.25 2.61032 21.171 2.46967 21.0303C2.32902 20.8897 2.25 20.6989 2.25 20.5V2.50001C2.25 2.3011 2.32902 2.11033 2.46967 1.96968C2.61032 1.82903 2.80109 1.75001 3 1.75001H7.5V6.25001C7.5 6.64784 7.65804 7.02937 7.93934 7.31067C8.22064 7.59198 8.60218 7.75001 9 7.75001H15C15.3978 7.75001 15.7794 7.59198 16.0607 7.31067C16.342 7.02937 16.5 6.64784 16.5 6.25001V1.75001H17.6925L21.75 5.80751V20.5Z" fill="black"/>
</svg>
