<svg width="24" height="24" viewBox="0 0 24 24" fill="none" xmlns="http://www.w3.org/2000/svg">
<g clip-path="url(#clip0_8931_68249)">
<path d="M23.38 0H0.620035C0.277466 0 0 0.277466 0 0.620035V23.38C0 23.7225 0.277466 24 0.620035 24H23.38C23.7225 24 24 23.7225 24 23.38V0.620035C24 0.277466 23.7225 0 23.38 0ZM15.3691 1.24007V9.39585L12.3255 7.51715C12.1263 7.39314 11.8737 7.39314 11.6745 7.51715L8.63089 9.39585V1.24007H15.3691ZM22.7599 22.7599H1.24007V1.24007H7.39082V10.5073C7.39082 10.8498 7.66906 11.1273 8.01163 11.1265C8.12633 11.1265 8.23871 11.0947 8.33637 11.0343L12 8.77582L15.6636 11.0374C15.955 11.2172 16.3371 11.1265 16.517 10.8351C16.5774 10.7375 16.6092 10.6251 16.6092 10.5104V1.24007H22.7599V22.7599Z" fill="black"/>
<path d="M12.2196 16.6152C11.8771 16.6152 11.5996 16.8927 11.5996 17.2353V20.6005C11.5996 20.9431 11.8771 21.2205 12.2196 21.2205H19.7631C20.1057 21.2205 20.3832 20.9431 20.3832 20.6005V17.2353C20.3832 16.8927 20.1057 16.6152 19.7631 16.6152H12.2196ZM19.1462 19.9805H12.8397V17.8553H19.1431L19.1462 19.9805Z" fill="black"/>
</g>
<defs>
<clipPath id="clip0_8931_68249">
<rect width="24" height="24" fill="white"/>
</clipPath>
</defs>
</svg>
