<svg width="60" height="70" viewBox="0 0 60 70" fill="none" xmlns="http://www.w3.org/2000/svg">
<path d="M56.0802 42.9983C56.0802 57.4049 44.3997 69.0853 29.9932 69.0853C15.5867 69.0853 3.90625 57.4049 3.90625 42.9983C3.90625 28.5918 15.5867 16.9114 29.9932 16.9114C44.3997 16.9114 56.0802 28.5918 56.0802 42.9983Z" fill="#006697"/>
<g style="mix-blend-mode:multiply">
<path d="M30.0598 63.9985C18.5163 63.9985 9.125 54.6072 9.125 43.0637C9.125 31.5202 18.5163 22.1289 30.0598 22.1289C41.6033 22.1289 50.9946 31.5202 50.9946 43.0637C50.9946 54.6072 41.6033 63.9985 30.0598 63.9985Z" fill="#939598"/>
</g>
<path d="M29.9946 63.868C18.4902 63.868 9.125 54.5028 9.125 42.9985C9.125 31.4941 18.4902 22.1289 29.9946 22.1289C41.4989 22.1289 50.8641 31.4941 50.8641 42.9985C50.8641 54.5028 41.4989 63.868 29.9946 63.868Z" fill="url(#paint0_linear_8458_67700)"/>
<path d="M49.67 49.9571C45.8352 60.8027 33.8808 66.5093 23.0352 62.668C17.4852 60.7049 13.2787 56.6158 11.0156 51.6397C13.3569 56.2571 17.4069 60.0201 22.6634 61.8788C33.5091 65.7136 45.4634 60.0136 49.2982 49.1614C51.1569 43.9049 50.7787 38.394 48.6591 33.6658C51.1048 38.5571 51.6395 44.394 49.6765 49.9506L49.67 49.9571Z" fill="white"/>
<path d="M28.5347 50.4725C28.4108 50.4725 28.2934 50.4268 28.1956 50.342L23.4804 45.979C23.3304 45.842 23.2782 45.6203 23.3565 45.4312C23.4543 45.1964 23.5521 44.9681 23.663 44.7399C24.1912 43.592 24.8695 42.4833 25.6651 41.4464C25.9912 41.0159 26.3499 40.592 26.7543 40.1486C29.8847 36.7703 33.9999 34.8072 37.6065 34.9833C37.8478 34.9964 38.0434 35.179 38.076 35.4138C38.526 38.9681 36.8695 43.2659 33.7586 46.6312C32.3043 48.2029 30.576 49.5138 28.7565 50.4203C28.6847 50.4529 28.613 50.4725 28.5347 50.4725ZM24.413 45.4833L28.6195 49.3768C30.2238 48.529 31.7434 47.3485 33.0347 45.9529C35.826 42.9333 37.3717 39.1507 37.1369 35.9616C33.9021 35.9746 30.2956 37.7877 27.4847 40.8203C27.0999 41.2377 26.7673 41.6355 26.4608 42.0464C25.7043 43.0246 25.0717 44.0746 24.5695 45.1638C24.5173 45.2746 24.4651 45.379 24.4195 45.4899L24.413 45.4833Z" fill="#67666B"/>
<path d="M27.031 51.2291C26.9071 51.2291 26.7897 51.1834 26.6919 51.0986L22.844 47.5378C22.7462 47.4464 22.6875 47.3225 22.6875 47.1921C22.6875 47.0617 22.7266 46.9312 22.8179 46.8399L23.8875 45.6856C23.9788 45.5878 24.1027 45.5291 24.2331 45.5291C24.3636 45.5291 24.494 45.5682 24.5853 45.6595L28.4332 49.2204C28.6353 49.4095 28.6484 49.7225 28.4592 49.9182L27.3897 51.0725C27.2918 51.1769 27.1614 51.2291 27.0245 51.2291H27.031ZM23.881 47.1399L27.0049 50.029L27.4027 49.6051L24.2788 46.716L23.881 47.1464V47.1399Z" fill="#67666B"/>
<path d="M25.1087 49.4485C24.9913 49.4485 24.8674 49.4029 24.7695 49.3181C24.5674 49.129 24.5543 48.8159 24.7434 48.6203L28.6891 44.3616C28.8782 44.1594 29.1913 44.1463 29.3869 44.3355C29.5891 44.5181 29.6021 44.8377 29.413 45.0333L25.4674 49.292C25.3695 49.3963 25.2391 49.4485 25.1021 49.4485H25.1087Z" fill="#67666B"/>
<path d="M24.11 45.4508C23.9796 45.4508 23.8492 45.3986 23.7579 45.3008C23.4514 44.9877 22.9101 44.9225 22.5057 44.9225C21.684 44.9225 20.8753 45.1834 20.8687 45.1834C20.6731 45.2486 20.4579 45.1834 20.3274 45.0203C20.197 44.8573 20.184 44.6355 20.2883 44.4595C21.9644 41.6747 23.8231 41.0942 25.0818 41.0942C25.7601 41.0942 26.2035 41.2703 26.2492 41.2899C26.3927 41.3486 26.497 41.4725 26.5361 41.6225C26.5753 41.7725 26.5361 41.929 26.4448 42.0529C25.5774 43.1747 24.5601 45.1573 24.547 45.1769C24.4753 45.3203 24.3383 45.4182 24.1818 45.4442C24.1557 45.4442 24.1296 45.4442 24.1035 45.4442L24.11 45.4508ZM22.5057 43.9377C23.0731 43.9377 23.5492 44.0355 23.934 44.2247C24.2209 43.6964 24.7035 42.8421 25.2057 42.0855C24.3709 42.0529 23.0992 42.3595 21.8209 43.9768C22.0361 43.9508 22.2709 43.9377 22.5057 43.9377Z" fill="#67666B"/>
<path d="M29.6713 53.4985C29.5735 53.4985 29.4757 53.4724 29.3909 53.4137C29.2213 53.2964 29.1365 53.0877 29.1887 52.8855C29.3257 52.3246 29.5474 50.6029 28.8496 50.0159C28.7257 49.9116 28.6605 49.7616 28.6735 49.5985C28.6866 49.4355 28.7713 49.2985 28.9083 49.2137C28.9279 49.2007 30.8061 48.0529 31.8822 47.0811C31.9996 46.9768 32.1496 46.9311 32.3061 46.9637C32.4561 46.9898 32.5866 47.0877 32.6583 47.2246C32.7235 47.3551 34.217 50.3681 29.9583 53.4137C29.8735 53.479 29.7692 53.505 29.6713 53.505V53.4985ZM29.9126 49.755C30.2844 50.3746 30.3561 51.1703 30.3235 51.8355C31.8887 50.3811 32.0387 49.0703 31.9474 48.3203C31.23 48.8877 30.4148 49.429 29.9126 49.755Z" fill="#67666B"/>
<path d="M32.5583 43.3833C31.9323 43.3833 31.3323 43.1485 30.8757 42.7246C30.3866 42.2746 30.1062 41.6615 30.0801 41.0028C30.054 40.3441 30.2888 39.7115 30.7388 39.2224C31.2083 38.7202 31.867 38.4268 32.5583 38.4268C33.1844 38.4268 33.7779 38.6615 34.2409 39.0854C35.2453 40.0115 35.304 41.5898 34.3779 42.5941C33.9083 43.0963 33.2431 43.3898 32.5583 43.3898V43.3833ZM32.5583 39.4181C32.1409 39.4181 31.7496 39.5876 31.4627 39.8941C31.1953 40.1876 31.0518 40.5659 31.0649 40.9637C31.0779 41.3615 31.2475 41.7268 31.541 42.0007C32.1279 42.542 33.1062 42.5028 33.641 41.9224C34.2018 41.3224 34.1627 40.3768 33.5627 39.8159C33.2888 39.5615 32.9301 39.4181 32.5518 39.4181H32.5583Z" fill="#67666B"/>
<path d="M21.9133 50.2573C21.7894 50.2573 21.672 50.2116 21.5742 50.1269C21.372 49.9377 21.359 49.6247 21.5481 49.429L22.7155 48.1638C22.9046 47.9616 23.2177 47.9486 23.4134 48.1377C23.6155 48.3269 23.6286 48.6399 23.4394 48.8356L22.272 50.1008C22.1742 50.2051 22.0438 50.2573 21.9068 50.2573H21.9133Z" fill="#67666B"/>
<path d="M24.4524 52.6115C24.3285 52.6115 24.2111 52.5659 24.1133 52.4811C23.9111 52.292 23.8981 51.9789 24.0872 51.7833L25.2546 50.5181C25.4437 50.3159 25.7568 50.3028 25.9524 50.492C26.1546 50.6811 26.1676 50.9942 25.9785 51.1898L24.8111 52.455C24.7133 52.5594 24.5828 52.6115 24.4459 52.6115H24.4524Z" fill="#67666B"/>
<path d="M22.6087 52.1422C22.4847 52.1422 22.3674 52.1031 22.2695 52.0118C22.0674 51.8227 22.0543 51.5096 22.2434 51.314L24.0304 49.3835C24.2195 49.1814 24.5326 49.1683 24.7282 49.3574C24.9304 49.5466 24.9434 49.8596 24.7543 50.0553L22.9673 51.9857C22.8695 52.0901 22.7326 52.1422 22.6021 52.1422H22.6087Z" fill="#67666B"/>
<path d="M59.3478 43.6505C58.9891 43.6505 58.6956 43.357 58.6956 42.9983C58.6956 27.1766 45.8217 14.3026 30 14.3026C14.1783 14.3026 1.30435 27.1766 1.30435 42.9983C1.30435 43.357 1.01087 43.6505 0.652174 43.6505C0.293478 43.6505 0 43.357 0 42.9983C0 26.4592 13.4609 12.9983 30 12.9983C46.5391 12.9983 60 26.4526 60 42.9983C60 43.357 59.7065 43.6505 59.3478 43.6505Z" fill="#006697"/>
<path d="M30.0027 9.45051C32.524 9.45051 34.5679 7.40659 34.5679 4.88529C34.5679 2.36399 32.524 0.320068 30.0027 0.320068C27.4814 0.320068 25.4375 2.36399 25.4375 4.88529C25.4375 7.40659 27.4814 9.45051 30.0027 9.45051Z" fill="#006697"/>
<g style="mix-blend-mode:multiply">
<path d="M30.3077 8.51783C32.1087 8.51783 33.5686 7.05789 33.5686 5.25696C33.5686 3.45604 32.1087 1.99609 30.3077 1.99609C28.5068 1.99609 27.0469 3.45604 27.0469 5.25696C27.0469 7.05789 28.5068 8.51783 30.3077 8.51783Z" fill="#D1D3D4"/>
</g>
<path d="M30.0031 8.14626C31.804 8.14626 33.2639 6.68631 33.2639 4.88538C33.2639 3.08445 31.804 1.62451 30.0031 1.62451C28.2021 1.62451 26.7422 3.08445 26.7422 4.88538C26.7422 6.68631 28.2021 8.14626 30.0031 8.14626Z" fill="url(#paint1_linear_8458_67700)"/>
<defs>
<linearGradient id="paint0_linear_8458_67700" x1="4.29239" y1="41.4789" x2="48.6598" y2="44.1072" gradientUnits="userSpaceOnUse">
<stop stop-color="white"/>
<stop offset="0.32" stop-color="#FBFBFB"/>
<stop offset="0.64" stop-color="#EEEEEE"/>
<stop offset="0.96" stop-color="#DBDBDB"/>
<stop offset="0.99" stop-color="#D8D8D8"/>
</linearGradient>
<linearGradient id="paint1_linear_8458_67700" x1="26.7422" y1="4.88538" x2="33.2639" y2="4.88538" gradientUnits="userSpaceOnUse">
<stop stop-color="white"/>
<stop offset="0.32" stop-color="#FBFBFB"/>
<stop offset="0.64" stop-color="#EEEEEE"/>
<stop offset="0.96" stop-color="#DBDBDB"/>
<stop offset="0.99" stop-color="#D8D8D8"/>
</linearGradient>
</defs>
</svg>
