<svg width="60" height="68" viewBox="0 0 60 68" fill="none" xmlns="http://www.w3.org/2000/svg">
<path d="M30 56.087C13.4543 56.087 0 42.6261 0 26.087C0 25.7283 0.293478 25.4348 0.652174 25.4348C1.01087 25.4348 1.30435 25.7283 1.30435 26.087C1.30435 41.9087 14.1783 54.7826 30 54.7826C45.8217 54.7826 58.6957 41.9087 58.6957 26.087C58.6957 25.7283 58.9891 25.4348 59.3478 25.4348C59.7065 25.4348 60 25.7283 60 26.087C60 42.6326 46.5457 56.087 30 56.087Z" fill="#006697"/>
<path d="M56.0802 26.087C56.0802 40.4935 44.3997 52.1739 29.9932 52.1739C15.5867 52.1739 3.90625 40.4935 3.90625 26.087C3.90625 11.6804 15.5867 0 29.9997 0C44.4128 0 56.0867 11.6804 56.0867 26.087H56.0802Z" fill="#006697"/>
<path d="M29.9946 46.9567C41.5205 46.9567 50.8641 37.613 50.8641 26.0871C50.8641 14.5612 41.5205 5.21753 29.9946 5.21753C18.4686 5.21753 9.125 14.5612 9.125 26.0871C9.125 37.613 18.4686 46.9567 29.9946 46.9567Z" fill="url(#paint0_linear_8458_67647)"/>
<path d="M49.67 33.0458C45.8352 43.8915 33.8808 49.598 23.0352 45.7632C17.4852 43.8002 13.2787 39.7111 11.0156 34.735C13.3569 39.3524 17.4069 43.1154 22.6569 44.9741C33.5026 48.8154 45.4569 43.1089 49.2917 32.2632C51.1504 27.0067 50.7721 21.4958 48.6526 16.7676C51.0982 21.6589 51.633 27.4958 49.67 33.0458Z" fill="white"/>
<path d="M31.0359 36.1042H28.7793C28.1402 36.1042 27.625 35.5824 27.625 34.9498V34.7281C27.625 34.0889 28.1467 33.5737 28.7793 33.5737H31.0359C31.675 33.5737 32.1902 34.0889 32.1902 34.7281V34.9498C32.1902 35.5889 31.675 36.1042 31.0359 36.1042ZM28.7793 34.5585C28.688 34.5585 28.6163 34.6368 28.6163 34.7216V34.9433C28.6163 35.0346 28.688 35.1063 28.7793 35.1063H31.0359C31.1272 35.1063 31.1989 35.0281 31.1989 34.9433V34.7216C31.1989 34.6303 31.1207 34.5585 31.0359 34.5585H28.7793Z" fill="#67666B"/>
<path d="M32.3634 34.5649H27.459C26.8199 34.5649 26.3047 34.0497 26.3047 33.4106V33.0649C26.3047 32.4258 26.8199 31.9041 27.459 31.9041H32.3634C33.0025 31.9041 33.5177 32.4258 33.5177 33.0649V33.4106C33.5177 34.0497 33.0025 34.5649 32.3634 34.5649ZM27.459 32.9019C27.3677 32.9019 27.296 32.9736 27.296 33.0649V33.4106C27.296 33.5019 27.3677 33.5736 27.459 33.5736H32.3634C32.4547 33.5736 32.5264 33.5019 32.5264 33.4106V33.0649C32.5264 32.9736 32.4547 32.9019 32.3634 32.9019H27.459Z" fill="#67666B"/>
<path d="M32.3634 32.8956H27.459C26.8199 32.8956 26.3047 32.3738 26.3047 31.7412V31.3956C26.3047 30.7564 26.8199 30.2412 27.459 30.2412H32.3634C33.0025 30.2412 33.5177 30.763 33.5177 31.3956V31.7412C33.5177 32.3803 33.0025 32.8956 32.3634 32.8956ZM27.459 31.2325C27.3677 31.2325 27.296 31.3043 27.296 31.3956V31.7412C27.296 31.8325 27.3677 31.9043 27.459 31.9043H32.3634C32.4547 31.9043 32.5264 31.8325 32.5264 31.7412V31.3956C32.5264 31.3043 32.4547 31.2325 32.3634 31.2325H27.459Z" fill="#67666B"/>
<path d="M32.3637 31.2325H27.4594C26.8072 31.2325 26.305 30.8151 26.305 30.2738V29.8108C26.305 29.5564 25.9659 28.9956 25.3985 28.4934C23.9442 27.2021 23.1094 25.3499 23.1094 23.4064C23.1094 19.6564 26.1615 16.6042 29.9115 16.6042C33.6615 16.6042 36.7137 19.6564 36.7137 23.4064C36.7137 25.3499 35.8789 27.2021 34.4246 28.4934C33.8572 28.9956 33.5181 29.5564 33.5181 29.8108V30.2738C33.5181 30.8086 33.0094 31.2325 32.3637 31.2325ZM27.2963 30.2086C27.2963 30.2086 27.3876 30.2412 27.4594 30.2412H32.3637C32.442 30.2412 32.4942 30.2216 32.5268 30.2086V29.8173C32.5268 29.1064 33.1659 28.2847 33.7659 27.7564C35.0115 26.6543 35.7224 25.0695 35.7224 23.4129C35.7224 20.2108 33.1137 17.6021 29.9115 17.6021C26.7094 17.6021 24.1007 20.2108 24.1007 23.4129C24.1007 25.0695 24.8115 26.6543 26.0572 27.7564C26.6572 28.2847 27.2963 29.1064 27.2963 29.8173V30.2086Z" fill="#67666B"/>
<path d="M31.5064 31.2324H28.3238C28.0499 31.2324 27.8281 31.0107 27.8281 30.7368V22.9955C27.8281 22.7998 27.939 22.6303 28.1151 22.5455C28.2912 22.4672 28.4933 22.4868 28.6433 22.6107L29.9151 23.6672L31.1868 22.6107C31.3368 22.4868 31.539 22.4607 31.7151 22.5455C31.8912 22.6237 32.002 22.7998 32.002 22.9955V30.7368C32.002 31.0107 31.7803 31.2324 31.5064 31.2324ZM28.8194 30.2411H31.0107V24.0585L30.2346 24.7042C30.052 24.8607 29.7846 24.8607 29.602 24.7042L28.826 24.0585V30.2411H28.8194Z" fill="#67666B"/>
<path d="M29.9949 67.1739C32.5162 67.1739 34.5601 65.13 34.5601 62.6087C34.5601 60.0874 32.5162 58.0435 29.9949 58.0435C27.4736 58.0435 25.4297 60.0874 25.4297 62.6087C25.4297 65.13 27.4736 67.1739 29.9949 67.1739Z" fill="#006697"/>
<g style="mix-blend-mode:multiply">
<path d="M30.2921 66.2346C32.093 66.2346 33.553 64.7747 33.553 62.9738C33.553 61.1728 32.093 59.7129 30.2921 59.7129C28.4912 59.7129 27.0312 61.1728 27.0312 62.9738C27.0312 64.7747 28.4912 66.2346 30.2921 66.2346Z" fill="#D1D3D4"/>
</g>
<path d="M29.9952 65.8694C31.7962 65.8694 33.2561 64.4095 33.2561 62.6085C33.2561 60.8076 31.7962 59.3477 29.9952 59.3477C28.1943 59.3477 26.7344 60.8076 26.7344 62.6085C26.7344 64.4095 28.1943 65.8694 29.9952 65.8694Z" fill="url(#paint1_linear_8458_67647)"/>
<defs>
<linearGradient id="paint0_linear_8458_67647" x1="4.29239" y1="24.5675" x2="48.6598" y2="27.1958" gradientUnits="userSpaceOnUse">
<stop stop-color="white"/>
<stop offset="0.32" stop-color="#FBFBFB"/>
<stop offset="0.64" stop-color="#EEEEEE"/>
<stop offset="0.96" stop-color="#DBDBDB"/>
<stop offset="0.99" stop-color="#D8D8D8"/>
</linearGradient>
<linearGradient id="paint1_linear_8458_67647" x1="26.7344" y1="62.6085" x2="33.2561" y2="62.6085" gradientUnits="userSpaceOnUse">
<stop stop-color="white"/>
<stop offset="0.32" stop-color="#FBFBFB"/>
<stop offset="0.64" stop-color="#EEEEEE"/>
<stop offset="0.96" stop-color="#DBDBDB"/>
<stop offset="0.99" stop-color="#D8D8D8"/>
</linearGradient>
</defs>
</svg>
