<svg width="1073" height="151" viewBox="0 0 1073 151" fill="none" xmlns="http://www.w3.org/2000/svg">
<path d="M956.98 73.13V60H954.98V73.13H745.83H744.69H539.79V60H537.79V73.13H331.5H130.45H126.45V60H124.45V73.13H0V75.13H124.45H130.45H331.5V88.25H333.5V75.13H538.64H539.79H743.83V88.25H745.83V75.13H956.98H1072.02V73.13H956.98Z" fill="#91959B"/>
<path d="M125 56.087C108.454 56.087 95 42.6261 95 26.087C95 25.7283 95.2935 25.4348 95.6522 25.4348C96.0109 25.4348 96.3043 25.7283 96.3043 26.087C96.3043 41.9087 109.178 54.7826 125 54.7826C140.822 54.7826 153.696 41.9087 153.696 26.087C153.696 25.7283 153.989 25.4348 154.348 25.4348C154.707 25.4348 155 25.7283 155 26.087C155 42.6326 141.546 56.087 125 56.087Z" fill="#006697"/>
<path d="M151.08 26.087C151.08 40.4935 139.4 52.1739 124.993 52.1739C110.587 52.1739 98.9062 40.4935 98.9062 26.087C98.9062 11.6804 110.587 0 125 0C139.413 0 151.087 11.6804 151.087 26.087H151.08Z" fill="#006697"/>
<path d="M124.995 46.9567C136.521 46.9567 145.864 37.613 145.864 26.0871C145.864 14.5612 136.521 5.21753 124.995 5.21753C113.469 5.21753 104.125 14.5612 104.125 26.0871C104.125 37.613 113.469 46.9567 124.995 46.9567Z" fill="url(#paint0_linear_8339_67220)"/>
<path d="M144.67 33.0458C140.835 43.8915 128.881 49.598 118.035 45.7632C112.485 43.8002 108.279 39.7111 106.016 34.735C108.357 39.3524 112.407 43.1154 117.657 44.9741C128.503 48.8154 140.457 43.1089 144.292 32.2632C146.15 27.0067 145.772 21.4958 143.653 16.7676C146.098 21.6589 146.633 27.4958 144.67 33.0458Z" fill="white"/>
<path d="M126.036 36.1042H123.779C123.14 36.1042 122.625 35.5824 122.625 34.9498V34.7281C122.625 34.0889 123.147 33.5737 123.779 33.5737H126.036C126.675 33.5737 127.19 34.0889 127.19 34.7281V34.9498C127.19 35.5889 126.675 36.1042 126.036 36.1042ZM123.779 34.5585C123.688 34.5585 123.616 34.6368 123.616 34.7216V34.9433C123.616 35.0346 123.688 35.1063 123.779 35.1063H126.036C126.127 35.1063 126.199 35.0281 126.199 34.9433V34.7216C126.199 34.6303 126.121 34.5585 126.036 34.5585H123.779Z" fill="#67666B"/>
<path d="M127.363 34.5649H122.459C121.82 34.5649 121.305 34.0497 121.305 33.4106V33.0649C121.305 32.4258 121.82 31.9041 122.459 31.9041H127.363C128.003 31.9041 128.518 32.4258 128.518 33.0649V33.4106C128.518 34.0497 128.003 34.5649 127.363 34.5649ZM122.459 32.9019C122.368 32.9019 122.296 32.9736 122.296 33.0649V33.4106C122.296 33.5019 122.368 33.5736 122.459 33.5736H127.363C127.455 33.5736 127.526 33.5019 127.526 33.4106V33.0649C127.526 32.9736 127.455 32.9019 127.363 32.9019H122.459Z" fill="#67666B"/>
<path d="M127.363 32.8956H122.459C121.82 32.8956 121.305 32.3738 121.305 31.7412V31.3956C121.305 30.7564 121.82 30.2412 122.459 30.2412H127.363C128.003 30.2412 128.518 30.763 128.518 31.3956V31.7412C128.518 32.3803 128.003 32.8956 127.363 32.8956ZM122.459 31.2325C122.368 31.2325 122.296 31.3043 122.296 31.3956V31.7412C122.296 31.8325 122.368 31.9043 122.459 31.9043H127.363C127.455 31.9043 127.526 31.8325 127.526 31.7412V31.3956C127.526 31.3043 127.455 31.2325 127.363 31.2325H122.459Z" fill="#67666B"/>
<path d="M127.364 31.2325H122.459C121.807 31.2325 121.305 30.8151 121.305 30.2738V29.8108C121.305 29.5564 120.966 28.9956 120.399 28.4934C118.944 27.2021 118.109 25.3499 118.109 23.4064C118.109 19.6564 121.162 16.6042 124.912 16.6042C128.662 16.6042 131.714 19.6564 131.714 23.4064C131.714 25.3499 130.879 27.2021 129.425 28.4934C128.857 28.9956 128.518 29.5564 128.518 29.8108V30.2738C128.518 30.8086 128.009 31.2325 127.364 31.2325ZM122.296 30.2086C122.296 30.2086 122.388 30.2412 122.459 30.2412H127.364C127.442 30.2412 127.494 30.2216 127.527 30.2086V29.8173C127.527 29.1064 128.166 28.2847 128.766 27.7564C130.012 26.6543 130.722 25.0695 130.722 23.4129C130.722 20.2108 128.114 17.6021 124.912 17.6021C121.709 17.6021 119.101 20.2108 119.101 23.4129C119.101 25.0695 119.812 26.6543 121.057 27.7564C121.657 28.2847 122.296 29.1064 122.296 29.8173V30.2086Z" fill="#67666B"/>
<path d="M126.506 31.2324H123.324C123.05 31.2324 122.828 31.0107 122.828 30.7368V22.9955C122.828 22.7998 122.939 22.6303 123.115 22.5455C123.291 22.4672 123.493 22.4868 123.643 22.6107L124.915 23.6672L126.187 22.6107C126.337 22.4868 126.539 22.4607 126.715 22.5455C126.891 22.6237 127.002 22.7998 127.002 22.9955V30.7368C127.002 31.0107 126.78 31.2324 126.506 31.2324ZM123.819 30.2411H126.011V24.0585L125.235 24.7042C125.052 24.8607 124.785 24.8607 124.602 24.7042L123.826 24.0585V30.2411H123.819Z" fill="#67666B"/>
<path d="M124.995 67.1739C127.516 67.1739 129.56 65.13 129.56 62.6087C129.56 60.0874 127.516 58.0435 124.995 58.0435C122.474 58.0435 120.43 60.0874 120.43 62.6087C120.43 65.13 122.474 67.1739 124.995 67.1739Z" fill="#006697"/>
<g style="mix-blend-mode:multiply">
<path d="M125.292 66.2346C127.093 66.2346 128.553 64.7747 128.553 62.9738C128.553 61.1728 127.093 59.7129 125.292 59.7129C123.491 59.7129 122.031 61.1728 122.031 62.9738C122.031 64.7747 123.491 66.2346 125.292 66.2346Z" fill="#D1D3D4"/>
</g>
<path d="M124.995 65.8694C126.796 65.8694 128.256 64.4095 128.256 62.6085C128.256 60.8076 126.796 59.3477 124.995 59.3477C123.194 59.3477 121.734 60.8076 121.734 62.6085C121.734 64.4095 123.194 65.8694 124.995 65.8694Z" fill="url(#paint1_linear_8339_67220)"/>
<path d="M359.08 123.998C359.08 138.405 347.4 150.085 332.993 150.085C318.587 150.085 306.906 138.405 306.906 123.998C306.906 109.592 318.587 97.9111 332.993 97.9111C347.4 97.9111 359.08 109.592 359.08 123.998Z" fill="#006697"/>
<g style="mix-blend-mode:multiply">
<path d="M333.06 144.998C321.516 144.998 312.125 135.607 312.125 124.063C312.125 112.52 321.516 103.129 333.06 103.129C344.603 103.129 353.995 112.52 353.995 124.063C353.995 135.607 344.603 144.998 333.06 144.998Z" fill="#939598"/>
</g>
<path d="M332.995 144.868C321.49 144.868 312.125 135.503 312.125 123.998C312.125 112.494 321.484 103.129 332.995 103.129C344.505 103.129 353.864 112.494 353.864 123.998C353.864 135.503 344.505 144.868 332.995 144.868Z" fill="url(#paint2_linear_8339_67220)"/>
<path d="M352.67 130.957C348.835 141.809 336.881 147.509 326.035 143.668C320.485 141.705 316.279 137.616 314.016 132.639C316.357 137.257 320.407 141.02 325.657 142.879C336.503 146.713 348.457 141.013 352.292 130.161C354.15 124.905 353.772 119.394 351.653 114.666C354.098 119.557 354.633 125.394 352.67 130.95V130.957Z" fill="white"/>
<path d="M330.429 128.198C328.421 128.198 326.536 127.337 325.251 125.837C322.792 122.967 323.197 118.578 326.138 116.061C327.429 114.952 329.073 114.346 330.755 114.346C332.764 114.346 334.649 115.207 335.927 116.707C338.138 119.296 338.06 123.202 335.745 125.798C335.549 126.033 335.314 126.261 335.047 126.489C334.779 126.717 334.518 126.913 334.251 127.076C333.11 127.813 331.786 128.204 330.429 128.204V128.198ZM330.762 115.337C329.314 115.337 327.899 115.859 326.784 116.817C324.253 118.976 323.908 122.739 326.008 125.198C327.103 126.483 328.714 127.213 330.429 127.213C331.597 127.213 332.738 126.874 333.723 126.241C333.958 126.098 334.173 125.935 334.408 125.739C334.636 125.544 334.831 125.348 335.001 125.152C336.997 122.915 337.068 119.57 335.177 117.359C334.081 116.08 332.471 115.344 330.755 115.344L330.762 115.337Z" fill="#67666B"/>
<path d="M337.81 132.743C337.471 132.743 337.152 132.593 336.93 132.339L334.354 129.326C333.943 128.843 333.995 128.106 334.484 127.696L336.35 126.104C336.813 125.706 337.582 125.765 337.98 126.235L340.556 129.248C340.967 129.73 340.915 130.461 340.426 130.878L338.56 132.469C338.352 132.646 338.084 132.75 337.81 132.75V132.743ZM337.093 126.815C337.093 126.815 337.028 126.815 336.989 126.854L335.123 128.446C335.052 128.504 335.045 128.609 335.104 128.68L337.68 131.693C337.765 131.791 337.836 131.778 337.915 131.713L339.78 130.122C339.852 130.063 339.858 129.959 339.8 129.887L337.223 126.874C337.184 126.822 337.126 126.815 337.1 126.815H337.093Z" fill="#67666B"/>
<path d="M334.976 128.57L333.234 126.528L333.73 126.228C333.952 126.091 334.174 125.928 334.402 125.733C334.63 125.537 334.826 125.341 334.995 125.146L335.374 124.709L337.115 126.75L334.976 128.583V128.57ZM334.721 126.744L335.087 127.167L335.719 126.626L335.354 126.202C335.256 126.294 335.152 126.391 335.047 126.483C334.937 126.574 334.832 126.665 334.721 126.744Z" fill="#67666B"/>
<path d="M362.348 124.65C361.989 124.65 361.696 124.357 361.696 123.998C361.696 108.177 348.822 95.3026 333 95.3026C317.178 95.3026 304.304 108.177 304.304 123.998C304.304 124.357 304.011 124.65 303.652 124.65C303.293 124.65 303 124.357 303 123.998C303 107.459 316.454 93.9983 333 93.9983C349.546 93.9983 363 107.453 363 123.998C363 124.357 362.707 124.65 362.348 124.65Z" fill="#006697"/>
<path d="M333.003 90.4505C335.524 90.4505 337.568 88.4066 337.568 85.8853C337.568 83.364 335.524 81.3201 333.003 81.3201C330.481 81.3201 328.438 83.364 328.438 85.8853C328.438 88.4066 330.481 90.4505 333.003 90.4505Z" fill="#006697"/>
<g style="mix-blend-mode:multiply">
<path d="M333.308 89.5178C335.109 89.5178 336.569 88.0579 336.569 86.257C336.569 84.456 335.109 82.9961 333.308 82.9961C331.507 82.9961 330.047 84.456 330.047 86.257C330.047 88.0579 331.507 89.5178 333.308 89.5178Z" fill="#D1D3D4"/>
</g>
<path d="M333.003 89.1463C334.804 89.1463 336.264 87.6863 336.264 85.8854C336.264 84.0845 334.804 82.6245 333.003 82.6245C331.202 82.6245 329.742 84.0845 329.742 85.8854C329.742 87.6863 331.202 89.1463 333.003 89.1463Z" fill="url(#paint3_linear_8339_67220)"/>
<path d="M565.08 26.087C565.08 40.4935 553.4 52.1739 538.993 52.1739C524.587 52.1739 512.906 40.4935 512.906 26.087C512.906 11.6804 524.587 0 538.993 0C553.4 0 565.08 11.6804 565.08 26.087Z" fill="#006697"/>
<g style="mix-blend-mode:multiply">
<path d="M539.06 47.0871C527.516 47.0871 518.125 37.6958 518.125 26.1523C518.125 14.6088 527.516 5.21753 539.06 5.21753C550.603 5.21753 559.995 14.6088 559.995 26.1523C559.995 37.6958 550.603 47.0871 539.06 47.0871Z" fill="#939598"/>
</g>
<path d="M538.995 46.9567C527.49 46.9567 518.125 37.5914 518.125 26.0871C518.125 14.5827 527.484 5.21753 538.995 5.21753C550.505 5.21753 559.864 14.5827 559.864 26.0871C559.864 37.5914 550.505 46.9567 538.995 46.9567Z" fill="url(#paint4_linear_8339_67220)"/>
<path d="M558.67 33.0457C554.835 43.8979 542.881 49.5979 532.035 45.7566C526.485 43.7935 522.279 39.7044 520.016 34.7283C522.357 39.3457 526.407 43.1087 531.663 44.9674C542.509 48.8022 554.463 43.1022 558.298 32.25C560.157 26.9935 559.779 21.4827 557.659 16.7544C560.105 21.6457 560.64 27.4827 558.676 33.0392L558.67 33.0457Z" fill="white"/>
<path d="M544.611 34.8913H532.161C531.522 34.8913 531 34.3695 531 33.7369V33.1043C531 32.4652 531.522 31.95 532.161 31.95H544.611C545.25 31.95 545.765 32.4717 545.765 33.1043V33.7369C545.765 34.376 545.243 34.8913 544.611 34.8913ZM532.161 32.9347C532.07 32.9347 531.998 33.0065 531.998 33.0978V33.7304C531.998 33.8217 532.07 33.8934 532.161 33.8934H544.611C544.702 33.8934 544.774 33.8217 544.774 33.7304V33.0978C544.774 33.0065 544.702 32.9347 544.611 32.9347H532.161Z" fill="#67666B"/>
<path d="M543.347 30.8478L542.356 30.8282C542.356 30.8282 542.376 29.9935 542.356 29.3217C542.356 29.1261 542.16 28.8 541.971 28.6435C540.941 27.8152 539.18 26.0739 539.017 23.7261C538.997 23.4522 539.206 23.2174 539.48 23.1978C539.747 23.1782 539.989 23.3869 540.008 23.6543C540.152 25.7022 541.867 27.2804 542.597 27.8674C542.963 28.1608 543.341 28.7478 543.354 29.2956C543.373 29.9869 543.354 30.8478 543.354 30.8478H543.347Z" fill="#67666B"/>
<path d="M543.349 32.7522H533.436C532.796 32.7522 532.281 32.2305 532.281 31.5979V31.5001C532.281 30.8609 532.796 30.3457 533.436 30.3457H543.349C543.988 30.3457 544.503 30.8674 544.503 31.5001V31.5979C544.503 32.237 543.988 32.7522 543.349 32.7522ZM533.436 31.3305C533.344 31.3305 533.273 31.4022 533.273 31.4935V31.5914C533.273 31.6827 533.344 31.7544 533.436 31.7544H543.349C543.44 31.7544 543.512 31.6827 543.512 31.5914V31.4935C543.512 31.4022 543.44 31.3305 543.349 31.3305H533.436Z" fill="#67666B"/>
<path d="M534.136 31.3304C533.869 31.3304 533.647 31.1151 533.641 30.8412L533.608 29.0412C533.608 28.7934 533.445 28.3891 533.282 28.2065L532.858 27.7304C532.538 27.3717 532.251 26.7651 532.199 26.3151C531.925 24.1238 531.645 18.7825 534.971 16.5847C538.16 14.4782 541.493 15.6456 542.777 16.2456C543.345 16.5065 543.599 17.2238 543.332 17.8108L543.11 18.2999C543.038 18.4565 543.084 18.7304 543.195 18.8608C543.743 19.4804 544.525 20.3999 545.164 21.2347C545.575 21.7695 545.673 22.4021 545.451 23.0738C545.119 24.0717 544.134 24.926 543.599 25.0825C542.914 25.2912 542.282 24.4891 542.073 24.2282C541.949 24.0717 541.682 23.9608 541.499 23.9804C539.673 24.2478 538.336 24.0065 537.521 23.2565C536.706 22.513 536.745 21.5478 536.745 21.5086C536.758 21.2347 536.986 21.0325 537.267 21.0391C537.541 21.0521 537.749 21.2869 537.736 21.5608C537.736 21.5804 537.723 22.1151 538.199 22.5391C538.78 23.0543 539.875 23.2173 541.356 23.0021C541.877 22.9304 542.504 23.1847 542.849 23.6086C543.13 23.9673 543.299 24.0782 543.364 24.1108C543.619 23.9869 544.304 23.413 544.519 22.7412C544.63 22.3956 544.584 22.1086 544.382 21.8347C543.73 20.9804 542.895 20.0151 542.458 19.513C542.086 19.0891 541.982 18.3912 542.217 17.8825L542.438 17.3934C542.477 17.3021 542.445 17.1782 542.367 17.1456C541.232 16.6173 538.291 15.5869 535.519 17.413C532.577 19.3565 532.988 24.626 533.184 26.1912C533.217 26.4391 533.412 26.863 533.601 27.0651L534.025 27.5412C534.345 27.8999 534.593 28.5325 534.606 29.0151L534.638 30.8151C534.638 31.0891 534.423 31.3173 534.149 31.3173H534.136V31.3304Z" fill="#67666B"/>
<path d="M539 56.087C522.454 56.087 509 42.6261 509 26.087C509 25.7283 509.293 25.4348 509.652 25.4348C510.011 25.4348 510.304 25.7283 510.304 26.087C510.304 41.9087 523.178 54.7826 539 54.7826C554.822 54.7826 567.696 41.9087 567.696 26.087C567.696 25.7283 567.989 25.4348 568.348 25.4348C568.707 25.4348 569 25.7283 569 26.087C569 42.6326 555.546 56.087 539 56.087Z" fill="#006697"/>
<path d="M539.003 67.1739C541.524 67.1739 543.568 65.13 543.568 62.6087C543.568 60.0874 541.524 58.0435 539.003 58.0435C536.481 58.0435 534.438 60.0874 534.438 62.6087C534.438 65.13 536.481 67.1739 539.003 67.1739Z" fill="#006697"/>
<g style="mix-blend-mode:multiply">
<path d="M539.292 66.2349C541.093 66.2349 542.553 64.7749 542.553 62.974C542.553 61.1731 541.093 59.7131 539.292 59.7131C537.491 59.7131 536.031 61.1731 536.031 62.974C536.031 64.7749 537.491 66.2349 539.292 66.2349Z" fill="#D1D3D4"/>
</g>
<path d="M539.003 65.8696C540.804 65.8696 542.264 64.4097 542.264 62.6088C542.264 60.8078 540.804 59.3479 539.003 59.3479C537.202 59.3479 535.742 60.8078 535.742 62.6088C535.742 64.4097 537.202 65.8696 539.003 65.8696Z" fill="url(#paint5_linear_8339_67220)"/>
<path d="M771.08 123.998C771.08 138.405 759.4 150.085 744.993 150.085C730.587 150.085 718.906 138.405 718.906 123.998C718.906 109.592 730.587 97.9114 744.993 97.9114C759.4 97.9114 771.08 109.592 771.08 123.998Z" fill="#006697"/>
<g style="mix-blend-mode:multiply">
<path d="M745.06 144.998C733.516 144.998 724.125 135.607 724.125 124.064C724.125 112.52 733.516 103.129 745.06 103.129C756.603 103.129 765.995 112.52 765.995 124.064C765.995 135.607 756.603 144.998 745.06 144.998Z" fill="#939598"/>
</g>
<path d="M744.995 144.868C733.49 144.868 724.125 135.503 724.125 123.998C724.125 112.494 733.49 103.129 744.995 103.129C756.499 103.129 765.864 112.494 765.864 123.998C765.864 135.503 756.499 144.868 744.995 144.868Z" fill="url(#paint6_linear_8339_67220)"/>
<path d="M764.67 130.957C760.835 141.803 748.881 147.509 738.035 143.668C732.485 141.705 728.279 137.616 726.016 132.64C728.357 137.257 732.407 141.02 737.663 142.879C748.509 146.714 760.463 141.014 764.298 130.161C766.157 124.905 765.779 119.394 763.659 114.666C766.105 119.557 766.64 125.394 764.677 130.951L764.67 130.957Z" fill="white"/>
<path d="M743.535 131.472C743.411 131.472 743.293 131.427 743.196 131.342L738.48 126.979C738.33 126.842 738.278 126.62 738.356 126.431C738.454 126.196 738.552 125.968 738.663 125.74C739.191 124.592 739.869 123.483 740.665 122.446C740.991 122.016 741.35 121.592 741.754 121.149C744.885 117.77 749 115.807 752.606 115.983C752.848 115.996 753.043 116.179 753.076 116.414C753.526 119.968 751.87 124.266 748.759 127.631C747.304 129.203 745.576 130.514 743.756 131.42C743.685 131.453 743.613 131.472 743.535 131.472ZM739.413 126.483L743.619 130.377C745.224 129.529 746.743 128.349 748.035 126.953C750.826 123.933 752.372 120.151 752.137 116.962C748.902 116.975 745.296 118.788 742.485 121.82C742.1 122.238 741.767 122.636 741.461 123.046C740.704 124.025 740.072 125.075 739.57 126.164C739.517 126.275 739.465 126.379 739.419 126.49L739.413 126.483Z" fill="#67666B"/>
<path d="M742.031 132.229C741.907 132.229 741.79 132.183 741.692 132.099L737.844 128.538C737.746 128.446 737.688 128.323 737.688 128.192C737.688 128.062 737.727 127.931 737.818 127.84L738.887 126.686C738.979 126.588 739.103 126.529 739.233 126.529C739.364 126.529 739.494 126.568 739.585 126.659L743.433 130.22C743.635 130.409 743.648 130.723 743.459 130.918L742.39 132.073C742.292 132.177 742.161 132.229 742.024 132.229H742.031ZM738.881 128.14L742.005 131.029L742.403 130.605L739.279 127.716L738.881 128.146V128.14Z" fill="#67666B"/>
<path d="M740.109 130.449C739.991 130.449 739.867 130.403 739.77 130.318C739.567 130.129 739.554 129.816 739.743 129.62L743.689 125.362C743.878 125.159 744.191 125.146 744.387 125.335C744.589 125.518 744.602 125.838 744.413 126.033L740.467 130.292C740.37 130.396 740.239 130.449 740.102 130.449H740.109Z" fill="#67666B"/>
<path d="M739.11 126.451C738.98 126.451 738.849 126.399 738.758 126.301C738.451 125.988 737.91 125.923 737.506 125.923C736.684 125.923 735.875 126.183 735.869 126.183C735.673 126.249 735.458 126.183 735.327 126.02C735.197 125.857 735.184 125.636 735.288 125.459C736.964 122.675 738.823 122.094 740.082 122.094C740.76 122.094 741.204 122.27 741.249 122.29C741.393 122.349 741.497 122.472 741.536 122.622C741.575 122.772 741.536 122.929 741.445 123.053C740.577 124.175 739.56 126.157 739.547 126.177C739.475 126.32 739.338 126.418 739.182 126.444C739.156 126.444 739.13 126.444 739.104 126.444L739.11 126.451ZM737.506 124.938C738.073 124.938 738.549 125.036 738.934 125.225C739.221 124.696 739.704 123.842 740.206 123.086C739.371 123.053 738.099 123.359 736.821 124.977C737.036 124.951 737.271 124.938 737.506 124.938Z" fill="#67666B"/>
<path d="M744.671 134.499C744.574 134.499 744.476 134.472 744.391 134.414C744.221 134.296 744.137 134.088 744.189 133.885C744.326 133.325 744.547 131.603 743.85 131.016C743.726 130.912 743.66 130.762 743.674 130.599C743.687 130.435 743.771 130.299 743.908 130.214C743.928 130.201 745.806 129.053 746.882 128.081C747 127.977 747.15 127.931 747.306 127.964C747.456 127.99 747.587 128.088 747.658 128.225C747.724 128.355 749.217 131.368 744.958 134.414C744.874 134.479 744.769 134.505 744.671 134.505V134.499ZM744.913 130.755C745.284 131.375 745.356 132.17 745.324 132.835C746.889 131.381 747.039 130.07 746.947 129.32C746.23 129.888 745.415 130.429 744.913 130.755Z" fill="#67666B"/>
<path d="M747.558 124.383C746.932 124.383 746.332 124.148 745.876 123.725C745.387 123.275 745.106 122.662 745.08 122.003C745.054 121.344 745.289 120.712 745.739 120.222C746.208 119.72 746.867 119.427 747.558 119.427C748.184 119.427 748.778 119.662 749.241 120.085C750.245 121.012 750.304 122.59 749.378 123.594C748.908 124.096 748.243 124.39 747.558 124.39V124.383ZM747.558 120.418C747.141 120.418 746.75 120.588 746.463 120.894C746.195 121.188 746.052 121.566 746.065 121.964C746.078 122.362 746.247 122.727 746.541 123.001C747.128 123.542 748.106 123.503 748.641 122.922C749.202 122.322 749.163 121.377 748.563 120.816C748.289 120.562 747.93 120.418 747.552 120.418H747.558Z" fill="#67666B"/>
<path d="M736.913 131.257C736.789 131.257 736.672 131.212 736.574 131.127C736.372 130.938 736.359 130.625 736.548 130.429L737.716 129.164C737.905 128.962 738.218 128.949 738.413 129.138C738.616 129.327 738.629 129.64 738.439 129.836L737.272 131.101C737.174 131.205 737.044 131.257 736.907 131.257H736.913Z" fill="#67666B"/>
<path d="M739.452 133.612C739.328 133.612 739.211 133.566 739.113 133.481C738.911 133.292 738.898 132.979 739.087 132.783L740.255 131.518C740.444 131.316 740.757 131.303 740.952 131.492C741.155 131.681 741.168 131.994 740.979 132.19L739.811 133.455C739.713 133.559 739.583 133.612 739.446 133.612H739.452Z" fill="#67666B"/>
<path d="M737.609 133.142C737.485 133.142 737.367 133.103 737.27 133.012C737.067 132.823 737.054 132.51 737.243 132.314L739.03 130.384C739.22 130.181 739.533 130.168 739.728 130.357C739.93 130.547 739.943 130.86 739.754 131.055L737.967 132.986C737.87 133.09 737.733 133.142 737.602 133.142H737.609Z" fill="#67666B"/>
<path d="M774.348 124.65C773.989 124.65 773.696 124.357 773.696 123.998C773.696 108.177 760.822 95.3026 745 95.3026C729.178 95.3026 716.304 108.177 716.304 123.998C716.304 124.357 716.011 124.65 715.652 124.65C715.293 124.65 715 124.357 715 123.998C715 107.459 728.461 93.9983 745 93.9983C761.539 93.9983 775 107.453 775 123.998C775 124.357 774.707 124.65 774.348 124.65Z" fill="#006697"/>
<path d="M745.003 90.4505C747.524 90.4505 749.568 88.4066 749.568 85.8853C749.568 83.364 747.524 81.3201 745.003 81.3201C742.481 81.3201 740.438 83.364 740.438 85.8853C740.438 88.4066 742.481 90.4505 745.003 90.4505Z" fill="#006697"/>
<g style="mix-blend-mode:multiply">
<path d="M745.308 89.5178C747.109 89.5178 748.569 88.0579 748.569 86.257C748.569 84.456 747.109 82.9961 745.308 82.9961C743.507 82.9961 742.047 84.456 742.047 86.257C742.047 88.0579 743.507 89.5178 745.308 89.5178Z" fill="#D1D3D4"/>
</g>
<path d="M745.003 89.1463C746.804 89.1463 748.264 87.6863 748.264 85.8854C748.264 84.0845 746.804 82.6245 745.003 82.6245C743.202 82.6245 741.742 84.0845 741.742 85.8854C741.742 87.6863 743.202 89.1463 745.003 89.1463Z" fill="url(#paint7_linear_8339_67220)"/>
<path d="M982.08 26.087C982.08 40.4935 970.4 52.1739 955.993 52.1739C941.587 52.1739 929.906 40.4935 929.906 26.087C929.906 11.6804 941.587 0 955.993 0C970.4 0 982.08 11.6804 982.08 26.087Z" fill="#006697"/>
<g style="mix-blend-mode:multiply">
<path d="M956.06 47.0871C944.516 47.0871 935.125 37.6958 935.125 26.1523C935.125 14.6088 944.516 5.21753 956.06 5.21753C967.603 5.21753 976.995 14.6088 976.995 26.1523C976.995 37.6958 967.603 47.0871 956.06 47.0871Z" fill="#939598"/>
</g>
<path d="M955.995 46.9567C944.49 46.9567 935.125 37.5914 935.125 26.0871C935.125 14.5827 944.484 5.21753 955.995 5.21753C967.505 5.21753 976.864 14.5827 976.864 26.0871C976.864 37.5914 967.505 46.9567 955.995 46.9567Z" fill="url(#paint8_linear_8339_67220)"/>
<path d="M975.67 33.0457C971.835 43.8913 959.881 49.5979 949.035 45.7566C943.485 43.7935 939.279 39.7044 937.016 34.7283C939.357 39.3457 943.407 43.1087 948.657 44.9674C959.503 48.8022 971.457 43.1022 975.292 32.25C977.15 26.9935 976.772 21.4827 974.653 16.7544C977.098 21.6457 977.633 27.4827 975.67 33.0392V33.0457Z" fill="white"/>
<path d="M965.036 33.2023H946.527C946.253 33.2023 946.031 32.9805 946.031 32.7066V18.1631C946.031 17.8892 946.253 17.6675 946.527 17.6675C946.801 17.6675 947.023 17.8892 947.023 18.1631V32.211H965.036C965.31 32.211 965.531 32.4327 965.531 32.7066C965.531 32.9805 965.31 33.2023 965.036 33.2023Z" fill="#67666B"/>
<path d="M951.818 33.2024H948.238C947.964 33.2024 947.742 32.9806 947.742 32.7067V27.1958C947.742 26.9219 947.964 26.7002 948.238 26.7002H951.818C952.092 26.7002 952.314 26.9219 952.314 27.1958V32.7067C952.314 32.9806 952.092 33.2024 951.818 33.2024ZM948.733 32.2111H951.323V27.6915H948.733V32.2111Z" fill="#67666B"/>
<path d="M957.576 33.2024H953.996C953.722 33.2024 953.5 32.9807 953.5 32.7068V24.222C953.5 23.9481 953.722 23.7263 953.996 23.7263H957.576C957.85 23.7263 958.072 23.9481 958.072 24.222V32.7068C958.072 32.9807 957.85 33.2024 957.576 33.2024ZM954.491 32.2111H957.08V24.7176H954.491V32.2111Z" fill="#67666B"/>
<path d="M963.334 33.2022H959.753C959.48 33.2022 959.258 32.9805 959.258 32.7066V19.8196C959.258 19.5457 959.48 19.324 959.753 19.324H963.334C963.608 19.324 963.83 19.5457 963.83 19.8196V32.7066C963.83 32.9805 963.608 33.2022 963.334 33.2022ZM960.249 32.2109H962.838V20.3153H960.249V32.2109Z" fill="#67666B"/>
<path d="M956 56.087C939.454 56.087 926 42.6261 926 26.087C926 25.7283 926.293 25.4348 926.652 25.4348C927.011 25.4348 927.304 25.7283 927.304 26.087C927.304 41.9087 940.178 54.7826 956 54.7826C971.822 54.7826 984.696 41.9087 984.696 26.087C984.696 25.7283 984.989 25.4348 985.348 25.4348C985.707 25.4348 986 25.7283 986 26.087C986 42.6326 972.539 56.087 956 56.087Z" fill="#006697"/>
<path d="M956.003 67.1739C958.524 67.1739 960.568 65.13 960.568 62.6087C960.568 60.0874 958.524 58.0435 956.003 58.0435C953.481 58.0435 951.438 60.0874 951.438 62.6087C951.438 65.13 953.481 67.1739 956.003 67.1739Z" fill="#006697"/>
<g style="mix-blend-mode:multiply">
<path d="M956.308 66.2349C958.109 66.2349 959.569 64.7749 959.569 62.974C959.569 61.1731 958.109 59.7131 956.308 59.7131C954.507 59.7131 953.047 61.1731 953.047 62.974C953.047 64.7749 954.507 66.2349 956.308 66.2349Z" fill="#D1D3D4"/>
</g>
<path d="M956.003 65.8696C957.804 65.8696 959.264 64.4097 959.264 62.6088C959.264 60.8078 957.804 59.3479 956.003 59.3479C954.202 59.3479 952.742 60.8078 952.742 62.6088C952.742 64.4097 954.202 65.8696 956.003 65.8696Z" fill="url(#paint9_linear_8339_67220)"/>
<path d="M92.1101 90.8906C92.1101 91.5677 91.9434 92.151 91.6101 92.6406C91.2819 93.1302 90.808 93.5052 90.1882 93.7656C89.5736 94.026 88.8392 94.1562 87.9851 94.1562C87.5684 94.1562 87.17 94.1328 86.7897 94.0859C86.4095 94.0391 86.0502 93.9714 85.7116 93.8828C85.3783 93.7891 85.0736 93.6771 84.7976 93.5469V91.7812C85.2611 91.9844 85.7793 92.1693 86.3522 92.3359C86.9252 92.4974 87.5085 92.5781 88.1022 92.5781C88.5866 92.5781 88.9877 92.5156 89.3054 92.3906C89.6283 92.2604 89.8679 92.0781 90.0241 91.8438C90.1804 91.6042 90.2585 91.3255 90.2585 91.0078C90.2585 90.6693 90.1674 90.3828 89.9851 90.1484C89.8028 89.9141 89.5267 89.7005 89.1569 89.5078C88.7924 89.3099 88.334 89.099 87.7819 88.875C87.4069 88.724 87.0476 88.5521 86.7038 88.3594C86.3653 88.1667 86.0632 87.9401 85.7976 87.6797C85.5319 87.4193 85.321 87.112 85.1647 86.7578C85.0137 86.3984 84.9382 85.9766 84.9382 85.4922C84.9382 84.8464 85.0918 84.2943 85.3991 83.8359C85.7116 83.3776 86.1491 83.026 86.7116 82.7812C87.2793 82.5365 87.9408 82.4141 88.696 82.4141C89.295 82.4141 89.8575 82.4766 90.3835 82.6016C90.9147 82.7266 91.4356 82.9036 91.946 83.1328L91.3522 84.6406C90.8835 84.4479 90.4278 84.2943 89.9851 84.1797C89.5476 84.0651 89.0996 84.0078 88.6413 84.0078C88.2455 84.0078 87.9095 84.0677 87.6335 84.1875C87.3575 84.3073 87.1465 84.4766 87.0007 84.6953C86.8601 84.9089 86.7897 85.1641 86.7897 85.4609C86.7897 85.7943 86.8705 86.0755 87.0319 86.3047C87.1986 86.5286 87.4538 86.7344 87.7976 86.9219C88.1465 87.1094 88.5944 87.3177 89.1413 87.5469C89.7715 87.8073 90.3054 88.0807 90.7429 88.3672C91.1856 88.6536 91.5241 88.9974 91.7585 89.3984C91.9929 89.7943 92.1101 90.2917 92.1101 90.8906ZM97.8564 92.6719C98.096 92.6719 98.333 92.651 98.5674 92.6094C98.8017 92.5625 99.0153 92.5078 99.208 92.4453V93.8359C99.0049 93.9245 98.7419 94 98.4189 94.0625C98.096 94.125 97.7601 94.1562 97.4111 94.1562C96.9215 94.1562 96.4814 94.0755 96.0908 93.9141C95.7002 93.7474 95.3903 93.4635 95.1611 93.0625C94.932 92.6615 94.8174 92.1068 94.8174 91.3984V86.75H93.6377V85.9297L94.9033 85.2812L95.5049 83.4297H96.6611V85.3516H99.1377V86.75H96.6611V91.375C96.6611 91.8125 96.7705 92.138 96.9892 92.3516C97.208 92.5651 97.4971 92.6719 97.8564 92.6719ZM104.868 85.1875C105.962 85.1875 106.788 85.4297 107.345 85.9141C107.907 86.3984 108.189 87.1536 108.189 88.1797V94H106.884L106.532 92.7734H106.47C106.225 93.0859 105.973 93.3438 105.712 93.5469C105.452 93.75 105.15 93.901 104.806 94C104.467 94.1042 104.053 94.1562 103.564 94.1562C103.048 94.1562 102.587 94.0625 102.181 93.875C101.775 93.6823 101.454 93.3906 101.22 93C100.986 92.6094 100.868 92.1146 100.868 91.5156C100.868 90.625 101.199 89.9557 101.861 89.5078C102.527 89.0599 103.532 88.8125 104.876 88.7656L106.376 88.7109V88.2578C106.376 87.6589 106.236 87.2318 105.954 86.9766C105.678 86.7214 105.288 86.5938 104.782 86.5938C104.35 86.5938 103.931 86.6562 103.525 86.7812C103.118 86.9062 102.723 87.0599 102.337 87.2422L101.743 85.9453C102.165 85.7214 102.644 85.5391 103.181 85.3984C103.723 85.2578 104.285 85.1875 104.868 85.1875ZM106.368 89.8672L105.251 89.9062C104.335 89.9375 103.691 90.0938 103.322 90.375C102.952 90.6562 102.767 91.0417 102.767 91.5312C102.767 91.9583 102.894 92.2708 103.15 92.4688C103.405 92.6615 103.741 92.7578 104.157 92.7578C104.793 92.7578 105.319 92.5781 105.736 92.2188C106.157 91.8542 106.368 91.3203 106.368 90.6172V89.8672ZM115.654 85.1875C115.8 85.1875 115.959 85.1953 116.13 85.2109C116.302 85.2266 116.451 85.2474 116.576 85.2734L116.404 86.9922C116.294 86.9609 116.159 86.9375 115.998 86.9219C115.841 86.9062 115.701 86.8984 115.576 86.8984C115.248 86.8984 114.935 86.9531 114.638 87.0625C114.341 87.1667 114.078 87.3281 113.849 87.5469C113.62 87.7604 113.44 88.0286 113.31 88.3516C113.18 88.6745 113.115 89.0495 113.115 89.4766V94H111.271V85.3516H112.709L112.959 86.875H113.044C113.216 86.5677 113.43 86.2865 113.685 86.0312C113.94 85.776 114.232 85.5729 114.56 85.4219C114.893 85.2656 115.258 85.1875 115.654 85.1875ZM121.908 92.6719C122.148 92.6719 122.385 92.651 122.619 92.6094C122.853 92.5625 123.067 92.5078 123.26 92.4453V93.8359C123.056 93.9245 122.793 94 122.471 94.0625C122.148 94.125 121.812 94.1562 121.463 94.1562C120.973 94.1562 120.533 94.0755 120.142 93.9141C119.752 93.7474 119.442 93.4635 119.213 93.0625C118.984 92.6615 118.869 92.1068 118.869 91.3984V86.75H117.689V85.9297L118.955 85.2812L119.556 83.4297H120.713V85.3516H123.189V86.75H120.713V91.375C120.713 91.8125 120.822 92.138 121.041 92.3516C121.26 92.5651 121.549 92.6719 121.908 92.6719ZM139.659 88.1797C139.659 89.4661 139.419 90.5417 138.94 91.4062C138.461 92.2656 137.765 92.9141 136.854 93.3516C135.942 93.7839 134.844 94 133.557 94H130.385V82.5781H133.901C135.083 82.5781 136.104 82.7917 136.963 83.2188C137.823 83.6406 138.487 84.2682 138.955 85.1016C139.424 85.9297 139.659 86.9557 139.659 88.1797ZM137.705 88.2344C137.705 87.2969 137.557 86.526 137.26 85.9219C136.969 85.3177 136.536 84.8698 135.963 84.5781C135.396 84.2812 134.695 84.1328 133.862 84.1328H132.26V92.4297H133.588C134.969 92.4297 136 92.0781 136.682 91.375C137.364 90.6719 137.705 89.625 137.705 88.2344ZM145.835 85.1875C146.928 85.1875 147.754 85.4297 148.311 85.9141C148.874 86.3984 149.155 87.1536 149.155 88.1797V94H147.85L147.499 92.7734H147.436C147.191 93.0859 146.939 93.3438 146.678 93.5469C146.418 93.75 146.116 93.901 145.772 94C145.434 94.1042 145.02 94.1562 144.53 94.1562C144.014 94.1562 143.553 94.0625 143.147 93.875C142.741 93.6823 142.421 93.3906 142.186 93C141.952 92.6094 141.835 92.1146 141.835 91.5156C141.835 90.625 142.165 89.9557 142.827 89.5078C143.494 89.0599 144.499 88.8125 145.842 88.7656L147.342 88.7109V88.2578C147.342 87.6589 147.202 87.2318 146.921 86.9766C146.645 86.7214 146.254 86.5938 145.749 86.5938C145.316 86.5938 144.897 86.6562 144.491 86.7812C144.085 86.9062 143.689 87.0599 143.303 87.2422L142.71 85.9453C143.132 85.7214 143.611 85.5391 144.147 85.3984C144.689 85.2578 145.251 85.1875 145.835 85.1875ZM147.335 89.8672L146.217 89.9062C145.301 89.9375 144.658 90.0938 144.288 90.375C143.918 90.6562 143.733 91.0417 143.733 91.5312C143.733 91.9583 143.861 92.2708 144.116 92.4688C144.371 92.6615 144.707 92.7578 145.124 92.7578C145.759 92.7578 146.285 92.5781 146.702 92.2188C147.124 91.8542 147.335 91.3203 147.335 90.6172V89.8672ZM155.456 92.6719C155.696 92.6719 155.933 92.651 156.167 92.6094C156.401 92.5625 156.615 92.5078 156.808 92.4453V93.8359C156.604 93.9245 156.341 94 156.019 94.0625C155.696 94.125 155.36 94.1562 155.011 94.1562C154.521 94.1562 154.081 94.0755 153.69 93.9141C153.3 93.7474 152.99 93.4635 152.761 93.0625C152.532 92.6615 152.417 92.1068 152.417 91.3984V86.75H151.237V85.9297L152.503 85.2812L153.104 83.4297H154.261V85.3516H156.737V86.75H154.261V91.375C154.261 91.8125 154.37 92.138 154.589 92.3516C154.808 92.5651 155.097 92.6719 155.456 92.6719ZM162.523 85.1875C163.294 85.1875 163.955 85.3464 164.507 85.6641C165.059 85.9818 165.484 86.4323 165.781 87.0156C166.077 87.599 166.226 88.2969 166.226 89.1094V90.0938H160.452C160.473 90.9323 160.697 91.5781 161.124 92.0312C161.557 92.4844 162.161 92.7109 162.937 92.7109C163.489 92.7109 163.984 92.6589 164.421 92.5547C164.864 92.4453 165.32 92.2865 165.788 92.0781V93.5703C165.356 93.7734 164.916 93.9219 164.468 94.0156C164.02 94.1094 163.484 94.1562 162.859 94.1562C162.01 94.1562 161.262 93.9922 160.617 93.6641C159.976 93.3307 159.473 92.8359 159.109 92.1797C158.749 91.5234 158.57 90.7083 158.57 89.7344C158.57 88.7656 158.734 87.9427 159.062 87.2656C159.39 86.5885 159.851 86.0729 160.445 85.7188C161.038 85.3646 161.731 85.1875 162.523 85.1875ZM162.523 86.5703C161.945 86.5703 161.476 86.7578 161.117 87.1328C160.762 87.5078 160.554 88.0573 160.492 88.7812H164.429C164.424 88.349 164.351 87.9661 164.21 87.6328C164.075 87.2995 163.867 87.0391 163.585 86.8516C163.309 86.6641 162.955 86.5703 162.523 86.5703Z" fill="#006697"/>
<path d="M282.834 52.5781C284.308 52.5781 285.383 52.8802 286.06 53.4844C286.737 54.0885 287.076 54.9349 287.076 56.0234C287.076 56.5182 286.998 56.9896 286.841 57.4375C286.69 57.8802 286.44 58.2734 286.091 58.6172C285.743 58.9557 285.282 59.224 284.709 59.4219C284.141 59.6198 283.44 59.7188 282.607 59.7188H281.388V64H279.513V52.5781H282.834ZM282.709 54.1328H281.388V58.1562H282.412C283 58.1562 283.5 58.0885 283.912 57.9531C284.323 57.8125 284.636 57.5911 284.849 57.2891C285.063 56.987 285.17 56.5885 285.17 56.0938C285.17 55.4323 284.969 54.9401 284.568 54.6172C284.172 54.2943 283.552 54.1328 282.709 54.1328ZM294.064 55.1875C294.21 55.1875 294.369 55.1953 294.541 55.2109C294.713 55.2266 294.861 55.2474 294.986 55.2734L294.814 56.9922C294.705 56.9609 294.57 56.9375 294.408 56.9219C294.252 56.9062 294.111 56.8984 293.986 56.8984C293.658 56.8984 293.346 56.9531 293.049 57.0625C292.752 57.1667 292.489 57.3281 292.26 57.5469C292.031 57.7604 291.851 58.0286 291.721 58.3516C291.59 58.6745 291.525 59.0495 291.525 59.4766V64H289.682V55.3516H291.119L291.369 56.875H291.455C291.627 56.5677 291.84 56.2865 292.096 56.0312C292.351 55.776 292.643 55.5729 292.971 55.4219C293.304 55.2656 293.669 55.1875 294.064 55.1875ZM300.545 55.1875C301.316 55.1875 301.977 55.3464 302.53 55.6641C303.082 55.9818 303.506 56.4323 303.803 57.0156C304.1 57.599 304.248 58.2969 304.248 59.1094V60.0938H298.475C298.496 60.9323 298.72 61.5781 299.147 62.0312C299.579 62.4844 300.183 62.7109 300.959 62.7109C301.511 62.7109 302.006 62.6589 302.444 62.5547C302.886 62.4453 303.342 62.2865 303.811 62.0781V63.5703C303.379 63.7734 302.938 63.9219 302.49 64.0156C302.043 64.1094 301.506 64.1562 300.881 64.1562C300.032 64.1562 299.285 63.9922 298.639 63.6641C297.998 63.3307 297.496 62.8359 297.131 62.1797C296.772 61.5234 296.592 60.7083 296.592 59.7344C296.592 58.7656 296.756 57.9427 297.084 57.2656C297.412 56.5885 297.873 56.0729 298.467 55.7188C299.061 55.3646 299.754 55.1875 300.545 55.1875ZM300.545 56.5703C299.967 56.5703 299.498 56.7578 299.139 57.1328C298.785 57.5078 298.576 58.0573 298.514 58.7812H302.451C302.446 58.349 302.373 57.9661 302.233 57.6328C302.097 57.2995 301.889 57.0391 301.608 56.8516C301.332 56.6641 300.977 56.5703 300.545 56.5703ZM311.268 55.1875C312.294 55.1875 313.117 55.5625 313.737 56.3125C314.362 57.0625 314.674 58.1771 314.674 59.6562C314.674 60.6354 314.529 61.4609 314.237 62.1328C313.95 62.7995 313.547 63.3047 313.026 63.6484C312.51 63.987 311.909 64.1562 311.221 64.1562C310.784 64.1562 310.404 64.099 310.081 63.9844C309.758 63.8698 309.482 63.7214 309.252 63.5391C309.023 63.3516 308.831 63.1484 308.674 62.9297H308.565C308.591 63.138 308.614 63.3698 308.635 63.625C308.661 63.875 308.674 64.1042 308.674 64.3125V67.8359H306.831V55.3516H308.331L308.588 56.5469H308.674C308.836 56.3021 309.031 56.0755 309.26 55.8672C309.495 55.6589 309.776 55.4948 310.104 55.375C310.437 55.25 310.825 55.1875 311.268 55.1875ZM310.776 56.6875C310.271 56.6875 309.864 56.7891 309.557 56.9922C309.255 57.1901 309.034 57.4896 308.893 57.8906C308.758 58.2917 308.685 58.7943 308.674 59.3984V59.6562C308.674 60.2969 308.739 60.8411 308.87 61.2891C309.005 61.7318 309.226 62.0703 309.534 62.3047C309.846 62.5339 310.268 62.6484 310.799 62.6484C311.247 62.6484 311.617 62.526 311.909 62.2812C312.206 62.0365 312.427 61.6875 312.573 61.2344C312.719 60.7812 312.792 60.2474 312.792 59.6328C312.792 58.7005 312.625 57.9766 312.292 57.4609C311.963 56.9453 311.458 56.6875 310.776 56.6875ZM320.702 55.1875C321.796 55.1875 322.621 55.4297 323.179 55.9141C323.741 56.3984 324.022 57.1536 324.022 58.1797V64H322.718L322.366 62.7734H322.304C322.059 63.0859 321.806 63.3438 321.546 63.5469C321.285 63.75 320.983 63.901 320.639 64C320.301 64.1042 319.887 64.1562 319.397 64.1562C318.882 64.1562 318.421 64.0625 318.014 63.875C317.608 63.6823 317.288 63.3906 317.054 63C316.819 62.6094 316.702 62.1146 316.702 61.5156C316.702 60.625 317.033 59.9557 317.694 59.5078C318.361 59.0599 319.366 58.8125 320.71 58.7656L322.21 58.7109V58.2578C322.21 57.6589 322.069 57.2318 321.788 56.9766C321.512 56.7214 321.121 56.5938 320.616 56.5938C320.184 56.5938 319.764 56.6562 319.358 56.7812C318.952 56.9062 318.556 57.0599 318.171 57.2422L317.577 55.9453C317.999 55.7214 318.478 55.5391 319.014 55.3984C319.556 55.2578 320.119 55.1875 320.702 55.1875ZM322.202 59.8672L321.085 59.9062C320.168 59.9375 319.525 60.0938 319.155 60.375C318.785 60.6562 318.6 61.0417 318.6 61.5312C318.6 61.9583 318.728 62.2708 318.983 62.4688C319.238 62.6615 319.574 62.7578 319.991 62.7578C320.626 62.7578 321.153 62.5781 321.569 62.2188C321.991 61.8542 322.202 61.3203 322.202 60.6172V59.8672ZM331.487 55.1875C331.633 55.1875 331.792 55.1953 331.964 55.2109C332.136 55.2266 332.284 55.2474 332.409 55.2734L332.237 56.9922C332.128 56.9609 331.993 56.9375 331.831 56.9219C331.675 56.9062 331.534 56.8984 331.409 56.8984C331.081 56.8984 330.769 56.9531 330.472 57.0625C330.175 57.1667 329.912 57.3281 329.683 57.5469C329.454 57.7604 329.274 58.0286 329.144 58.3516C329.013 58.6745 328.948 59.0495 328.948 59.4766V64H327.105V55.3516H328.542L328.792 56.875H328.878C329.05 56.5677 329.263 56.2865 329.519 56.0312C329.774 55.776 330.066 55.5729 330.394 55.4219C330.727 55.2656 331.092 55.1875 331.487 55.1875ZM337.913 55.1875C339.007 55.1875 339.833 55.4297 340.39 55.9141C340.953 56.3984 341.234 57.1536 341.234 58.1797V64H339.929L339.578 62.7734H339.515C339.27 63.0859 339.018 63.3438 338.757 63.5469C338.497 63.75 338.195 63.901 337.851 64C337.512 64.1042 337.098 64.1562 336.609 64.1562C336.093 64.1562 335.632 64.0625 335.226 63.875C334.82 63.6823 334.499 63.3906 334.265 63C334.031 62.6094 333.913 62.1146 333.913 61.5156C333.913 60.625 334.244 59.9557 334.906 59.5078C335.572 59.0599 336.578 58.8125 337.921 58.7656L339.421 58.7109V58.2578C339.421 57.6589 339.281 57.2318 338.999 56.9766C338.723 56.7214 338.333 56.5938 337.828 56.5938C337.395 56.5938 336.976 56.6562 336.57 56.7812C336.163 56.9062 335.768 57.0599 335.382 57.2422L334.788 55.9453C335.21 55.7214 335.69 55.5391 336.226 55.3984C336.768 55.2578 337.33 55.1875 337.913 55.1875ZM339.413 59.8672L338.296 59.9062C337.38 59.9375 336.736 60.0938 336.367 60.375C335.997 60.6562 335.812 61.0417 335.812 61.5312C335.812 61.9583 335.94 62.2708 336.195 62.4688C336.45 62.6615 336.786 62.7578 337.203 62.7578C337.838 62.7578 338.364 62.5781 338.781 62.2188C339.203 61.8542 339.413 61.3203 339.413 60.6172V59.8672ZM347.535 62.6719C347.774 62.6719 348.011 62.651 348.246 62.6094C348.48 62.5625 348.694 62.5078 348.886 62.4453V63.8359C348.683 63.9245 348.42 64 348.097 64.0625C347.774 64.125 347.439 64.1562 347.09 64.1562C346.6 64.1562 346.16 64.0755 345.769 63.9141C345.379 63.7474 345.069 63.4635 344.84 63.0625C344.61 62.6615 344.496 62.1068 344.496 61.3984V56.75H343.316V55.9297L344.582 55.2812L345.183 53.4297H346.34V55.3516H348.816V56.75H346.34V61.375C346.34 61.8125 346.449 62.138 346.668 62.3516C346.886 62.5651 347.175 62.6719 347.535 62.6719ZM352.992 55.3516V64H351.156V55.3516H352.992ZM352.086 52.0391C352.367 52.0391 352.609 52.1146 352.812 52.2656C353.021 52.4167 353.125 52.6771 353.125 53.0469C353.125 53.4115 353.021 53.6719 352.812 53.8281C352.609 53.9792 352.367 54.0547 352.086 54.0547C351.794 54.0547 351.547 53.9792 351.344 53.8281C351.146 53.6719 351.047 53.4115 351.047 53.0469C351.047 52.6771 351.146 52.4167 351.344 52.2656C351.547 52.1146 351.794 52.0391 352.086 52.0391ZM363.793 59.6562C363.793 60.375 363.7 61.013 363.512 61.5703C363.325 62.1276 363.051 62.599 362.692 62.9844C362.332 63.3646 361.9 63.6562 361.395 63.8594C360.89 64.0573 360.319 64.1562 359.684 64.1562C359.09 64.1562 358.546 64.0573 358.051 63.8594C357.556 63.6562 357.127 63.3646 356.762 62.9844C356.403 62.599 356.124 62.1276 355.926 61.5703C355.728 61.013 355.629 60.375 355.629 59.6562C355.629 58.7031 355.793 57.8958 356.121 57.2344C356.455 56.5677 356.929 56.0599 357.543 55.7109C358.158 55.362 358.89 55.1875 359.739 55.1875C360.535 55.1875 361.239 55.362 361.848 55.7109C362.457 56.0599 362.934 56.5677 363.278 57.2344C363.621 57.901 363.793 58.7083 363.793 59.6562ZM357.52 59.6562C357.52 60.2865 357.595 60.8255 357.746 61.2734C357.903 61.7214 358.142 62.0651 358.465 62.3047C358.788 62.5391 359.205 62.6562 359.715 62.6562C360.226 62.6562 360.642 62.5391 360.965 62.3047C361.288 62.0651 361.525 61.7214 361.676 61.2734C361.827 60.8255 361.903 60.2865 361.903 59.6562C361.903 59.026 361.827 58.4922 361.676 58.0547C361.525 57.612 361.288 57.276 360.965 57.0469C360.642 56.8125 360.223 56.6953 359.707 56.6953C358.947 56.6953 358.392 56.9505 358.043 57.4609C357.694 57.9714 357.52 58.7031 357.52 59.6562ZM370.922 55.1875C371.896 55.1875 372.654 55.4401 373.196 55.9453C373.743 56.4453 374.016 57.25 374.016 58.3594V64H372.18V58.7031C372.18 58.0312 372.042 57.5286 371.766 57.1953C371.49 56.8568 371.063 56.6875 370.485 56.6875C369.646 56.6875 369.063 56.9453 368.735 57.4609C368.412 57.9766 368.251 58.724 368.251 59.7031V64H366.415V55.3516H367.844L368.102 56.5234H368.204C368.391 56.2214 368.623 55.974 368.899 55.7812C369.18 55.5833 369.493 55.4349 369.837 55.3359C370.185 55.237 370.547 55.1875 370.922 55.1875ZM383.814 64H381.954V52.5781H388.407V54.1562H383.814V57.7188H388.11V59.2891H383.814V64ZM392.646 55.3516V64H390.81V55.3516H392.646ZM391.74 52.0391C392.021 52.0391 392.263 52.1146 392.466 52.2656C392.675 52.4167 392.779 52.6771 392.779 53.0469C392.779 53.4115 392.675 53.6719 392.466 53.8281C392.263 53.9792 392.021 54.0547 391.74 54.0547C391.448 54.0547 391.201 53.9792 390.997 53.8281C390.8 53.6719 390.701 53.4115 390.701 53.0469C390.701 52.6771 390.8 52.4167 390.997 52.2656C391.201 52.1146 391.448 52.0391 391.74 52.0391ZM397.634 64H395.791V51.8438H397.634V64ZM404.217 55.1875C404.988 55.1875 405.649 55.3464 406.201 55.6641C406.753 55.9818 407.178 56.4323 407.475 57.0156C407.771 57.599 407.92 58.2969 407.92 59.1094V60.0938H402.146C402.167 60.9323 402.391 61.5781 402.818 62.0312C403.251 62.4844 403.855 62.7109 404.631 62.7109C405.183 62.7109 405.678 62.6589 406.115 62.5547C406.558 62.4453 407.014 62.2865 407.482 62.0781V63.5703C407.05 63.7734 406.61 63.9219 406.162 64.0156C405.714 64.1094 405.178 64.1562 404.553 64.1562C403.704 64.1562 402.956 63.9922 402.311 63.6641C401.67 63.3307 401.167 62.8359 400.803 62.1797C400.443 61.5234 400.264 60.7083 400.264 59.7344C400.264 58.7656 400.428 57.9427 400.756 57.2656C401.084 56.5885 401.545 56.0729 402.139 55.7188C402.732 55.3646 403.425 55.1875 404.217 55.1875ZM404.217 56.5703C403.639 56.5703 403.17 56.7578 402.811 57.1328C402.456 57.5078 402.248 58.0573 402.186 58.7812H406.123C406.118 58.349 406.045 57.9661 405.904 57.6328C405.769 57.2995 405.561 57.0391 405.279 56.8516C405.003 56.6641 404.649 56.5703 404.217 56.5703ZM416.315 61.5312C416.315 62.099 416.177 62.5781 415.901 62.9688C415.625 63.3594 415.221 63.6562 414.69 63.8594C414.164 64.0573 413.518 64.1562 412.752 64.1562C412.148 64.1562 411.627 64.112 411.19 64.0234C410.757 63.9401 410.349 63.8099 409.963 63.6328V62.0469C410.375 62.2396 410.836 62.4062 411.346 62.5469C411.862 62.6875 412.349 62.7578 412.807 62.7578C413.411 62.7578 413.846 62.6641 414.112 62.4766C414.377 62.2839 414.51 62.0286 414.51 61.7109C414.51 61.5234 414.455 61.3568 414.346 61.2109C414.242 61.0599 414.044 60.9062 413.752 60.75C413.466 60.5885 413.044 60.3958 412.487 60.1719C411.94 59.9531 411.479 59.7344 411.104 59.5156C410.729 59.2969 410.445 59.0339 410.252 58.7266C410.06 58.4141 409.963 58.0156 409.963 57.5312C409.963 56.7656 410.265 56.1849 410.869 55.7891C411.479 55.388 412.284 55.1875 413.284 55.1875C413.815 55.1875 414.315 55.2422 414.784 55.3516C415.257 55.4557 415.721 55.6094 416.174 55.8125L415.596 57.1953C415.205 57.0234 414.812 56.8828 414.416 56.7734C414.026 56.6589 413.627 56.6016 413.221 56.6016C412.747 56.6016 412.385 56.6745 412.135 56.8203C411.89 56.9661 411.768 57.1745 411.768 57.4453C411.768 57.6484 411.828 57.8203 411.948 57.9609C412.067 58.1016 412.273 58.2422 412.565 58.3828C412.862 58.5234 413.273 58.6979 413.799 58.9062C414.315 59.1042 414.76 59.3125 415.135 59.5312C415.515 59.7448 415.807 60.0078 416.01 60.3203C416.213 60.6328 416.315 61.0365 416.315 61.5312Z" fill="#006697"/>
<path d="M467.956 82.5781H471.355C472.829 82.5781 473.941 82.7917 474.691 83.2188C475.441 83.6458 475.816 84.3828 475.816 85.4297C475.816 85.8672 475.738 86.263 475.581 86.6172C475.43 86.9661 475.209 87.2552 474.917 87.4844C474.626 87.7083 474.266 87.8594 473.839 87.9375V88.0156C474.282 88.0938 474.675 88.2318 475.019 88.4297C475.368 88.6276 475.641 88.9115 475.839 89.2812C476.042 89.651 476.144 90.1302 476.144 90.7188C476.144 91.4167 475.977 92.0104 475.644 92.5C475.316 92.9896 474.844 93.362 474.23 93.6172C473.62 93.8724 472.896 94 472.058 94H467.956V82.5781ZM469.831 87.2891H471.628C472.477 87.2891 473.066 87.151 473.394 86.875C473.722 86.599 473.886 86.1953 473.886 85.6641C473.886 85.1224 473.691 84.7318 473.3 84.4922C472.915 84.2526 472.3 84.1328 471.456 84.1328H469.831V87.2891ZM469.831 88.8047V92.4297H471.808C472.683 92.4297 473.297 92.2604 473.652 91.9219C474.006 91.5833 474.183 91.125 474.183 90.5469C474.183 90.1927 474.102 89.8854 473.941 89.625C473.784 89.3646 473.527 89.1641 473.167 89.0234C472.808 88.8776 472.324 88.8047 471.714 88.8047H469.831ZM480.664 85.3516V94H478.828V85.3516H480.664ZM479.757 82.0391C480.039 82.0391 480.281 82.1146 480.484 82.2656C480.692 82.4167 480.796 82.6771 480.796 83.0469C480.796 83.4115 480.692 83.6719 480.484 83.8281C480.281 83.9792 480.039 84.0547 479.757 84.0547C479.466 84.0547 479.218 83.9792 479.015 83.8281C478.817 83.6719 478.718 83.4115 478.718 83.0469C478.718 82.6771 478.817 82.4167 479.015 82.2656C479.218 82.1146 479.466 82.0391 479.757 82.0391ZM486.715 94.1562C485.683 94.1562 484.855 93.7812 484.23 93.0312C483.611 92.276 483.301 91.1641 483.301 89.6953C483.301 88.2109 483.616 87.0885 484.246 86.3281C484.881 85.5677 485.717 85.1875 486.754 85.1875C487.191 85.1875 487.574 85.2474 487.902 85.3672C488.23 85.4818 488.512 85.638 488.746 85.8359C488.986 86.0339 489.189 86.2552 489.355 86.5H489.441C489.415 86.3385 489.384 86.1068 489.348 85.8047C489.316 85.4974 489.301 85.2135 489.301 84.9531V81.8438H491.144V94H489.707L489.379 92.8203H489.301C489.144 93.0703 488.946 93.2969 488.707 93.5C488.473 93.6979 488.191 93.8568 487.863 93.9766C487.54 94.0964 487.157 94.1562 486.715 94.1562ZM487.23 92.6641C488.017 92.6641 488.571 92.4375 488.894 91.9844C489.217 91.5312 489.384 90.8516 489.394 89.9453V89.7031C489.394 88.7344 489.238 87.9922 488.926 87.4766C488.613 86.9557 488.043 86.6953 487.215 86.6953C486.553 86.6953 486.048 86.9635 485.699 87.5C485.355 88.0312 485.183 88.7734 485.183 89.7266C485.183 90.6797 485.355 91.4089 485.699 91.9141C486.048 92.4141 486.558 92.6641 487.23 92.6641ZM504.012 84.0078C503.465 84.0078 502.976 84.1068 502.543 84.3047C502.116 84.5026 501.754 84.7891 501.457 85.1641C501.161 85.5339 500.934 85.9844 500.778 86.5156C500.622 87.0417 500.543 87.6354 500.543 88.2969C500.543 89.1823 500.668 89.9453 500.918 90.5859C501.168 91.2214 501.549 91.7109 502.059 92.0547C502.569 92.3932 503.215 92.5625 503.997 92.5625C504.481 92.5625 504.952 92.5156 505.411 92.4219C505.869 92.3281 506.343 92.2005 506.832 92.0391V93.6328C506.369 93.8151 505.9 93.9479 505.426 94.0312C504.952 94.1146 504.405 94.1562 503.786 94.1562C502.619 94.1562 501.65 93.9141 500.879 93.4297C500.114 92.9453 499.541 92.263 499.161 91.3828C498.786 90.5026 498.598 89.4714 498.598 88.2891C498.598 87.4245 498.718 86.6328 498.957 85.9141C499.197 85.1953 499.546 84.5755 500.004 84.0547C500.463 83.5286 501.028 83.125 501.7 82.8438C502.377 82.5573 503.15 82.4141 504.02 82.4141C504.593 82.4141 505.155 82.4792 505.707 82.6094C506.265 82.7344 506.78 82.9141 507.254 83.1484L506.598 84.6953C506.202 84.5078 505.788 84.3464 505.356 84.2109C504.924 84.0755 504.476 84.0078 504.012 84.0078ZM517.266 89.6562C517.266 90.375 517.173 91.013 516.985 91.5703C516.798 92.1276 516.524 92.599 516.165 92.9844C515.805 93.3646 515.373 93.6562 514.868 93.8594C514.363 94.0573 513.792 94.1562 513.157 94.1562C512.563 94.1562 512.019 94.0573 511.524 93.8594C511.029 93.6562 510.6 93.3646 510.235 92.9844C509.876 92.599 509.597 92.1276 509.399 91.5703C509.201 91.013 509.102 90.375 509.102 89.6562C509.102 88.7031 509.266 87.8958 509.594 87.2344C509.928 86.5677 510.402 86.0599 511.016 85.7109C511.631 85.362 512.363 85.1875 513.212 85.1875C514.009 85.1875 514.712 85.362 515.321 85.7109C515.93 86.0599 516.407 86.5677 516.751 87.2344C517.094 87.901 517.266 88.7083 517.266 89.6562ZM510.993 89.6562C510.993 90.2865 511.068 90.8255 511.219 91.2734C511.376 91.7214 511.615 92.0651 511.938 92.3047C512.261 92.5391 512.678 92.6562 513.188 92.6562C513.699 92.6562 514.115 92.5391 514.438 92.3047C514.761 92.0651 514.998 91.7214 515.149 91.2734C515.3 90.8255 515.376 90.2865 515.376 89.6562C515.376 89.026 515.3 88.4922 515.149 88.0547C514.998 87.612 514.761 87.276 514.438 87.0469C514.115 86.8125 513.696 86.6953 513.18 86.6953C512.42 86.6953 511.865 86.9505 511.516 87.4609C511.167 87.9714 510.993 88.7031 510.993 89.6562ZM521.731 94H519.888V81.8438H521.731V94ZM526.712 94H524.868V81.8438H526.712V94ZM533.295 85.1875C534.065 85.1875 534.727 85.3464 535.279 85.6641C535.831 85.9818 536.255 86.4323 536.552 87.0156C536.849 87.599 536.998 88.2969 536.998 89.1094V90.0938H531.224C531.245 90.9323 531.469 91.5781 531.896 92.0312C532.328 92.4844 532.933 92.7109 533.709 92.7109C534.261 92.7109 534.755 92.6589 535.193 92.5547C535.636 92.4453 536.091 92.2865 536.56 92.0781V93.5703C536.128 93.7734 535.688 93.9219 535.24 94.0156C534.792 94.1094 534.255 94.1562 533.63 94.1562C532.781 94.1562 532.034 93.9922 531.388 93.6641C530.748 93.3307 530.245 92.8359 529.88 92.1797C529.521 91.5234 529.341 90.7083 529.341 89.7344C529.341 88.7656 529.505 87.9427 529.834 87.2656C530.162 86.5885 530.623 86.0729 531.216 85.7188C531.81 85.3646 532.503 85.1875 533.295 85.1875ZM533.295 86.5703C532.716 86.5703 532.248 86.7578 531.888 87.1328C531.534 87.5078 531.326 88.0573 531.263 88.7812H535.201C535.196 88.349 535.123 87.9661 534.982 87.6328C534.847 87.2995 534.638 87.0391 534.357 86.8516C534.081 86.6641 533.727 86.5703 533.295 86.5703ZM543.064 94.1562C542.247 94.1562 541.538 93.9974 540.939 93.6797C540.34 93.362 539.879 92.875 539.557 92.2188C539.234 91.5625 539.072 90.7292 539.072 89.7188C539.072 88.6667 539.249 87.8073 539.603 87.1406C539.958 86.474 540.447 85.9818 541.072 85.6641C541.702 85.3464 542.424 85.1875 543.236 85.1875C543.752 85.1875 544.218 85.2396 544.635 85.3438C545.057 85.4427 545.413 85.5651 545.705 85.7109L545.158 87.1797C544.84 87.0495 544.515 86.9401 544.182 86.8516C543.848 86.763 543.528 86.7188 543.221 86.7188C542.715 86.7188 542.293 86.8307 541.955 87.0547C541.622 87.2786 541.372 87.612 541.205 88.0547C541.043 88.4974 540.963 89.0469 540.963 89.7031C540.963 90.3385 541.046 90.875 541.213 91.3125C541.379 91.7448 541.627 92.0729 541.955 92.2969C542.283 92.5156 542.687 92.625 543.166 92.625C543.64 92.625 544.064 92.5677 544.439 92.4531C544.814 92.3385 545.168 92.1901 545.502 92.0078V93.6016C545.174 93.7891 544.822 93.9271 544.447 94.0156C544.072 94.1094 543.611 94.1562 543.064 94.1562ZM551.264 92.6719C551.503 92.6719 551.74 92.651 551.975 92.6094C552.209 92.5625 552.423 92.5078 552.615 92.4453V93.8359C552.412 93.9245 552.149 94 551.826 94.0625C551.503 94.125 551.167 94.1562 550.819 94.1562C550.329 94.1562 549.889 94.0755 549.498 93.9141C549.108 93.7474 548.798 93.4635 548.569 93.0625C548.339 92.6615 548.225 92.1068 548.225 91.3984V86.75H547.045V85.9297L548.311 85.2812L548.912 83.4297H550.069V85.3516H552.545V86.75H550.069V91.375C550.069 91.8125 550.178 92.138 550.397 92.3516C550.615 92.5651 550.904 92.6719 551.264 92.6719ZM556.721 85.3516V94H554.885V85.3516H556.721ZM555.815 82.0391C556.096 82.0391 556.338 82.1146 556.541 82.2656C556.75 82.4167 556.854 82.6771 556.854 83.0469C556.854 83.4115 556.75 83.6719 556.541 83.8281C556.338 83.9792 556.096 84.0547 555.815 84.0547C555.523 84.0547 555.276 83.9792 555.073 83.8281C554.875 83.6719 554.776 83.4115 554.776 83.0469C554.776 82.6771 554.875 82.4167 555.073 82.2656C555.276 82.1146 555.523 82.0391 555.815 82.0391ZM567.522 89.6562C567.522 90.375 567.428 91.013 567.241 91.5703C567.053 92.1276 566.78 92.599 566.421 92.9844C566.061 93.3646 565.629 93.6562 565.124 93.8594C564.619 94.0573 564.048 94.1562 563.413 94.1562C562.819 94.1562 562.275 94.0573 561.78 93.8594C561.285 93.6562 560.856 93.3646 560.491 92.9844C560.132 92.599 559.853 92.1276 559.655 91.5703C559.457 91.013 559.358 90.375 559.358 89.6562C559.358 88.7031 559.522 87.8958 559.85 87.2344C560.184 86.5677 560.658 86.0599 561.272 85.7109C561.887 85.362 562.619 85.1875 563.467 85.1875C564.264 85.1875 564.967 85.362 565.577 85.7109C566.186 86.0599 566.663 86.5677 567.007 87.2344C567.35 87.901 567.522 88.7083 567.522 89.6562ZM561.249 89.6562C561.249 90.2865 561.324 90.8255 561.475 91.2734C561.632 91.7214 561.871 92.0651 562.194 92.3047C562.517 92.5391 562.934 92.6562 563.444 92.6562C563.954 92.6562 564.371 92.5391 564.694 92.3047C565.017 92.0651 565.254 91.7214 565.405 91.2734C565.556 90.8255 565.632 90.2865 565.632 89.6562C565.632 89.026 565.556 88.4922 565.405 88.0547C565.254 87.612 565.017 87.276 564.694 87.0469C564.371 86.8125 563.952 86.6953 563.436 86.6953C562.676 86.6953 562.121 86.9505 561.772 87.4609C561.423 87.9714 561.249 88.7031 561.249 89.6562ZM574.651 85.1875C575.625 85.1875 576.383 85.4401 576.925 85.9453C577.472 86.4453 577.745 87.25 577.745 88.3594V94H575.909V88.7031C575.909 88.0312 575.771 87.5286 575.495 87.1953C575.219 86.8568 574.792 86.6875 574.214 86.6875C573.375 86.6875 572.792 86.9453 572.464 87.4609C572.141 87.9766 571.979 88.724 571.979 89.7031V94H570.144V85.3516H571.573L571.831 86.5234H571.933C572.12 86.2214 572.352 85.974 572.628 85.7812C572.909 85.5833 573.222 85.4349 573.565 85.3359C573.914 85.237 574.276 85.1875 574.651 85.1875ZM589.004 82.5781C590.477 82.5781 591.553 82.8802 592.23 83.4844C592.907 84.0885 593.246 84.9349 593.246 86.0234C593.246 86.5182 593.168 86.9896 593.011 87.4375C592.86 87.8802 592.61 88.2734 592.261 88.6172C591.912 88.9557 591.451 89.224 590.879 89.4219C590.311 89.6198 589.61 89.7188 588.777 89.7188H587.558V94H585.683V82.5781H589.004ZM588.879 84.1328H587.558V88.1562H588.582C589.17 88.1562 589.67 88.0885 590.082 87.9531C590.493 87.8125 590.806 87.5911 591.019 87.2891C591.233 86.987 591.339 86.5885 591.339 86.0938C591.339 85.4323 591.139 84.9401 590.738 84.6172C590.342 84.2943 589.722 84.1328 588.879 84.1328ZM597.687 81.8438V84.8984C597.687 85.2161 597.677 85.526 597.656 85.8281C597.641 86.1302 597.622 86.3646 597.601 86.5312H597.703C597.885 86.2292 598.109 85.9818 598.375 85.7891C598.641 85.5911 598.937 85.4427 599.266 85.3438C599.599 85.2448 599.953 85.1953 600.328 85.1953C600.989 85.1953 601.552 85.3073 602.016 85.5312C602.479 85.75 602.833 86.0911 603.078 86.5547C603.328 87.0182 603.453 87.6198 603.453 88.3594V94H601.617V88.7031C601.617 88.0312 601.479 87.5286 601.203 87.1953C600.927 86.8568 600.5 86.6875 599.922 86.6875C599.364 86.6875 598.922 86.8047 598.594 87.0391C598.271 87.2682 598.039 87.6094 597.898 88.0625C597.758 88.5104 597.687 89.0573 597.687 89.7031V94H595.851V81.8438H597.687ZM609.926 85.1875C611.02 85.1875 611.845 85.4297 612.402 85.9141C612.965 86.3984 613.246 87.1536 613.246 88.1797V94H611.942L611.59 92.7734H611.527C611.283 93.0859 611.03 93.3438 610.77 93.5469C610.509 93.75 610.207 93.901 609.863 94C609.525 94.1042 609.111 94.1562 608.621 94.1562C608.106 94.1562 607.645 94.0625 607.238 93.875C606.832 93.6823 606.512 93.3906 606.277 93C606.043 92.6094 605.926 92.1146 605.926 91.5156C605.926 90.625 606.257 89.9557 606.918 89.5078C607.585 89.0599 608.59 88.8125 609.934 88.7656L611.434 88.7109V88.2578C611.434 87.6589 611.293 87.2318 611.012 86.9766C610.736 86.7214 610.345 86.5938 609.84 86.5938C609.408 86.5938 608.988 86.6562 608.582 86.7812C608.176 86.9062 607.78 87.0599 607.395 87.2422L606.801 85.9453C607.223 85.7214 607.702 85.5391 608.238 85.3984C608.78 85.2578 609.343 85.1875 609.926 85.1875ZM611.426 89.8672L610.309 89.9062C609.392 89.9375 608.749 90.0938 608.379 90.375C608.009 90.6562 607.824 91.0417 607.824 91.5312C607.824 91.9583 607.952 92.2708 608.207 92.4688C608.462 92.6615 608.798 92.7578 609.215 92.7578C609.85 92.7578 610.376 92.5781 610.793 92.2188C611.215 91.8542 611.426 91.3203 611.426 90.6172V89.8672ZM622.141 91.5312C622.141 92.099 622.003 92.5781 621.727 92.9688C621.451 93.3594 621.047 93.6562 620.516 93.8594C619.99 94.0573 619.344 94.1562 618.579 94.1562C617.974 94.1562 617.454 94.112 617.016 94.0234C616.584 93.9401 616.175 93.8099 615.79 93.6328V92.0469C616.201 92.2396 616.662 92.4062 617.172 92.5469C617.688 92.6875 618.175 92.7578 618.633 92.7578C619.237 92.7578 619.672 92.6641 619.938 92.4766C620.204 92.2839 620.336 92.0286 620.336 91.7109C620.336 91.5234 620.282 91.3568 620.172 91.2109C620.068 91.0599 619.87 90.9062 619.579 90.75C619.292 90.5885 618.87 90.3958 618.313 90.1719C617.766 89.9531 617.305 89.7344 616.93 89.5156C616.555 89.2969 616.271 89.0339 616.079 88.7266C615.886 88.4141 615.79 88.0156 615.79 87.5312C615.79 86.7656 616.092 86.1849 616.696 85.7891C617.305 85.388 618.11 85.1875 619.11 85.1875C619.641 85.1875 620.141 85.2422 620.61 85.3516C621.084 85.4557 621.547 85.6094 622 85.8125L621.422 87.1953C621.032 87.0234 620.638 86.8828 620.243 86.7734C619.852 86.6589 619.454 86.6016 619.047 86.6016C618.573 86.6016 618.211 86.6745 617.961 86.8203C617.717 86.9661 617.594 87.1745 617.594 87.4453C617.594 87.6484 617.654 87.8203 617.774 87.9609C617.894 88.1016 618.099 88.2422 618.391 88.3828C618.688 88.5234 619.099 88.6979 619.625 88.9062C620.141 89.1042 620.586 89.3125 620.961 89.5312C621.342 89.7448 621.633 90.0078 621.836 90.3203C622.04 90.6328 622.141 91.0365 622.141 91.5312ZM628.083 85.1875C628.854 85.1875 629.515 85.3464 630.067 85.6641C630.619 85.9818 631.044 86.4323 631.341 87.0156C631.637 87.599 631.786 88.2969 631.786 89.1094V90.0938H626.012C626.033 90.9323 626.257 91.5781 626.684 92.0312C627.117 92.4844 627.721 92.7109 628.497 92.7109C629.049 92.7109 629.544 92.6589 629.981 92.5547C630.424 92.4453 630.88 92.2865 631.348 92.0781V93.5703C630.916 93.7734 630.476 93.9219 630.028 94.0156C629.58 94.1094 629.044 94.1562 628.419 94.1562C627.57 94.1562 626.822 93.9922 626.176 93.6641C625.536 93.3307 625.033 92.8359 624.669 92.1797C624.309 91.5234 624.13 90.7083 624.13 89.7344C624.13 88.7656 624.294 87.9427 624.622 87.2656C624.95 86.5885 625.411 86.0729 626.005 85.7188C626.598 85.3646 627.291 85.1875 628.083 85.1875ZM628.083 86.5703C627.505 86.5703 627.036 86.7578 626.676 87.1328C626.322 87.5078 626.114 88.0573 626.051 88.7812H629.989C629.984 88.349 629.911 87.9661 629.77 87.6328C629.635 87.2995 629.426 87.0391 629.145 86.8516C628.869 86.6641 628.515 86.5703 628.083 86.5703Z" fill="#006697"/>
<path d="M930.278 94H923.81V82.5781H930.278V84.1562H925.685V87.2578H929.989V88.8281H925.685V92.4141H930.278V94ZM937.579 85.1875C938.553 85.1875 939.311 85.4401 939.853 85.9453C940.4 86.4453 940.673 87.25 940.673 88.3594V94H938.837V88.7031C938.837 88.0312 938.699 87.5286 938.423 87.1953C938.147 86.8568 937.72 86.6875 937.142 86.6875C936.303 86.6875 935.72 86.9453 935.392 87.4609C935.069 87.9766 934.908 88.724 934.908 89.7031V94H933.072V85.3516H934.501L934.759 86.5234H934.861C935.048 86.2214 935.28 85.974 935.556 85.7812C935.837 85.5833 936.15 85.4349 936.493 85.3359C936.842 85.237 937.204 85.1875 937.579 85.1875ZM946.662 94.1562C945.63 94.1562 944.802 93.7812 944.177 93.0312C943.558 92.276 943.248 91.1641 943.248 89.6953C943.248 88.2109 943.563 87.0885 944.193 86.3281C944.828 85.5677 945.664 85.1875 946.701 85.1875C947.138 85.1875 947.521 85.2474 947.849 85.3672C948.177 85.4818 948.459 85.638 948.693 85.8359C948.933 86.0339 949.136 86.2552 949.302 86.5H949.388C949.362 86.3385 949.331 86.1068 949.295 85.8047C949.263 85.4974 949.248 85.2135 949.248 84.9531V81.8438H951.091V94H949.654L949.326 92.8203H949.248C949.091 93.0703 948.893 93.2969 948.654 93.5C948.42 93.6979 948.138 93.8568 947.81 93.9766C947.487 94.0964 947.104 94.1562 946.662 94.1562ZM947.177 92.6641C947.964 92.6641 948.518 92.4375 948.841 91.9844C949.164 91.5312 949.331 90.8516 949.341 89.9453V89.7031C949.341 88.7344 949.185 87.9922 948.873 87.4766C948.56 86.9557 947.99 86.6953 947.162 86.6953C946.5 86.6953 945.995 86.9635 945.646 87.5C945.302 88.0312 945.13 88.7734 945.13 89.7266C945.13 90.6797 945.302 91.4089 945.646 91.9141C945.995 92.4141 946.505 92.6641 947.177 92.6641ZM968.365 88.1797C968.365 89.4661 968.126 90.5417 967.647 91.4062C967.167 92.2656 966.472 92.9141 965.561 93.3516C964.649 93.7839 963.55 94 962.264 94H959.092V82.5781H962.608C963.79 82.5781 964.811 82.7917 965.67 83.2188C966.529 83.6406 967.194 84.2682 967.662 85.1016C968.131 85.9297 968.365 86.9557 968.365 88.1797ZM966.412 88.2344C966.412 87.2969 966.264 86.526 965.967 85.9219C965.675 85.3177 965.243 84.8698 964.67 84.5781C964.102 84.2812 963.402 84.1328 962.569 84.1328H960.967V92.4297H962.295C963.675 92.4297 964.707 92.0781 965.389 91.375C966.071 90.6719 966.412 89.625 966.412 88.2344ZM974.541 85.1875C975.635 85.1875 976.461 85.4297 977.018 85.9141C977.581 86.3984 977.862 87.1536 977.862 88.1797V94H976.557L976.206 92.7734H976.143C975.898 93.0859 975.646 93.3438 975.385 93.5469C975.125 93.75 974.823 93.901 974.479 94C974.14 94.1042 973.726 94.1562 973.237 94.1562C972.721 94.1562 972.26 94.0625 971.854 93.875C971.448 93.6823 971.127 93.3906 970.893 93C970.659 92.6094 970.541 92.1146 970.541 91.5156C970.541 90.625 970.872 89.9557 971.534 89.5078C972.2 89.0599 973.206 88.8125 974.549 88.7656L976.049 88.7109V88.2578C976.049 87.6589 975.909 87.2318 975.627 86.9766C975.351 86.7214 974.961 86.5938 974.456 86.5938C974.023 86.5938 973.604 86.6562 973.198 86.7812C972.791 86.9062 972.396 87.0599 972.01 87.2422L971.416 85.9453C971.838 85.7214 972.317 85.5391 972.854 85.3984C973.396 85.2578 973.958 85.1875 974.541 85.1875ZM976.041 89.8672L974.924 89.9062C974.008 89.9375 973.364 90.0938 972.995 90.375C972.625 90.6562 972.44 91.0417 972.44 91.5312C972.44 91.9583 972.567 92.2708 972.823 92.4688C973.078 92.6615 973.414 92.7578 973.831 92.7578C974.466 92.7578 974.992 92.5781 975.409 92.2188C975.831 91.8542 976.041 91.3203 976.041 90.6172V89.8672ZM984.163 92.6719C984.402 92.6719 984.639 92.651 984.874 92.6094C985.108 92.5625 985.322 92.5078 985.514 92.4453V93.8359C985.311 93.9245 985.048 94 984.725 94.0625C984.402 94.125 984.066 94.1562 983.717 94.1562C983.228 94.1562 982.788 94.0755 982.397 93.9141C982.007 93.7474 981.697 93.4635 981.467 93.0625C981.238 92.6615 981.124 92.1068 981.124 91.3984V86.75H979.944V85.9297L981.21 85.2812L981.811 83.4297H982.967V85.3516H985.444V86.75H982.967V91.375C982.967 91.8125 983.077 92.138 983.296 92.3516C983.514 92.5651 983.803 92.6719 984.163 92.6719ZM991.229 85.1875C992 85.1875 992.662 85.3464 993.214 85.6641C993.766 85.9818 994.19 86.4323 994.487 87.0156C994.784 87.599 994.933 88.2969 994.933 89.1094V90.0938H989.159C989.18 90.9323 989.404 91.5781 989.831 92.0312C990.263 92.4844 990.868 92.7109 991.644 92.7109C992.196 92.7109 992.69 92.6589 993.128 92.5547C993.571 92.4453 994.026 92.2865 994.495 92.0781V93.5703C994.063 93.7734 993.623 93.9219 993.175 94.0156C992.727 94.1094 992.19 94.1562 991.565 94.1562C990.716 94.1562 989.969 93.9922 989.323 93.6641C988.683 93.3307 988.18 92.8359 987.815 92.1797C987.456 91.5234 987.276 90.7083 987.276 89.7344C987.276 88.7656 987.44 87.9427 987.769 87.2656C988.097 86.5885 988.558 86.0729 989.151 85.7188C989.745 85.3646 990.438 85.1875 991.229 85.1875ZM991.229 86.5703C990.651 86.5703 990.183 86.7578 989.823 87.1328C989.469 87.5078 989.261 88.0573 989.198 88.7812H993.136C993.131 88.349 993.058 87.9661 992.917 87.6328C992.782 87.2995 992.573 87.0391 992.292 86.8516C992.016 86.6641 991.662 86.5703 991.229 86.5703Z" fill="#006697"/>
<path d="M686.58 60.8906C686.58 61.5677 686.413 62.151 686.08 62.6406C685.752 63.1302 685.278 63.5052 684.658 63.7656C684.044 64.026 683.309 64.1562 682.455 64.1562C682.038 64.1562 681.64 64.1328 681.26 64.0859C680.88 64.0391 680.52 63.9714 680.182 63.8828C679.848 63.7891 679.544 63.6771 679.268 63.5469V61.7812C679.731 61.9844 680.249 62.1693 680.822 62.3359C681.395 62.4974 681.979 62.5781 682.572 62.5781C683.057 62.5781 683.458 62.5156 683.775 62.3906C684.098 62.2604 684.338 62.0781 684.494 61.8438C684.65 61.6042 684.729 61.3255 684.729 61.0078C684.729 60.6693 684.637 60.3828 684.455 60.1484C684.273 59.9141 683.997 59.7005 683.627 59.5078C683.262 59.3099 682.804 59.099 682.252 58.875C681.877 58.724 681.518 58.5521 681.174 58.3594C680.835 58.1667 680.533 57.9401 680.268 57.6797C680.002 57.4193 679.791 57.112 679.635 56.7578C679.484 56.3984 679.408 55.9766 679.408 55.4922C679.408 54.8464 679.562 54.2943 679.869 53.8359C680.182 53.3776 680.619 53.026 681.182 52.7812C681.749 52.5365 682.411 52.4141 683.166 52.4141C683.765 52.4141 684.327 52.4766 684.854 52.6016C685.385 52.7266 685.906 52.9036 686.416 53.1328L685.822 54.6406C685.354 54.4479 684.898 54.2943 684.455 54.1797C684.018 54.0651 683.57 54.0078 683.111 54.0078C682.715 54.0078 682.38 54.0677 682.104 54.1875C681.827 54.3073 681.617 54.4766 681.471 54.6953C681.33 54.9089 681.26 55.1641 681.26 55.4609C681.26 55.7943 681.34 56.0755 681.502 56.3047C681.669 56.5286 681.924 56.7344 682.268 56.9219C682.617 57.1094 683.064 57.3177 683.611 57.5469C684.242 57.8073 684.775 58.0807 685.213 58.3672C685.656 58.6536 685.994 58.9974 686.229 59.3984C686.463 59.7943 686.58 60.2917 686.58 60.8906ZM692.553 55.1875C693.324 55.1875 693.985 55.3464 694.537 55.6641C695.089 55.9818 695.514 56.4323 695.811 57.0156C696.108 57.599 696.256 58.2969 696.256 59.1094V60.0938H690.483C690.504 60.9323 690.727 61.5781 691.155 62.0312C691.587 62.4844 692.191 62.7109 692.967 62.7109C693.519 62.7109 694.014 62.6589 694.451 62.5547C694.894 62.4453 695.35 62.2865 695.819 62.0781V63.5703C695.386 63.7734 694.946 63.9219 694.498 64.0156C694.05 64.1094 693.514 64.1562 692.889 64.1562C692.04 64.1562 691.293 63.9922 690.647 63.6641C690.006 63.3307 689.504 62.8359 689.139 62.1797C688.78 61.5234 688.6 60.7083 688.6 59.7344C688.6 58.7656 688.764 57.9427 689.092 57.2656C689.42 56.5885 689.881 56.0729 690.475 55.7188C691.069 55.3646 691.761 55.1875 692.553 55.1875ZM692.553 56.5703C691.975 56.5703 691.506 56.7578 691.147 57.1328C690.793 57.5078 690.584 58.0573 690.522 58.7812H694.459C694.454 58.349 694.381 57.9661 694.241 57.6328C694.105 57.2995 693.897 57.0391 693.616 56.8516C693.339 56.6641 692.985 56.5703 692.553 56.5703ZM700.682 64H698.838V51.8438H700.682V64ZM707.264 55.1875C708.035 55.1875 708.697 55.3464 709.249 55.6641C709.801 55.9818 710.225 56.4323 710.522 57.0156C710.819 57.599 710.968 58.2969 710.968 59.1094V60.0938H705.194C705.215 60.9323 705.439 61.5781 705.866 62.0312C706.298 62.4844 706.903 62.7109 707.679 62.7109C708.231 62.7109 708.725 62.6589 709.163 62.5547C709.606 62.4453 710.061 62.2865 710.53 62.0781V63.5703C710.098 63.7734 709.658 63.9219 709.21 64.0156C708.762 64.1094 708.225 64.1562 707.6 64.1562C706.751 64.1562 706.004 63.9922 705.358 63.6641C704.718 63.3307 704.215 62.8359 703.85 62.1797C703.491 61.5234 703.311 60.7083 703.311 59.7344C703.311 58.7656 703.475 57.9427 703.804 57.2656C704.132 56.5885 704.593 56.0729 705.186 55.7188C705.78 55.3646 706.473 55.1875 707.264 55.1875ZM707.264 56.5703C706.686 56.5703 706.218 56.7578 705.858 57.1328C705.504 57.5078 705.296 58.0573 705.233 58.7812H709.171C709.166 58.349 709.093 57.9661 708.952 57.6328C708.817 57.2995 708.608 57.0391 708.327 56.8516C708.051 56.6641 707.697 56.5703 707.264 56.5703ZM717.034 64.1562C716.217 64.1562 715.508 63.9974 714.909 63.6797C714.31 63.362 713.849 62.875 713.527 62.2188C713.204 61.5625 713.042 60.7292 713.042 59.7188C713.042 58.6667 713.219 57.8073 713.573 57.1406C713.928 56.474 714.417 55.9818 715.042 55.6641C715.672 55.3464 716.394 55.1875 717.206 55.1875C717.722 55.1875 718.188 55.2396 718.605 55.3438C719.027 55.4427 719.383 55.5651 719.675 55.7109L719.128 57.1797C718.81 57.0495 718.485 56.9401 718.152 56.8516C717.818 56.763 717.498 56.7188 717.191 56.7188C716.685 56.7188 716.263 56.8307 715.925 57.0547C715.592 57.2786 715.342 57.612 715.175 58.0547C715.013 58.4974 714.933 59.0469 714.933 59.7031C714.933 60.3385 715.016 60.875 715.183 61.3125C715.349 61.7448 715.597 62.0729 715.925 62.2969C716.253 62.5156 716.657 62.625 717.136 62.625C717.61 62.625 718.034 62.5677 718.409 62.4531C718.784 62.3385 719.138 62.1901 719.472 62.0078V63.6016C719.144 63.7891 718.792 63.9271 718.417 64.0156C718.042 64.1094 717.581 64.1562 717.034 64.1562ZM725.234 62.6719C725.473 62.6719 725.71 62.651 725.945 62.6094C726.179 62.5625 726.393 62.5078 726.585 62.4453V63.8359C726.382 63.9245 726.119 64 725.796 64.0625C725.473 64.125 725.137 64.1562 724.789 64.1562C724.299 64.1562 723.859 64.0755 723.468 63.9141C723.078 63.7474 722.768 63.4635 722.539 63.0625C722.309 62.6615 722.195 62.1068 722.195 61.3984V56.75H721.015V55.9297L722.281 55.2812L722.882 53.4297H724.039V55.3516H726.515V56.75H724.039V61.375C724.039 61.8125 724.148 62.138 724.367 62.3516C724.585 62.5651 724.874 62.6719 725.234 62.6719ZM730.691 55.3516V64H728.855V55.3516H730.691ZM729.785 52.0391C730.066 52.0391 730.308 52.1146 730.511 52.2656C730.72 52.4167 730.824 52.6771 730.824 53.0469C730.824 53.4115 730.72 53.6719 730.511 53.8281C730.308 53.9792 730.066 54.0547 729.785 54.0547C729.493 54.0547 729.246 53.9792 729.043 53.8281C728.845 53.6719 728.746 53.4115 728.746 53.0469C728.746 52.6771 728.845 52.4167 729.043 52.2656C729.246 52.1146 729.493 52.0391 729.785 52.0391ZM741.492 59.6562C741.492 60.375 741.398 61.013 741.211 61.5703C741.023 62.1276 740.75 62.599 740.391 62.9844C740.031 63.3646 739.599 63.6562 739.094 63.8594C738.589 64.0573 738.018 64.1562 737.383 64.1562C736.789 64.1562 736.245 64.0573 735.75 63.8594C735.255 63.6562 734.826 63.3646 734.461 62.9844C734.102 62.599 733.823 62.1276 733.625 61.5703C733.427 61.013 733.328 60.375 733.328 59.6562C733.328 58.7031 733.492 57.8958 733.82 57.2344C734.154 56.5677 734.628 56.0599 735.242 55.7109C735.857 55.362 736.589 55.1875 737.438 55.1875C738.234 55.1875 738.938 55.362 739.547 55.7109C740.156 56.0599 740.633 56.5677 740.977 57.2344C741.32 57.901 741.492 58.7083 741.492 59.6562ZM735.219 59.6562C735.219 60.2865 735.294 60.8255 735.445 61.2734C735.602 61.7214 735.841 62.0651 736.164 62.3047C736.487 62.5391 736.904 62.6562 737.414 62.6562C737.924 62.6562 738.341 62.5391 738.664 62.3047C738.987 62.0651 739.224 61.7214 739.375 61.2734C739.526 60.8255 739.602 60.2865 739.602 59.6562C739.602 59.026 739.526 58.4922 739.375 58.0547C739.224 57.612 738.987 57.276 738.664 57.0469C738.341 56.8125 737.922 56.6953 737.406 56.6953C736.646 56.6953 736.091 56.9505 735.742 57.4609C735.393 57.9714 735.219 58.7031 735.219 59.6562ZM748.621 55.1875C749.595 55.1875 750.353 55.4401 750.895 55.9453C751.442 56.4453 751.715 57.25 751.715 58.3594V64H749.879V58.7031C749.879 58.0312 749.741 57.5286 749.465 57.1953C749.189 56.8568 748.762 56.6875 748.184 56.6875C747.345 56.6875 746.762 56.9453 746.434 57.4609C746.111 57.9766 745.95 58.724 745.95 59.7031V64H744.114V55.3516H745.543L745.801 56.5234H745.903C746.09 56.2214 746.322 55.974 746.598 55.7812C746.879 55.5833 747.192 55.4349 747.535 55.3359C747.884 55.237 748.246 55.1875 748.621 55.1875ZM762.974 52.5781C764.447 52.5781 765.523 52.8802 766.2 53.4844C766.877 54.0885 767.216 54.9349 767.216 56.0234C767.216 56.5182 767.138 56.9896 766.981 57.4375C766.83 57.8802 766.58 58.2734 766.231 58.6172C765.882 58.9557 765.421 59.224 764.849 59.4219C764.281 59.6198 763.58 59.7188 762.747 59.7188H761.528V64H759.653V52.5781H762.974ZM762.849 54.1328H761.528V58.1562H762.552C763.14 58.1562 763.64 58.0885 764.052 57.9531C764.463 57.8125 764.776 57.5911 764.989 57.2891C765.203 56.987 765.309 56.5885 765.309 56.0938C765.309 55.4323 765.109 54.9401 764.708 54.6172C764.312 54.2943 763.692 54.1328 762.849 54.1328ZM771.657 51.8438V54.8984C771.657 55.2161 771.647 55.526 771.626 55.8281C771.611 56.1302 771.592 56.3646 771.571 56.5312H771.673C771.855 56.2292 772.079 55.9818 772.345 55.7891C772.611 55.5911 772.907 55.4427 773.236 55.3438C773.569 55.2448 773.923 55.1953 774.298 55.1953C774.959 55.1953 775.522 55.3073 775.986 55.5312C776.449 55.75 776.803 56.0911 777.048 56.5547C777.298 57.0182 777.423 57.6198 777.423 58.3594V64H775.587V58.7031C775.587 58.0312 775.449 57.5286 775.173 57.1953C774.897 56.8568 774.47 56.6875 773.892 56.6875C773.334 56.6875 772.892 56.8047 772.564 57.0391C772.241 57.2682 772.009 57.6094 771.868 58.0625C771.728 58.5104 771.657 59.0573 771.657 59.7031V64H769.821V51.8438H771.657ZM783.896 55.1875C784.99 55.1875 785.815 55.4297 786.372 55.9141C786.935 56.3984 787.216 57.1536 787.216 58.1797V64H785.912L785.56 62.7734H785.497C785.253 63.0859 785 63.3438 784.74 63.5469C784.479 63.75 784.177 63.901 783.833 64C783.495 64.1042 783.081 64.1562 782.591 64.1562C782.076 64.1562 781.615 64.0625 781.208 63.875C780.802 63.6823 780.482 63.3906 780.247 63C780.013 62.6094 779.896 62.1146 779.896 61.5156C779.896 60.625 780.227 59.9557 780.888 59.5078C781.555 59.0599 782.56 58.8125 783.904 58.7656L785.404 58.7109V58.2578C785.404 57.6589 785.263 57.2318 784.982 56.9766C784.706 56.7214 784.315 56.5938 783.81 56.5938C783.378 56.5938 782.958 56.6562 782.552 56.7812C782.146 56.9062 781.75 57.0599 781.365 57.2422L780.771 55.9453C781.193 55.7214 781.672 55.5391 782.208 55.3984C782.75 55.2578 783.313 55.1875 783.896 55.1875ZM785.396 59.8672L784.279 59.9062C783.362 59.9375 782.719 60.0938 782.349 60.375C781.979 60.6562 781.794 61.0417 781.794 61.5312C781.794 61.9583 781.922 62.2708 782.177 62.4688C782.432 62.6615 782.768 62.7578 783.185 62.7578C783.82 62.7578 784.346 62.5781 784.763 62.2188C785.185 61.8542 785.396 61.3203 785.396 60.6172V59.8672ZM796.111 61.5312C796.111 62.099 795.973 62.5781 795.697 62.9688C795.421 63.3594 795.017 63.6562 794.486 63.8594C793.96 64.0573 793.314 64.1562 792.549 64.1562C791.944 64.1562 791.424 64.112 790.986 64.0234C790.554 63.9401 790.145 63.8099 789.759 63.6328V62.0469C790.171 62.2396 790.632 62.4062 791.142 62.5469C791.658 62.6875 792.145 62.7578 792.603 62.7578C793.207 62.7578 793.642 62.6641 793.908 62.4766C794.174 62.2839 794.306 62.0286 794.306 61.7109C794.306 61.5234 794.252 61.3568 794.142 61.2109C794.038 61.0599 793.84 60.9062 793.549 60.75C793.262 60.5885 792.84 60.3958 792.283 60.1719C791.736 59.9531 791.275 59.7344 790.9 59.5156C790.525 59.2969 790.241 59.0339 790.049 58.7266C789.856 58.4141 789.759 58.0156 789.759 57.5312C789.759 56.7656 790.062 56.1849 790.666 55.7891C791.275 55.388 792.08 55.1875 793.08 55.1875C793.611 55.1875 794.111 55.2422 794.58 55.3516C795.054 55.4557 795.517 55.6094 795.97 55.8125L795.392 57.1953C795.002 57.0234 794.608 56.8828 794.213 56.7734C793.822 56.6589 793.424 56.6016 793.017 56.6016C792.543 56.6016 792.181 56.6745 791.931 56.8203C791.687 56.9661 791.564 57.1745 791.564 57.4453C791.564 57.6484 791.624 57.8203 791.744 57.9609C791.864 58.1016 792.069 58.2422 792.361 58.3828C792.658 58.5234 793.069 58.6979 793.595 58.9062C794.111 59.1042 794.556 59.3125 794.931 59.5312C795.312 59.7448 795.603 60.0078 795.806 60.3203C796.009 60.6328 796.111 61.0365 796.111 61.5312ZM802.053 55.1875C802.824 55.1875 803.485 55.3464 804.037 55.6641C804.589 55.9818 805.014 56.4323 805.311 57.0156C805.607 57.599 805.756 58.2969 805.756 59.1094V60.0938H799.982C800.003 60.9323 800.227 61.5781 800.654 62.0312C801.087 62.4844 801.691 62.7109 802.467 62.7109C803.019 62.7109 803.514 62.6589 803.951 62.5547C804.394 62.4453 804.85 62.2865 805.318 62.0781V63.5703C804.886 63.7734 804.446 63.9219 803.998 64.0156C803.55 64.1094 803.014 64.1562 802.389 64.1562C801.54 64.1562 800.792 63.9922 800.146 63.6641C799.506 63.3307 799.003 62.8359 798.639 62.1797C798.279 61.5234 798.1 60.7083 798.1 59.7344C798.1 58.7656 798.264 57.9427 798.592 57.2656C798.92 56.5885 799.381 56.0729 799.975 55.7188C800.568 55.3646 801.261 55.1875 802.053 55.1875ZM802.053 56.5703C801.475 56.5703 801.006 56.7578 800.646 57.1328C800.292 57.5078 800.084 58.0573 800.021 58.7812H803.959C803.954 58.349 803.881 57.9661 803.74 57.6328C803.605 57.2995 803.396 57.0391 803.115 56.8516C802.839 56.6641 802.485 56.5703 802.053 56.5703Z" fill="#006697"/>
<defs>
<linearGradient id="paint0_linear_8339_67220" x1="99.2924" y1="24.5675" x2="143.66" y2="27.1958" gradientUnits="userSpaceOnUse">
<stop stop-color="white"/>
<stop offset="0.32" stop-color="#FBFBFB"/>
<stop offset="0.64" stop-color="#EEEEEE"/>
<stop offset="0.96" stop-color="#DBDBDB"/>
<stop offset="0.99" stop-color="#D8D8D8"/>
</linearGradient>
<linearGradient id="paint1_linear_8339_67220" x1="121.734" y1="62.6085" x2="128.256" y2="62.6085" gradientUnits="userSpaceOnUse">
<stop stop-color="white"/>
<stop offset="0.32" stop-color="#FBFBFB"/>
<stop offset="0.64" stop-color="#EEEEEE"/>
<stop offset="0.96" stop-color="#DBDBDB"/>
<stop offset="0.99" stop-color="#D8D8D8"/>
</linearGradient>
<linearGradient id="paint2_linear_8339_67220" x1="307.292" y1="122.479" x2="351.66" y2="125.107" gradientUnits="userSpaceOnUse">
<stop stop-color="white"/>
<stop offset="0.32" stop-color="#FBFBFB"/>
<stop offset="0.64" stop-color="#EEEEEE"/>
<stop offset="0.96" stop-color="#DBDBDB"/>
<stop offset="0.99" stop-color="#D8D8D8"/>
</linearGradient>
<linearGradient id="paint3_linear_8339_67220" x1="329.742" y1="85.8854" x2="336.264" y2="85.8854" gradientUnits="userSpaceOnUse">
<stop stop-color="white"/>
<stop offset="0.32" stop-color="#FBFBFB"/>
<stop offset="0.64" stop-color="#EEEEEE"/>
<stop offset="0.96" stop-color="#DBDBDB"/>
<stop offset="0.99" stop-color="#D8D8D8"/>
</linearGradient>
<linearGradient id="paint4_linear_8339_67220" x1="513.292" y1="24.5675" x2="557.66" y2="27.1958" gradientUnits="userSpaceOnUse">
<stop stop-color="white"/>
<stop offset="0.32" stop-color="#FBFBFB"/>
<stop offset="0.64" stop-color="#EEEEEE"/>
<stop offset="0.96" stop-color="#DBDBDB"/>
<stop offset="0.99" stop-color="#D8D8D8"/>
</linearGradient>
<linearGradient id="paint5_linear_8339_67220" x1="535.742" y1="62.6088" x2="542.264" y2="62.6088" gradientUnits="userSpaceOnUse">
<stop stop-color="white"/>
<stop offset="0.32" stop-color="#FBFBFB"/>
<stop offset="0.64" stop-color="#EEEEEE"/>
<stop offset="0.96" stop-color="#DBDBDB"/>
<stop offset="0.99" stop-color="#D8D8D8"/>
</linearGradient>
<linearGradient id="paint6_linear_8339_67220" x1="719.292" y1="122.479" x2="763.66" y2="125.107" gradientUnits="userSpaceOnUse">
<stop stop-color="white"/>
<stop offset="0.32" stop-color="#FBFBFB"/>
<stop offset="0.64" stop-color="#EEEEEE"/>
<stop offset="0.96" stop-color="#DBDBDB"/>
<stop offset="0.99" stop-color="#D8D8D8"/>
</linearGradient>
<linearGradient id="paint7_linear_8339_67220" x1="741.742" y1="85.8854" x2="748.264" y2="85.8854" gradientUnits="userSpaceOnUse">
<stop stop-color="white"/>
<stop offset="0.32" stop-color="#FBFBFB"/>
<stop offset="0.64" stop-color="#EEEEEE"/>
<stop offset="0.96" stop-color="#DBDBDB"/>
<stop offset="0.99" stop-color="#D8D8D8"/>
</linearGradient>
<linearGradient id="paint8_linear_8339_67220" x1="930.292" y1="24.5675" x2="974.66" y2="27.1958" gradientUnits="userSpaceOnUse">
<stop stop-color="white"/>
<stop offset="0.32" stop-color="#FBFBFB"/>
<stop offset="0.64" stop-color="#EEEEEE"/>
<stop offset="0.96" stop-color="#DBDBDB"/>
<stop offset="0.99" stop-color="#D8D8D8"/>
</linearGradient>
<linearGradient id="paint9_linear_8339_67220" x1="952.742" y1="62.6088" x2="959.264" y2="62.6088" gradientUnits="userSpaceOnUse">
<stop stop-color="white"/>
<stop offset="0.32" stop-color="#FBFBFB"/>
<stop offset="0.64" stop-color="#EEEEEE"/>
<stop offset="0.96" stop-color="#DBDBDB"/>
<stop offset="0.99" stop-color="#D8D8D8"/>
</linearGradient>
</defs>
</svg>
