<svg width="16" height="4" viewBox="0 0 16 4" fill="none" xmlns="http://www.w3.org/2000/svg">
<path fill-rule="evenodd" clip-rule="evenodd" d="M14.4 0.400024C15.2837 0.400024 16 1.11637 16 2.00002C16 2.88367 15.2837 3.60001 14.4 3.60001C13.5164 3.60001 12.8 2.88367 12.8 2.00002C12.8 1.11637 13.5164 0.400024 14.4 0.400024ZM8.00003 0.400024C8.88367 0.400024 9.60002 1.11637 9.60002 2.00002C9.60002 2.88367 8.88367 3.60001 8.00003 3.60001C7.11638 3.60001 6.40003 2.88367 6.40003 2.00002C6.40003 1.11637 7.11638 0.400024 8.00003 0.400024ZM1.59999 0.400024C2.48364 0.400024 3.19999 1.11637 3.19999 2.00002C3.19999 2.88367 2.48364 3.60001 1.59999 3.60001C0.716347 3.60001 0 2.88367 0 2.00002C0 1.11637 0.716347 0.400024 1.59999 0.400024Z" fill="#252EFF"/>
</svg>
