<svg width="16" height="16" viewBox="0 0 16 16" fill="none" xmlns="http://www.w3.org/2000/svg">
<g clip-path="url(#clip0_6354_108431)">
<path d="M7.99969 11.2C7.82306 11.2 7.67969 11.3433 7.67969 11.52C7.67969 11.6966 7.82306 11.84 7.99969 11.84C8.17631 11.84 8.31969 11.6966 8.31969 11.52C8.31969 11.3433 8.17631 11.2 7.99969 11.2Z" fill="black"/>
<path d="M7.99937 12.1599C8.35284 12.1599 8.63938 11.8733 8.63938 11.5199C8.63938 11.1664 8.35284 10.8799 7.99937 10.8799C7.64591 10.8799 7.35938 11.1664 7.35938 11.5199C7.35938 11.8733 7.64591 12.1599 7.99937 12.1599Z" fill="black"/>
<path d="M8 0C3.58847 0 0 3.58847 0 8C0 12.4115 3.58847 16 8 16C12.4115 16 16 12.4115 16 8C16 3.58847 12.4115 0 8 0ZM8 15.36C3.94175 15.36 0.64 12.0583 0.64 8C0.64 3.94175 3.94175 0.64 8 0.64C12.0583 0.64 15.36 3.94175 15.36 8C15.36 12.0583 12.0583 15.36 8 15.36Z" fill="black"/>
<path d="M10.2052 5.67622C10.0471 4.77447 9.30666 4.03397 8.40491 3.87525C7.73994 3.75878 7.06922 3.93669 6.56172 4.36356C6.05356 4.7911 5.76172 5.41638 5.76172 6.08003C5.76172 6.25666 5.90509 6.40003 6.08172 6.40003C6.25834 6.40003 6.40172 6.25666 6.40172 6.08003C6.40172 5.60578 6.61038 5.15906 6.97388 4.85444C7.3425 4.54531 7.81228 4.42116 8.29484 4.50628C8.93613 4.61891 9.46284 5.14628 9.57612 5.78756C9.69772 6.48131 9.38284 7.14694 8.77294 7.48228C8.08941 7.85925 7.68175 8.51013 7.68175 9.28003V9.92003C7.68175 10.0967 7.82513 10.24 8.00175 10.24C8.17838 10.24 8.32175 10.0967 8.32047 9.92003V9.22372C8.32047 8.74628 8.60528 8.30469 9.08078 8.04228C9.92103 7.58022 10.3729 6.62919 10.2052 5.67622Z" fill="black"/>
</g>
<defs>
<clipPath id="clip0_6354_108431">
<rect width="16" height="16" fill="white"/>
</clipPath>
</defs>
</svg>
