<svg width="40" height="40" viewBox="0 0 40 40" fill="none" xmlns="http://www.w3.org/2000/svg">
<path d="M21.4099 0C19.0499 0 17.1299 2.02 17.1299 4.5C17.1299 6.65 20.1599 11.01 20.8699 12.01C20.8699 12.33 20.8699 12.65 20.8699 12.93C20.8699 13.24 21.0999 13.5 21.3899 13.51H21.3999C21.6899 13.51 21.9299 13.27 21.9299 12.96C21.9299 12.66 21.9299 12.34 21.9299 12.01C22.6399 11.02 25.6799 6.66 25.6799 4.5C25.6799 2.02 23.7599 0 21.3999 0H21.4099ZM21.4099 10.88C20.2299 9.18 18.1999 5.94 18.1999 4.5C18.1999 2.64 19.6399 1.12 21.4099 1.12C23.1799 1.12 24.6199 2.64 24.6199 4.5C24.6199 5.93 22.5899 9.17 21.4099 10.88Z" fill="white"/>
<path d="M21.4098 3.37988C20.8198 3.37988 20.3398 3.88988 20.3398 4.50988C20.3398 5.12988 20.8198 5.63988 21.4098 5.63988C21.9998 5.63988 22.4798 5.12988 22.4798 4.50988C22.4798 3.88988 21.9998 3.37988 21.4098 3.37988Z" fill="white"/>
<path d="M6.41996 12.3899C4.64996 12.3899 3.20996 13.9099 3.20996 15.7699C3.20996 17.6299 4.64996 19.1499 6.41996 19.1499C8.18996 19.1499 9.62996 17.6299 9.62996 15.7699C9.62996 13.9099 8.18996 12.3899 6.41996 12.3899ZM6.41996 18.0199C5.23996 18.0199 4.27996 17.0099 4.27996 15.7699C4.27996 14.5299 5.23996 13.5199 6.41996 13.5199C7.59996 13.5199 8.55996 14.5299 8.55996 15.7699C8.55996 17.0099 7.59996 18.0199 6.41996 18.0199Z" fill="white"/>
<path d="M14.5298 20.2899C14.2498 20.1799 13.9398 20.3199 13.8398 20.6099C13.5998 21.2599 13.2998 22.0199 12.8998 22.7199C12.7498 22.9899 12.8298 23.3299 13.0798 23.4899C13.1698 23.5499 13.2598 23.5699 13.3598 23.5699C13.5398 23.5699 13.7198 23.4699 13.8198 23.2999C14.2698 22.5299 14.5898 21.7099 14.8498 21.0099C14.9598 20.7199 14.8198 20.3899 14.5398 20.2799L14.5298 20.2899Z" fill="white"/>
<path d="M11.5098 24.4C10.9698 24.85 10.3598 25.18 9.64978 25.43C9.36978 25.53 9.21978 25.84 9.30978 26.14C9.37978 26.38 9.58978 26.53 9.81978 26.53C9.86978 26.53 9.92978 26.53 9.98978 26.5C10.8198 26.22 11.5598 25.81 12.1898 25.28C12.4198 25.09 12.4598 24.73 12.2798 24.49C12.0898 24.25 11.7598 24.2 11.5298 24.4H11.5098Z" fill="white"/>
<path d="M16.3798 16.23C15.4998 16.76 15.0098 17.67 14.7098 18.31C14.5798 18.59 14.6898 18.93 14.9598 19.06C15.0298 19.1 15.1098 19.12 15.1898 19.12C15.3898 19.12 15.5798 19 15.6698 18.8C16.0398 17.98 16.4198 17.49 16.8998 17.21C17.1598 17.06 17.2498 16.71 17.0998 16.44C16.9498 16.17 16.6298 16.07 16.3698 16.23H16.3798Z" fill="white"/>
<path d="M21.2099 14.8299C20.9699 14.6599 20.6299 14.7199 20.4699 14.9799C20.2899 15.2499 19.9299 15.6299 18.8399 15.7299C18.5499 15.7599 18.3299 16.0299 18.3499 16.3399C18.3799 16.6299 18.6099 16.8499 18.8799 16.8499C18.8999 16.8499 18.9099 16.8499 18.9299 16.8499C20.0899 16.7399 20.8799 16.3299 21.3499 15.6099C21.5199 15.3499 21.4499 14.9999 21.2099 14.8299Z" fill="white"/>
<path d="M7.69 25.91C9.38 24.02 12.84 19.66 12.84 15.77C12.84 11.88 10.02 9.01001 6.42 9.01001C2.82 9.01001 0 11.98 0 15.76C0 20.79 5.81 26.62 6.05 26.87C6.15 26.97 6.29 27.02 6.42 27.02C6.81 27.02 7.18 27.01 7.53 26.98C7.82 26.96 8.05 26.69 8.02 26.38C8 26.16 7.87 25.98 7.68 25.91H7.69ZM6.42 25.67C5.16 24.31 1.07 19.63 1.07 15.77C1.07 12.61 3.42 10.14 6.42 10.14C9.42 10.14 11.77 12.61 11.77 15.77C11.77 19.63 7.68 24.32 6.42 25.67Z" fill="white"/>
<path d="M11.3098 36.6699C10.8998 37.3499 10.8898 38.2 11.2798 38.88C11.6698 39.57 12.3998 40 13.1898 40H37.7998C38.5898 40 39.3198 39.57 39.7098 38.88C40.0998 38.19 40.0898 37.3399 39.6798 36.6699L27.3698 16.26C26.9698 15.61 26.2498 15.2 25.4898 15.2C24.7298 15.2 24.0098 15.61 23.6098 16.26L11.2998 36.6699H11.3098ZM24.4298 16.75C24.8798 16.01 26.1098 16.01 26.5598 16.75L38.8698 37.16C39.0998 37.5399 39.1098 38.02 38.8898 38.41C38.6698 38.7999 38.2598 39.04 37.8098 39.04H13.1898C12.7398 39.04 12.3298 38.7999 12.1098 38.41C11.8898 38.02 11.8998 37.5399 12.1298 37.16L24.4398 16.75H24.4298Z" fill="white"/>
<path d="M26.0597 32.25C26.0597 31.16 26.1197 29.82 26.1897 28.52C26.2497 27.23 26.3197 25.9 26.3197 24.84C26.3197 24.25 25.5997 24.23 25.5197 24.23C25.3297 24.23 24.6997 24.27 24.6997 24.84C24.6997 25.91 24.7597 27.24 24.8297 28.52C24.8897 29.82 24.9597 31.16 24.9597 32.25C24.9597 32.5 25.2697 32.55 25.5297 32.55C25.7297 32.55 26.0797 32.45 26.0797 32.25H26.0597Z" fill="white"/>
<path d="M26.3996 34.7001C26.3996 34.2201 25.9896 33.8 25.5196 33.8C25.0196 33.8 24.6196 34.1901 24.6196 34.7001C24.6196 35.2101 25.0196 35.6 25.5196 35.6C25.9796 35.6 26.3996 35.1701 26.3996 34.7001Z" fill="white"/>
</svg>
