<svg width="24" height="20" viewBox="0 0 24 20" fill="none" xmlns="http://www.w3.org/2000/svg">
<path d="M23.1848 8.91366L21.5506 8.07263L20.1628 4.86142C19.7877 3.98216 19.0268 3.43421 18.1963 3.44058H15.8065V2.63778C15.8065 1.18509 14.8313 0 13.6096 0H2.18582C0.96414 0 -0.000345709 1.19146 -0.000345709 2.63778V14.9347C-0.0110622 15.8203 0.583704 16.5467 1.3285 16.5594C1.33386 16.5594 1.33922 16.5594 1.34993 16.5594H1.63392C1.63392 16.6231 1.62856 16.6486 1.62856 16.6868C1.62321 18.5091 2.86096 19.9936 4.39342 20C5.92588 20.0063 7.17436 18.5345 7.17972 16.7123C7.17972 16.6996 7.17972 16.6932 7.17972 16.6805C7.17972 16.6359 7.17972 16.6167 7.17436 16.553H16.4066C16.4066 16.6167 16.4066 16.6422 16.4066 16.6805C16.4013 18.5027 17.639 19.9872 19.1715 19.9936C20.704 20 21.9524 18.5282 21.9578 16.7059C21.9578 16.6932 21.9578 16.6868 21.9578 16.6741C21.9578 16.6295 21.9578 16.6104 21.9578 16.5467H22.649C23.3938 16.5467 23.9993 15.8267 23.9993 14.941C23.9993 14.9347 23.9993 14.9283 23.9993 14.9156V10.3918C24.01 9.76743 23.6885 9.17489 23.1848 8.91366ZM4.4095 18.7321C3.46645 18.7321 2.70557 17.8273 2.70557 16.7059C2.70557 15.5846 3.46645 14.6798 4.4095 14.6798C5.35255 14.6798 6.11342 15.5846 6.11342 16.7059C6.11342 17.8209 5.34719 18.7321 4.4095 18.7321ZM14.7349 15.2978H6.92252C6.47243 14.1319 5.48651 13.3864 4.4095 13.3928C3.32713 13.3864 2.34657 14.1255 1.89648 15.2978H1.34993C1.18383 15.2978 1.07131 15.1449 1.07131 14.9474V11.6661H14.7349V15.2978ZM14.7349 2.64415V10.3918H1.07131V2.64415C1.07131 1.89869 1.55891 1.28066 2.18582 1.28066H13.6096C14.2365 1.28703 14.7402 1.89869 14.7349 2.63778V2.64415ZM15.8065 4.72124H18.1963C18.6196 4.71487 19.0161 4.98884 19.2144 5.44122L20.286 7.90697H15.8065V4.72124ZM19.1876 18.7321C18.2445 18.7321 17.4836 17.8273 17.4836 16.7059C17.4836 15.5846 18.2445 14.6798 19.1876 14.6798C20.1306 14.6798 20.8915 15.5846 20.8915 16.7059C20.8915 17.8209 20.1306 18.7321 19.1876 18.7321ZM22.933 14.9474C22.933 15.1449 22.8205 15.2978 22.6544 15.2978H21.7006C21.0522 13.6476 19.4019 12.934 18.0141 13.705C17.4247 14.0299 16.9478 14.597 16.6745 15.2978H15.8065V9.18126H21.0576L22.7615 10.0733C22.8687 10.137 22.9383 10.2771 22.933 10.4173V14.9474Z" fill="black"/>
</svg>
