<svg width="37" height="26" viewBox="0 0 37 26" fill="none" xmlns="http://www.w3.org/2000/svg">
<path d="M34.7763 11.25L32.3283 10.188L30.2493 6.138C29.6823 5.031 28.5483 4.338 27.2973 4.347H23.7153V3.33C23.7153 1.494 22.2483 0 20.4213 0H3.27627C1.44927 0.009 0.000267994 1.512 0.000267994 3.339V18.846C-0.017732 19.962 0.873268 20.88 1.98927 20.898H2.44827C2.44827 20.979 2.44827 21.015 2.44827 21.06C2.44827 23.355 4.29327 25.227 6.59727 25.236C8.90127 25.245 10.7643 23.391 10.7733 21.087V21.051C10.7733 20.997 10.7733 20.97 10.7733 20.889H24.6243V21.051C24.6243 23.346 26.4693 25.218 28.7733 25.227C31.0773 25.236 32.9403 23.382 32.9493 21.078V20.88H33.9843C35.1003 20.88 36.0093 19.971 36.0093 18.855V13.113C36.0273 12.321 35.5413 11.574 34.7853 11.25H34.7763ZM6.61527 23.643C5.20227 23.643 4.05927 22.5 4.05927 21.087C4.05927 19.674 5.20227 18.531 6.61527 18.531C8.02827 18.531 9.17127 19.674 9.17127 21.087C9.17127 22.5 8.01927 23.643 6.61527 23.643ZM22.1043 19.314H10.3863C9.71127 17.847 8.23527 16.902 6.61527 16.911C4.99527 16.911 3.51927 17.838 2.84427 19.314H2.02527C1.77327 19.314 1.61127 19.125 1.61127 18.873V14.733H22.1043V19.314ZM22.1043 3.348V13.122H1.61127V3.348C1.61127 2.412 2.34027 1.629 3.28527 1.629H20.4123C21.3483 1.629 22.1043 2.412 22.1043 3.339V3.348ZM23.7153 5.976H27.2973C27.9363 5.976 28.5303 6.318 28.8273 6.885L30.4383 9.999H23.7153V5.967V5.976ZM28.7913 23.652C27.3783 23.652 26.2353 22.509 26.2353 21.096C26.2353 19.683 27.3783 18.54 28.7913 18.54C30.2043 18.54 31.3473 19.683 31.3473 21.096C31.3473 22.5 30.2043 23.652 28.7913 23.652ZM34.4073 18.882C34.4073 19.134 34.2363 19.323 33.9933 19.323H32.5623C31.5903 17.244 29.1153 16.344 27.0363 17.316C26.1543 17.73 25.4343 18.441 25.0293 19.323H23.7243V11.592H31.5993L34.1553 12.717C34.3173 12.798 34.4163 12.978 34.4163 13.149V18.864L34.4073 18.882Z" fill="#0EB766"/>
</svg>
