<svg width="13" height="10" viewBox="0 0 13 10" fill="none" xmlns="http://www.w3.org/2000/svg">
<path d="M12.1875 7.1875H11.875V4.91992C11.875 4.54883 11.7246 4.1875 11.4629 3.92578L9.82422 2.28711C9.5625 2.02539 9.19922 1.875 8.83008 1.875H8.125V1.09375C8.125 0.490234 7.63477 0 7.03125 0H1.09375C0.490234 0 0 0.490234 0 1.09375V7.03125C0 7.63477 0.490234 8.125 1.09375 8.125H1.25C1.25 9.16016 2.08984 10 3.125 10C4.16016 10 5 9.16016 5 8.125H7.5C7.5 9.16016 8.33984 10 9.375 10C10.4102 10 11.25 9.16016 11.25 8.125H12.1875C12.3594 8.125 12.5 7.98438 12.5 7.8125V7.5C12.5 7.32812 12.3594 7.1875 12.1875 7.1875ZM3.125 9.0625C2.60742 9.0625 2.1875 8.64258 2.1875 8.125C2.1875 7.60742 2.60742 7.1875 3.125 7.1875C3.64258 7.1875 4.0625 7.60742 4.0625 8.125C4.0625 8.64258 3.64258 9.0625 3.125 9.0625ZM7.1875 7.1875H4.74023C4.41602 6.62891 3.81836 6.25 3.125 6.25C2.43164 6.25 1.83398 6.62891 1.50977 7.1875H1.09375C1.00781 7.1875 0.9375 7.11719 0.9375 7.03125V1.09375C0.9375 1.00781 1.00781 0.9375 1.09375 0.9375H7.03125C7.11719 0.9375 7.1875 1.00781 7.1875 1.09375V7.1875ZM8.125 2.8125H8.83008C8.95312 2.8125 9.07422 2.86328 9.16211 2.94922L10.5879 4.375H8.125V2.8125ZM9.375 9.0625C8.85742 9.0625 8.4375 8.64258 8.4375 8.125C8.4375 7.60742 8.85742 7.1875 9.375 7.1875C9.89258 7.1875 10.3125 7.60742 10.3125 8.125C10.3125 8.64258 9.89258 9.0625 9.375 9.0625ZM10.9375 7.0918C10.6016 6.58594 10.0273 6.25 9.375 6.25C8.89258 6.25 8.45703 6.4375 8.125 6.73633V5.3125H10.9375V7.0918Z" fill="#262626"/>
</svg>
