<svg width="16" height="16" viewBox="0 0 16 16" fill="none" xmlns="http://www.w3.org/2000/svg">
<g clip-path="url(#clip0_774_3711)">
<path d="M1.85339 8.01526C1.85339 10.0708 2.87463 11.8878 4.43738 12.9866C4.71277 13.1803 4.72742 13.5825 4.46289 13.7908L4.45544 13.7966C4.28271 13.9326 4.04053 13.9417 3.8606 13.8153C2.03625 12.5341 0.84375 10.4138 0.84375 8.01526C0.84375 4.12476 4.06409 0.966431 7.94678 0.933228V1.94312C4.62134 1.97607 1.85339 4.68213 1.85339 8.01526Z" fill="#131432"/>
<path d="M8.1322 0.0301477L9.98767 1.29931C10.087 1.36731 10.087 1.51391 9.98767 1.58191L8.1322 2.85107C8.01855 2.92883 7.86438 2.84741 7.86438 2.70984V0.171505C7.86438 0.0338098 8.01855 -0.047489 8.1322 0.0301477Z" fill="#131432"/>
<path d="M14.137 7.98469C14.137 5.92915 13.1156 4.11214 11.5529 3.01338C11.2775 2.81966 11.2628 2.41743 11.5273 2.20918L11.5348 2.20332C11.7075 2.06734 11.9497 2.0583 12.1296 2.18465C13.9541 3.4659 15.1465 5.58614 15.1465 7.98469C15.1465 11.8752 11.9316 15.0335 8.04883 15.0667V14.0568C11.3743 14.0239 14.137 11.3179 14.137 7.98469Z" fill="#131432"/>
<path d="M7.85822 15.9698L6.00275 14.7006C5.90338 14.6326 5.90338 14.486 6.00275 14.418L7.85822 13.1489C7.97174 13.0711 8.12604 13.1525 8.12604 13.2901V15.8284C8.12604 15.9661 7.97174 16.0475 7.85822 15.9698Z" fill="#131432"/>
<path d="M11.1446 7.21316L8.10529 9.73366L7.33906 10.3692C7.15852 10.5187 6.93 10.5999 6.69758 10.5999C6.65888 10.5999 6.62019 10.5977 6.58112 10.5932C6.31 10.5613 6.06049 10.4175 5.8968 10.1989L4.71491 8.62343C4.44807 8.2676 4.52021 7.76247 4.87617 7.49514C5.23237 7.22829 5.73749 7.30044 6.00446 7.65639L6.80231 8.72024L6.80878 8.71499L10.1159 5.97231C10.4586 5.68837 10.9666 5.73574 11.2507 6.07839C11.5347 6.42104 11.4873 6.9291 11.1446 7.21316Z" fill="#131432"/>
<path d="M11.1447 7.21316L8.10535 9.73366C7.60828 9.48549 7.17114 9.14248 6.80884 8.71499L10.116 5.97231C10.4586 5.68837 10.9667 5.73574 11.2507 6.07839C11.5348 6.42104 11.4873 6.9291 11.1447 7.21316Z" fill="#131432"/>
</g>
<defs>
<clipPath id="clip0_774_3711">
<rect width="16" height="16" fill="white"/>
</clipPath>
</defs>
</svg>
