<svg width="22" height="24" viewBox="0 0 22 24" fill="none" xmlns="http://www.w3.org/2000/svg">
<path d="M14.478 11.1284C16.0137 10.0084 17.0137 8.19581 17.0137 6.15384C17.0137 2.76061 14.2531 0 10.8599 0C7.46665 0 4.70604 2.76061 4.70604 6.15384C4.70604 8.19581 5.70602 10.0084 7.24174 11.1284C3.42424 12.5892 0.706055 16.2905 0.706055 20.6154C0.706055 22.4817 2.22438 24 4.09066 24H17.6291C19.4954 24 21.0137 22.4817 21.0137 20.6154C21.0137 16.2905 18.2955 12.5892 14.478 11.1284ZM6.55221 6.15384C6.55221 3.77859 8.48463 1.84617 10.8599 1.84617C13.2351 1.84617 15.1676 3.77859 15.1676 6.15384C15.1676 8.52909 13.2351 10.4616 10.8599 10.4616C8.48463 10.4616 6.55221 8.52909 6.55221 6.15384ZM17.6291 22.1538H4.09066C3.24237 22.1538 2.55223 21.4637 2.55223 20.6153C2.55223 16.0344 6.27898 12.3076 10.8599 12.3076C15.4409 12.3076 19.1676 16.0344 19.1676 20.6153C19.1676 21.4637 18.4774 22.1538 17.6291 22.1538Z" fill="black"/>
</svg>
