<svg width="16" height="16" viewBox="0 0 16 16" fill="none" xmlns="http://www.w3.org/2000/svg">
<g clip-path="url(#clip0_2929_41691)">
<g clip-path="url(#clip1_2929_41691)">
<path d="M15.1496 13.8933L15.1496 13.8933C15.3649 13.5204 15.3649 13.0722 15.1497 12.6993L15.1497 12.6993L9.03406 2.10678C9.03406 2.10677 9.03406 2.10677 9.03406 2.10677C8.81877 1.73384 8.43057 1.50977 8.00002 1.50977C7.56944 1.50977 7.18127 1.73385 6.96598 2.10678L0.850344 12.6993L0.850338 12.6993C0.635062 13.0722 0.635062 13.5204 0.850338 13.8933C1.06563 14.2662 1.4538 14.4903 1.88441 14.4903H14.1156C14.5462 14.4903 14.9343 14.2662 15.1496 13.8933ZM15.5284 12.4806L15.7449 12.3556L15.5284 12.4806C15.8239 12.9923 15.8239 13.6003 15.5284 14.112C15.233 14.6236 14.7064 14.9277 14.1156 14.9277H1.88441C1.29354 14.9277 0.76701 14.6236 0.471574 14.112C0.176143 13.6003 0.17614 12.9923 0.471576 12.4806L6.58716 1.88805C6.88256 1.3764 7.40915 1.07236 7.99999 1.07236C8.59086 1.07236 9.11742 1.3764 9.41283 1.88805L15.5284 12.4806Z" fill="white" stroke="white" stroke-width="0.5"/>
<path d="M7.78125 9.93722V5.75029H8.21862V9.93722H7.78125Z" fill="white" stroke="white" stroke-width="0.5"/>
<path d="M7.625 11.7496C7.625 11.5431 7.79341 11.3747 7.99994 11.3747C8.20646 11.3747 8.37487 11.5431 8.37487 11.7496C8.37487 11.9562 8.20644 12.1246 7.99994 12.1246C7.79341 12.1246 7.625 11.9562 7.625 11.7496Z" fill="white" stroke="white" stroke-width="0.5"/>
</g>
</g>
<defs>
<clipPath id="clip0_2929_41691">
<rect width="16" height="16" fill="white"/>
</clipPath>
<clipPath id="clip1_2929_41691">
<rect width="16" height="16" fill="white"/>
</clipPath>
</defs>
</svg>
